G04*
G04 #@! TF.GenerationSoftware,Altium Limited,Altium Designer,22.10.1 (41)*
G04*
G04 Layer_Physical_Order=2*
G04 Layer_Color=36540*
%FSLAX25Y25*%
%MOIN*%
G70*
G04*
G04 #@! TF.SameCoordinates,FB2E412C-4C94-422A-880B-86203416BC3E*
G04*
G04*
G04 #@! TF.FilePolarity,Positive*
G04*
G01*
G75*
%ADD19C,0.05000*%
%ADD20C,0.05906*%
G36*
X30975Y249881D02*
X31721Y249671D01*
X31721Y249671D01*
X31721Y249671D01*
X34714Y248831D01*
X40602Y246833D01*
X46374Y244523D01*
X52014Y241907D01*
X57506Y238993D01*
X62834Y235790D01*
X67983Y232306D01*
X72939Y228552D01*
X77687Y224538D01*
X82213Y220276D01*
X86505Y215777D01*
X90550Y211056D01*
X94337Y206125D01*
X97854Y200999D01*
X101092Y195692D01*
X104042Y190219D01*
X106695Y184596D01*
X109043Y178839D01*
X111080Y172965D01*
X112800Y166991D01*
X114197Y160933D01*
X115269Y154809D01*
X116011Y148636D01*
X116423Y142432D01*
X116502Y136216D01*
X116248Y130004D01*
X115662Y123814D01*
X114746Y117665D01*
X113502Y111574D01*
X111935Y105557D01*
X110047Y99634D01*
X107846Y93819D01*
X106591Y90975D01*
X106591Y90975D01*
X106596Y90973D01*
X105771Y89105D01*
X103979Y85408D01*
X102058Y81775D01*
X100009Y78213D01*
X98922Y76469D01*
X57836Y1500D01*
X-56859Y1500D01*
X-96561Y73807D01*
X-96561Y73807D01*
X-96561Y73807D01*
X-98234Y76338D01*
X-101311Y81567D01*
X-104111Y86949D01*
X-106625Y92471D01*
X-108848Y98115D01*
X-110774Y103869D01*
X-112396Y109715D01*
X-113711Y115638D01*
X-114715Y121621D01*
X-115406Y127648D01*
X-115781Y133704D01*
X-115839Y139770D01*
X-115580Y145832D01*
X-115006Y151871D01*
X-114117Y157873D01*
X-112915Y163820D01*
X-111405Y169696D01*
X-109591Y175485D01*
X-107476Y181172D01*
X-105068Y186740D01*
X-102372Y192175D01*
X-99397Y197462D01*
X-96149Y202587D01*
X-92638Y207535D01*
X-88874Y212293D01*
X-84866Y216847D01*
X-80626Y221187D01*
X-76166Y225299D01*
X-71496Y229173D01*
X-66631Y232798D01*
X-61584Y236164D01*
X-56367Y239262D01*
X-50996Y242083D01*
X-45485Y244620D01*
X-39849Y246866D01*
X-34104Y248815D01*
X-31184Y249638D01*
X-31184Y249638D01*
X-31184Y249638D01*
X-30438Y249848D01*
X-28891Y249970D01*
X-27351Y249787D01*
X-25875Y249308D01*
X-24522Y248549D01*
X-23342Y247542D01*
X-22382Y246323D01*
X-21678Y244941D01*
X-21257Y243448D01*
X-21135Y241901D01*
X-21318Y240361D01*
X-21798Y238885D01*
X-22556Y237532D01*
X-23563Y236352D01*
X-24782Y235392D01*
X-26164Y234688D01*
X-26911Y234478D01*
X-26911Y234477D01*
X-29713Y233644D01*
X-35237Y231732D01*
X-40642Y229503D01*
X-45907Y226963D01*
X-51016Y224120D01*
X-55950Y220986D01*
X-60694Y217569D01*
X-65231Y213882D01*
X-69545Y209937D01*
X-73623Y205747D01*
X-77449Y201328D01*
X-81012Y196693D01*
X-84299Y191858D01*
X-87300Y186841D01*
X-90003Y181657D01*
X-92399Y176325D01*
X-94481Y170862D01*
X-96242Y165288D01*
X-97675Y159620D01*
X-98776Y153878D01*
X-99541Y148083D01*
X-99967Y142252D01*
X-100054Y136407D01*
X-99799Y130566D01*
X-99205Y124750D01*
X-98274Y118979D01*
X-97008Y113271D01*
X-95413Y107647D01*
X-93492Y102126D01*
X-91254Y96725D01*
X-88705Y91464D01*
X-85853Y86360D01*
X-82710Y81431D01*
X-79285Y76693D01*
X-75590Y72163D01*
X-71638Y67855D01*
X-67442Y63785D01*
X-63016Y59966D01*
X-58375Y56411D01*
X-53535Y53132D01*
X-48512Y50140D01*
X-43324Y47446D01*
X-37987Y45059D01*
X-32521Y42985D01*
X-29745Y42069D01*
X-29745Y42069D01*
X-29745Y42069D01*
X-29652Y42132D01*
X-29583Y42178D01*
X-29307Y42455D01*
X-29112Y42794D01*
X-29011Y43171D01*
X-28999Y43366D01*
X-28999Y55443D01*
X-32947Y56919D01*
X-33011Y56946D01*
X-38362Y59372D01*
X-38425Y59403D01*
X-43599Y62187D01*
X-43659Y62222D01*
X-48632Y65350D01*
X-48690Y65389D01*
X-53439Y68848D01*
X-53494Y68891D01*
X-57998Y72664D01*
X-58049Y72710D01*
X-62287Y76780D01*
X-62336Y76830D01*
X-66287Y81178D01*
X-66332Y81231D01*
X-69980Y85837D01*
X-70021Y85893D01*
X-73348Y90736D01*
X-73385Y90795D01*
X-76376Y95852D01*
X-76409Y95913D01*
X-79079Y101225D01*
X-81357Y106641D01*
X-81382Y106705D01*
X-83287Y112263D01*
X-83307Y112330D01*
X-84832Y118004D01*
X-84847Y118072D01*
X-85983Y123836D01*
X-85994Y123905D01*
X-86736Y129733D01*
X-86743Y129803D01*
X-87087Y135668D01*
X-87089Y135738D01*
X-87035Y141613D01*
X-87032Y141682D01*
X-86580Y147540D01*
X-86572Y147609D01*
X-85723Y153423D01*
X-85711Y153491D01*
X-84470Y159234D01*
X-84453Y159302D01*
X-82825Y164947D01*
X-82803Y165013D01*
X-80796Y170535D01*
X-80770Y170600D01*
X-78393Y175972D01*
X-78362Y176035D01*
X-75626Y181235D01*
X-75592Y181295D01*
X-72509Y186297D01*
X-72470Y186355D01*
X-69055Y191136D01*
X-69013Y191191D01*
X-65282Y195729D01*
X-65236Y195781D01*
X-61205Y200056D01*
X-61155Y200105D01*
X-56844Y204096D01*
X-56791Y204142D01*
X-52219Y207832D01*
X-52163Y207873D01*
X-47351Y211244D01*
X-47293Y211282D01*
X-42263Y214319D01*
X-42202Y214353D01*
X-36978Y217041D01*
X-36915Y217071D01*
X-31521Y219399D01*
X-31456Y219424D01*
X-25916Y221381D01*
X-25850Y221402D01*
X-20190Y222978D01*
X-20122Y222994D01*
X-14368Y224183D01*
X-14299Y224195D01*
X-8478Y224990D01*
X-8409Y224997D01*
X-2547Y225396D01*
X-2478Y225398D01*
X3398D01*
X3467Y225396D01*
X9329Y224997D01*
X9398Y224990D01*
X15220Y224195D01*
X15288Y224183D01*
X21042Y222994D01*
X21110Y222978D01*
X26770Y221402D01*
X26836Y221381D01*
X32376Y219424D01*
X32441Y219399D01*
X37835Y217071D01*
X37898Y217041D01*
X43123Y214353D01*
X43183Y214319D01*
X48213Y211282D01*
X48272Y211244D01*
X53084Y207873D01*
X53139Y207832D01*
X57711Y204142D01*
X57764Y204096D01*
X62076Y200105D01*
X62125Y200056D01*
X66156Y195781D01*
X66202Y195729D01*
X69933Y191191D01*
X69976Y191136D01*
X73391Y186355D01*
X73429Y186297D01*
X76512Y181295D01*
X76546Y181235D01*
X79283Y176035D01*
X79313Y175972D01*
X81690Y170600D01*
X81716Y170535D01*
X83723Y165013D01*
X83745Y164947D01*
X85373Y159302D01*
X85390Y159234D01*
X86631Y153491D01*
X86644Y153423D01*
X87492Y147609D01*
X87500Y147540D01*
X87952Y141682D01*
X87955Y141613D01*
X88009Y135738D01*
X88008Y135668D01*
X87663Y129803D01*
X87656Y129733D01*
X86914Y123905D01*
X86903Y123836D01*
X85768Y118072D01*
X85752Y118004D01*
X84228Y112330D01*
X84207Y112263D01*
X82302Y106705D01*
X82277Y106641D01*
X79999Y101225D01*
X79970Y101162D01*
X77329Y95913D01*
X77296Y95852D01*
X74305Y90795D01*
X74268Y90736D01*
X70941Y85893D01*
X70900Y85837D01*
X67252Y81231D01*
X67207Y81178D01*
X63256Y76830D01*
X63207Y76780D01*
X58970Y72710D01*
X58918Y72664D01*
X54414Y68891D01*
X54359Y68848D01*
X49610Y65389D01*
X49552Y65350D01*
X44579Y62222D01*
X44519Y62187D01*
X39345Y59403D01*
X39283Y59372D01*
X33932Y56946D01*
X33867Y56919D01*
X29201Y55174D01*
Y43220D01*
X29201Y43219D01*
X29215Y43018D01*
X29331Y42633D01*
X29555Y42300D01*
X29869Y42048D01*
X30050Y41960D01*
X30050Y41960D01*
Y41960D01*
X30490Y42103D01*
X30494Y42104D01*
X32835Y42867D01*
X38318Y44925D01*
X43673Y47298D01*
X48880Y49980D01*
X53921Y52961D01*
X58781Y56231D01*
X63441Y59778D01*
X67886Y63591D01*
X72102Y67658D01*
X76073Y71962D01*
X79786Y76492D01*
X83229Y81230D01*
X86390Y86160D01*
X89258Y91267D01*
X91823Y96532D01*
X94077Y101938D01*
X96012Y107466D01*
X97621Y113098D01*
X98899Y118814D01*
X99841Y124594D01*
X100445Y130420D01*
X100708Y136271D01*
X100629Y142127D01*
X100209Y147969D01*
X99449Y153776D01*
X98352Y159530D01*
X96921Y165209D01*
X95161Y170795D01*
X93079Y176269D01*
X90680Y181613D01*
X87975Y186807D01*
X84971Y191835D01*
X81679Y196679D01*
X78110Y201323D01*
X74276Y205751D01*
X70191Y209947D01*
X65867Y213899D01*
X61321Y217591D01*
X56567Y221012D01*
X51622Y224150D01*
X46502Y226995D01*
X41225Y229536D01*
X35809Y231765D01*
X30272Y233674D01*
X27464Y234507D01*
X27464D01*
X26717Y234716D01*
X25334Y235419D01*
X24115Y236378D01*
X23106Y237556D01*
X22346Y238909D01*
X21865Y240384D01*
X21681Y241924D01*
X21801Y243471D01*
X22220Y244965D01*
X22923Y246348D01*
X23882Y247567D01*
X25060Y248576D01*
X26413Y249336D01*
X27887Y249817D01*
X29428Y250001D01*
X30975Y249881D01*
D02*
G37*
%LPC*%
G36*
X29134Y247280D02*
X27698Y247091D01*
X26360Y246536D01*
X25211Y245655D01*
X24330Y244506D01*
X23775Y243168D01*
X23586Y241732D01*
X23775Y240297D01*
X24330Y238959D01*
X25211Y237810D01*
X26360Y236928D01*
X27698Y236374D01*
X29134Y236185D01*
X30570Y236374D01*
X31908Y236928D01*
X33057Y237810D01*
X33938Y238959D01*
X34492Y240297D01*
X34681Y241732D01*
X34492Y243168D01*
X33938Y244506D01*
X33057Y245655D01*
X31908Y246536D01*
X30570Y247091D01*
X29134Y247280D01*
D02*
G37*
G36*
X-29134D02*
X-30570Y247091D01*
X-31908Y246536D01*
X-33057Y245655D01*
X-33938Y244506D01*
X-34492Y243168D01*
X-34681Y241732D01*
X-34492Y240297D01*
X-33938Y238959D01*
X-33057Y237810D01*
X-31908Y236928D01*
X-30570Y236374D01*
X-29134Y236185D01*
X-27698Y236374D01*
X-26360Y236928D01*
X-25211Y237810D01*
X-24330Y238959D01*
X-23775Y240297D01*
X-23586Y241732D01*
X-23775Y243168D01*
X-24330Y244506D01*
X-25211Y245655D01*
X-26360Y246536D01*
X-27698Y247091D01*
X-29134Y247280D01*
D02*
G37*
G36*
X-39370Y204318D02*
X-40284Y204197D01*
X-41135Y203845D01*
X-41866Y203284D01*
X-42427Y202553D01*
X-42780Y201701D01*
X-42900Y200787D01*
X-42780Y199874D01*
X-42427Y199022D01*
X-41866Y198291D01*
X-41135Y197730D01*
X-40284Y197378D01*
X-39370Y197257D01*
X-38456Y197378D01*
X-37605Y197730D01*
X-36874Y198291D01*
X-36313Y199022D01*
X-35960Y199874D01*
X-35840Y200787D01*
X-35960Y201701D01*
X-36313Y202553D01*
X-36874Y203284D01*
X-37605Y203845D01*
X-38456Y204197D01*
X-39370Y204318D01*
D02*
G37*
G36*
X66929Y176759D02*
X66015Y176638D01*
X65164Y176286D01*
X64433Y175725D01*
X63872Y174994D01*
X63519Y174142D01*
X63399Y173228D01*
X63519Y172315D01*
X63872Y171463D01*
X64433Y170732D01*
X65164Y170171D01*
X66015Y169818D01*
X66929Y169698D01*
X67843Y169818D01*
X68694Y170171D01*
X69425Y170732D01*
X69986Y171463D01*
X70339Y172315D01*
X70459Y173228D01*
X70339Y174142D01*
X69986Y174994D01*
X69425Y175725D01*
X68694Y176286D01*
X67843Y176638D01*
X66929Y176759D01*
D02*
G37*
G36*
X108268Y143343D02*
X106832Y143154D01*
X105494Y142599D01*
X104345Y141718D01*
X103463Y140569D01*
X102909Y139231D01*
X102720Y137795D01*
X102909Y136360D01*
X103463Y135022D01*
X104345Y133873D01*
X105494Y132991D01*
X106832Y132437D01*
X108268Y132248D01*
X109704Y132437D01*
X111041Y132991D01*
X112190Y133873D01*
X113072Y135022D01*
X113626Y136360D01*
X113815Y137795D01*
X113626Y139231D01*
X113072Y140569D01*
X112190Y141718D01*
X111041Y142599D01*
X109704Y143154D01*
X108268Y143343D01*
D02*
G37*
G36*
X-108268D02*
X-109704Y143154D01*
X-111041Y142599D01*
X-112190Y141718D01*
X-113072Y140569D01*
X-113626Y139231D01*
X-113815Y137795D01*
X-113626Y136360D01*
X-113072Y135022D01*
X-112190Y133873D01*
X-111041Y132991D01*
X-109704Y132437D01*
X-108268Y132248D01*
X-106832Y132437D01*
X-105494Y132991D01*
X-104345Y133873D01*
X-103463Y135022D01*
X-102909Y136360D01*
X-102720Y137795D01*
X-102909Y139231D01*
X-103463Y140569D01*
X-104345Y141718D01*
X-105494Y142599D01*
X-106832Y143154D01*
X-108268Y143343D01*
D02*
G37*
G36*
X-66929Y109829D02*
X-67843Y109709D01*
X-68694Y109356D01*
X-69425Y108795D01*
X-69986Y108064D01*
X-70339Y107213D01*
X-70459Y106299D01*
X-70339Y105385D01*
X-69986Y104534D01*
X-69425Y103803D01*
X-68694Y103242D01*
X-67843Y102889D01*
X-66929Y102769D01*
X-66015Y102889D01*
X-65164Y103242D01*
X-64433Y103803D01*
X-63872Y104534D01*
X-63519Y105385D01*
X-63399Y106299D01*
X-63519Y107213D01*
X-63872Y108064D01*
X-64433Y108795D01*
X-65164Y109356D01*
X-66015Y109709D01*
X-66929Y109829D01*
D02*
G37*
G36*
X39370Y76365D02*
X38456Y76245D01*
X37605Y75892D01*
X36874Y75331D01*
X36313Y74600D01*
X35960Y73748D01*
X35840Y72835D01*
X35960Y71921D01*
X36313Y71070D01*
X36874Y70338D01*
X37605Y69777D01*
X38456Y69425D01*
X39370Y69304D01*
X40284Y69425D01*
X41135Y69777D01*
X41866Y70338D01*
X42427Y71070D01*
X42780Y71921D01*
X42900Y72835D01*
X42780Y73748D01*
X42427Y74600D01*
X41866Y75331D01*
X41135Y75892D01*
X40284Y76245D01*
X39370Y76365D01*
D02*
G37*
G36*
X-13619Y54203D02*
X-15981D01*
X-16732Y54104D01*
X-17034Y53979D01*
X-19566D01*
X-19868Y54104D01*
X-20619Y54203D01*
X-22981D01*
X-23732Y54104D01*
X-23989Y53997D01*
X-24017Y54001D01*
X-24130Y53996D01*
X-24354Y53966D01*
X-24575Y53917D01*
X-24575Y53917D01*
X-24791Y53850D01*
X-24896Y53808D01*
X-24896Y53808D01*
X-25061Y53600D01*
X-25163Y53420D01*
X-25163Y53420D01*
X-25170Y53406D01*
X-25322Y53139D01*
X-25430Y52836D01*
X-25495Y52751D01*
X-25785Y52051D01*
X-25884Y51300D01*
X-25785Y50549D01*
X-25590Y50079D01*
Y48521D01*
X-25785Y48051D01*
X-25884Y47300D01*
X-25785Y46549D01*
X-25590Y46079D01*
Y44521D01*
X-25785Y44051D01*
X-25884Y43300D01*
X-25785Y42549D01*
X-25590Y42079D01*
Y41756D01*
X-25590Y41754D01*
X-25591Y41747D01*
X-25591Y41741D01*
X-25591Y41735D01*
X-25591Y41732D01*
X-25591Y41623D01*
X-25555Y41408D01*
X-25486Y41201D01*
X-25486Y41201D01*
X-25384Y41008D01*
X-25319Y40921D01*
X-25318Y40921D01*
X-23641Y40471D01*
X-20257Y39686D01*
X-16847Y39018D01*
X-13417Y38469D01*
X-11693Y38254D01*
X-11693D01*
X-11418Y38529D01*
X-11208Y38842D01*
X-11064Y39191D01*
X-10991Y39561D01*
X-10991Y39749D01*
X-10990Y39749D01*
Y42125D01*
X-10815Y42549D01*
X-10716Y43300D01*
X-10815Y44051D01*
X-10990Y44475D01*
Y46125D01*
X-10815Y46549D01*
X-10716Y47300D01*
X-10815Y48051D01*
X-10990Y48475D01*
X-10990Y50125D01*
X-10815Y50549D01*
X-10716Y51300D01*
X-10815Y52051D01*
X-10990Y52475D01*
Y52872D01*
X-10990Y52896D01*
X-11000Y52944D01*
X-11019Y52990D01*
X-11046Y53030D01*
X-11063Y53048D01*
X-11063Y53048D01*
X-11063Y53167D01*
X-11087Y53405D01*
X-11135Y53640D01*
X-11206Y53869D01*
X-11253Y53979D01*
X-11253Y53979D01*
X-12566D01*
X-12868Y54104D01*
X-13619Y54203D01*
D02*
G37*
G36*
X23881D02*
X21519D01*
X20768Y54104D01*
X20067Y53814D01*
X20052Y53802D01*
X18448D01*
X18432Y53814D01*
X17732Y54104D01*
X16981Y54203D01*
X14619D01*
X13868Y54104D01*
X13168Y53814D01*
X13152Y53802D01*
X12233D01*
X12165Y53662D01*
X12061Y53368D01*
X11991Y53064D01*
X11957Y52754D01*
X11957Y52598D01*
Y52394D01*
X11815Y52051D01*
X11716Y51300D01*
X11815Y50549D01*
X11957Y50206D01*
Y48394D01*
X11815Y48051D01*
X11716Y47300D01*
X11815Y46549D01*
X11957Y46206D01*
Y44394D01*
X11815Y44051D01*
X11716Y43300D01*
X11815Y42549D01*
X11957Y42206D01*
Y39326D01*
X11957Y39197D01*
X12007Y38944D01*
X12106Y38706D01*
X12250Y38491D01*
X12341Y38400D01*
X12341D01*
X12667Y38074D01*
X14301Y38277D01*
X17553Y38791D01*
X20786Y39410D01*
X23998Y40136D01*
X25113Y40427D01*
X25131Y40431D01*
X25591Y40551D01*
X25591Y40551D01*
X25719Y40657D01*
X25924Y40919D01*
X26067Y41220D01*
X26131Y41504D01*
X26395Y41849D01*
X26685Y42549D01*
X26784Y43300D01*
X26685Y44051D01*
X26395Y44751D01*
X26140Y45084D01*
Y45516D01*
X26395Y45849D01*
X26685Y46549D01*
X26784Y47300D01*
X26685Y48051D01*
X26395Y48751D01*
X26140Y49084D01*
Y49516D01*
X26395Y49849D01*
X26685Y50549D01*
X26784Y51300D01*
X26685Y52051D01*
X26395Y52751D01*
X25951Y53331D01*
X25934Y53353D01*
X25889Y53405D01*
X25635Y53705D01*
X25635Y53705D01*
X25633Y53705D01*
X25196Y53870D01*
X24632Y54104D01*
X23881Y54203D01*
D02*
G37*
G36*
X78740Y64603D02*
X77304Y64413D01*
X75966Y63859D01*
X74818Y62978D01*
X73936Y61829D01*
X73382Y60491D01*
X73193Y59055D01*
X73382Y57619D01*
X73936Y56281D01*
X74818Y55133D01*
X75966Y54251D01*
X77304Y53697D01*
X78740Y53508D01*
X80176Y53697D01*
X81514Y54251D01*
X82663Y55133D01*
X83544Y56281D01*
X84099Y57619D01*
X84288Y59055D01*
X84099Y60491D01*
X83544Y61829D01*
X82663Y62978D01*
X81514Y63859D01*
X80176Y64413D01*
X78740Y64603D01*
D02*
G37*
G36*
X-78740D02*
X-80176Y64413D01*
X-81514Y63859D01*
X-82663Y62978D01*
X-83544Y61829D01*
X-84099Y60491D01*
X-84288Y59055D01*
X-84099Y57619D01*
X-83544Y56281D01*
X-82663Y55133D01*
X-81514Y54251D01*
X-80176Y53697D01*
X-78740Y53508D01*
X-77304Y53697D01*
X-75966Y54251D01*
X-74818Y55133D01*
X-73936Y56281D01*
X-73382Y57619D01*
X-73193Y59055D01*
X-73382Y60491D01*
X-73936Y61829D01*
X-74818Y62978D01*
X-75966Y63859D01*
X-77304Y64413D01*
X-78740Y64603D01*
D02*
G37*
G36*
X7874Y53395D02*
X-7874D01*
X-8264Y53317D01*
X-8595Y53096D01*
X-8816Y52765D01*
X-8894Y52375D01*
Y42000D01*
X-8816Y41610D01*
X-8595Y41279D01*
X-8264Y41058D01*
X-7874Y40980D01*
X7874D01*
X8264Y41058D01*
X8595Y41279D01*
X8816Y41610D01*
X8894Y42000D01*
Y52375D01*
X8816Y52765D01*
X8595Y53096D01*
X8264Y53317D01*
X7874Y53395D01*
D02*
G37*
G36*
X-21654Y31089D02*
X-22567Y30969D01*
X-23419Y30616D01*
X-24150Y30055D01*
X-24711Y29324D01*
X-25063Y28473D01*
X-25184Y27559D01*
X-25063Y26645D01*
X-24711Y25794D01*
X-24150Y25063D01*
X-23419Y24502D01*
X-22567Y24149D01*
X-21654Y24029D01*
X-20740Y24149D01*
X-19888Y24502D01*
X-19157Y25063D01*
X-18596Y25794D01*
X-18244Y26645D01*
X-18123Y27559D01*
X-18244Y28473D01*
X-18596Y29324D01*
X-19157Y30055D01*
X-19888Y30616D01*
X-20740Y30969D01*
X-21654Y31089D01*
D02*
G37*
G36*
X7874Y11861D02*
X6842Y11725D01*
X5881Y11327D01*
X5055Y10693D01*
X4421Y9867D01*
X4023Y8906D01*
X3887Y7874D01*
X4023Y6842D01*
X4421Y5881D01*
X5055Y5055D01*
X5881Y4421D01*
X6842Y4023D01*
X7874Y3887D01*
X8906Y4023D01*
X9867Y4421D01*
X10693Y5055D01*
X11327Y5881D01*
X11725Y6842D01*
X11861Y7874D01*
X11725Y8906D01*
X11327Y9867D01*
X10693Y10693D01*
X9867Y11327D01*
X8906Y11725D01*
X7874Y11861D01*
D02*
G37*
G36*
X31496Y13421D02*
X30060Y13232D01*
X28722Y12678D01*
X27573Y11797D01*
X26692Y10648D01*
X26138Y9310D01*
X25949Y7874D01*
X26138Y6438D01*
X26692Y5100D01*
X27573Y3951D01*
X28722Y3070D01*
X30060Y2516D01*
X31496Y2327D01*
X32932Y2516D01*
X34270Y3070D01*
X35419Y3951D01*
X36300Y5100D01*
X36854Y6438D01*
X37043Y7874D01*
X36854Y9310D01*
X36300Y10648D01*
X35419Y11797D01*
X34270Y12678D01*
X32932Y13232D01*
X31496Y13421D01*
D02*
G37*
G36*
X-31496D02*
X-32932Y13232D01*
X-34270Y12678D01*
X-35419Y11797D01*
X-36300Y10648D01*
X-36854Y9310D01*
X-37043Y7874D01*
X-36854Y6438D01*
X-36300Y5100D01*
X-35419Y3951D01*
X-34270Y3070D01*
X-32932Y2516D01*
X-31496Y2327D01*
X-30060Y2516D01*
X-28722Y3070D01*
X-27573Y3951D01*
X-26692Y5100D01*
X-26138Y6438D01*
X-25949Y7874D01*
X-26138Y9310D01*
X-26692Y10648D01*
X-27573Y11797D01*
X-28722Y12678D01*
X-30060Y13232D01*
X-31496Y13421D01*
D02*
G37*
%LPD*%
D19*
X-39370Y72835D02*
D03*
X21654Y27559D02*
D03*
X66929Y106299D02*
D03*
X39370Y200787D02*
D03*
X-66929Y173228D02*
D03*
D20*
X-7874Y7874D02*
D03*
M02*
