G04*
G04 #@! TF.GenerationSoftware,Altium Limited,Altium Designer,22.10.1 (41)*
G04*
G04 Layer_Color=65535*
%FSLAX25Y25*%
%MOIN*%
G70*
G04*
G04 #@! TF.SameCoordinates,FB2E412C-4C94-422A-880B-86203416BC3E*
G04*
G04*
G04 #@! TF.FilePolarity,Positive*
G04*
G01*
G75*
%ADD10C,0.00591*%
%ADD11C,0.00787*%
D10*
X10263Y13930D02*
X8688Y13937D01*
X10270Y15504D01*
X10272Y15898D01*
X9880Y16293D01*
X9093Y16297D01*
X8698Y15905D01*
X11055Y15107D02*
X12630Y15100D01*
X14986Y13908D02*
X13411Y13915D01*
X14993Y15482D01*
X14995Y15876D01*
X14603Y16271D01*
X13816Y16275D01*
X13420Y15883D01*
X-7307Y14288D02*
X-6520Y14284D01*
X-6913Y14286D01*
X-6902Y16647D01*
X-7298Y16256D01*
X-5333Y15459D02*
X-3759Y15452D01*
X-1403Y14260D02*
X-2977Y14268D01*
X-1396Y15835D01*
X-1394Y16228D01*
X-1786Y16623D01*
X-2573Y16627D01*
X-2968Y16236D01*
X-711Y57474D02*
X76Y57471D01*
X-317Y57473D01*
X-307Y59834D01*
X-702Y59442D01*
X1262Y58646D02*
X2836Y58639D01*
X5192Y57447D02*
X3618Y57454D01*
X5200Y59021D01*
X5202Y59415D01*
X4810Y59810D01*
X4023Y59814D01*
X3627Y59422D01*
D11*
X-9042Y18484D02*
X-9826Y19275D01*
X-11400Y19282D01*
X-12191Y18499D01*
X-12205Y15350D01*
X-11422Y14560D01*
X-9848Y14552D01*
X-9057Y15336D01*
X6953Y18134D02*
X6170Y18925D01*
X4595Y18932D01*
X3805Y18148D01*
X3790Y15000D01*
X4573Y14209D01*
X6148Y14202D01*
X6938Y14985D01*
X-2446Y61591D02*
X-3230Y62382D01*
X-4804Y62389D01*
X-5595Y61606D01*
X-5610Y58457D01*
X-4826Y57667D01*
X-3252Y57659D01*
X-2461Y58443D01*
M02*
