%FSTAX23Y23*%
%MOIN*%
%SFA1B1*%

%IPPOS*%
%ADD9502C,0.019680*%
%LNtransdutir_alinhado-slotholes-1*%
%LPD*%
G54D9502*
X-00227Y00433D02*
X-00208D01*
X-00227D02*
X-00208D01*
X-00227D02*
X-00208D01*
X-00227D02*
X-00208D01*
X-00227Y00473D02*
X-00208D01*
X-00227D02*
X-00208D01*
X-00227D02*
X-00208D01*
X-00227D02*
X-00208D01*
X-00227Y00513D02*
X-00208D01*
X-00227D02*
X-00208D01*
X-00227D02*
X-00208D01*
X-00227D02*
X-00208D01*
X-00157D02*
X-00138D01*
X-00157D02*
X-00138D01*
X-00157D02*
X-00138D01*
X-00157D02*
X-00138D01*
X-00157Y00473D02*
X-00138D01*
X-00157D02*
X-00138D01*
X-00157D02*
X-00138D01*
X-00157D02*
X-00138D01*
X-00157Y00433D02*
X-00138D01*
X-00157D02*
X-00138D01*
X-00157D02*
X-00138D01*
X-00157D02*
X-00138D01*
X00148D02*
X00167D01*
X00148D02*
X00167D01*
X00148D02*
X00167D01*
X00148D02*
X00167D01*
X00148Y00473D02*
X00167D01*
X00148D02*
X00167D01*
X00148D02*
X00167D01*
X00148D02*
X00167D01*
X00148Y00513D02*
X00167D01*
X00148D02*
X00167D01*
X00148D02*
X00167D01*
X00148D02*
X00167D01*
X00217D02*
X00236D01*
X00217D02*
X00236D01*
X00217D02*
X00236D01*
X00217D02*
X00236D01*
X00217Y00473D02*
X00236D01*
X00217D02*
X00236D01*
X00217D02*
X00236D01*
X00217D02*
X00236D01*
X00217Y00433D02*
X00236D01*
X00217D02*
X00236D01*
X00217D02*
X00236D01*
X00217D02*
X00236D01*
M02*