G04*
G04 #@! TF.GenerationSoftware,Altium Limited,Altium Designer,22.10.1 (41)*
G04*
G04 Layer_Color=16711935*
%FSLAX25Y25*%
%MOIN*%
G70*
G04*
G04 #@! TF.SameCoordinates,FB2E412C-4C94-422A-880B-86203416BC3E*
G04*
G04*
G04 #@! TF.FilePolarity,Positive*
G04*
G01*
G75*
%ADD21C,0.00039*%
D21*
X29528Y54279D02*
X30470Y54618D01*
X31408Y54968D01*
X32343Y55328D01*
X33273Y55699D01*
X34199Y56081D01*
X35121Y56472D01*
X36038Y56875D01*
X36951Y57287D01*
X37858Y57710D01*
X38761Y58143D01*
X39660Y58587D01*
X40552Y59040D01*
X41440Y59504D01*
X42323Y59977D01*
X43200Y60461D01*
X44071Y60954D01*
X44938Y61457D01*
X45798Y61970D01*
X46652Y62493D01*
X47500Y63025D01*
X48343Y63567D01*
X49179Y64118D01*
X50009Y64679D01*
X50832Y65249D01*
X51649Y65828D01*
X52460Y66417D01*
X53263Y67014D01*
X54060Y67621D01*
X54850Y68237D01*
X55633Y68861D01*
X56409Y69495D01*
X57177Y70137D01*
X57938Y70788D01*
X58692Y71447D01*
X59439Y72115D01*
X60177Y72791D01*
X60909Y73475D01*
X61632Y74168D01*
X62347Y74869D01*
X63055Y75578D01*
X63754Y76295D01*
X64446Y77020D01*
X65128Y77752D01*
X65803Y78492D01*
X66469Y79240D01*
X67127Y79995D01*
X67776Y80758D01*
X68417Y81528D01*
X69049Y82305D01*
X69672Y83089D01*
X70286Y83880D01*
X70891Y84679D01*
X71487Y85483D01*
X72074Y86295D01*
X72651Y87113D01*
X73220Y87938D01*
X73779Y88769D01*
X74328Y89606D01*
X74868Y90450D01*
X75399Y91299D01*
X75920Y92154D01*
X76431Y93016D01*
X76932Y93883D01*
X77424Y94755D01*
X77905Y95633D01*
X78377Y96517D01*
X78839Y97406D01*
X79290Y98299D01*
X79732Y99199D01*
X80163Y100102D01*
X80584Y101011D01*
X80995Y101925D01*
X81395Y102843D01*
X81785Y103765D01*
X82165Y104692D01*
X82534Y105623D01*
X82892Y106558D01*
X83240Y107497D01*
X83577Y108440D01*
X83904Y109387D01*
X84220Y110338D01*
X84525Y111292D01*
X84819Y112249D01*
X85102Y113209D01*
X85375Y114173D01*
X85637Y115140D01*
X85887Y116110D01*
X86127Y117082D01*
X86356Y118057D01*
X86573Y119035D01*
X86780Y120015D01*
X86975Y120997D01*
X87160Y121981D01*
X87333Y122968D01*
X87495Y123956D01*
X87646Y124946D01*
X87786Y125938D01*
X87914Y126931D01*
X88031Y127926D01*
X88137Y128922D01*
X88232Y129919D01*
X88315Y130917D01*
X88387Y131916D01*
X88448Y132915D01*
X88498Y133916D01*
X88536Y134916D01*
X88563Y135918D01*
X88578Y136919D01*
X88583Y137921D01*
X88576Y138922D01*
X88557Y139924D01*
X88527Y140925D01*
X88486Y141925D01*
X88434Y142925D01*
X88370Y143925D01*
X88295Y144924D01*
X88209Y145921D01*
X88112Y146918D01*
X88003Y147914D01*
X87883Y148908D01*
X87752Y149901D01*
X87609Y150892D01*
X87455Y151882D01*
X87291Y152870D01*
X87115Y153856D01*
X86927Y154840D01*
X86729Y155821D01*
X86520Y156801D01*
X86299Y157778D01*
X86068Y158752D01*
X85826Y159724D01*
X85572Y160693D01*
X85308Y161659D01*
X85032Y162622D01*
X84746Y163582D01*
X84449Y164538D01*
X84142Y165491D01*
X83823Y166441D01*
X83494Y167387D01*
X83154Y168329D01*
X82804Y169267D01*
X82442Y170201D01*
X82071Y171131D01*
X81689Y172057D01*
X81296Y172978D01*
X80893Y173895D01*
X80480Y174807D01*
X80056Y175715D01*
X79622Y176618D01*
X79178Y177515D01*
X78724Y178408D01*
X78260Y179295D01*
X77786Y180177D01*
X77302Y181054D01*
X76808Y181925D01*
X76304Y182791D01*
X75790Y183651D01*
X75267Y184505D01*
X74734Y185353D01*
X74192Y186195D01*
X73640Y187030D01*
X73078Y187860D01*
X72508Y188683D01*
X71928Y189499D01*
X71338Y190309D01*
X70740Y191112D01*
X70133Y191909D01*
X69517Y192698D01*
X68891Y193481D01*
X68257Y194256D01*
X67615Y195024D01*
X66963Y195785D01*
X66303Y196538D01*
X65635Y197284D01*
X64958Y198022D01*
X64273Y198753D01*
X63580Y199476D01*
X62879Y200191D01*
X62169Y200898D01*
X61452Y201596D01*
X60726Y202287D01*
X59993Y202970D01*
X59253Y203644D01*
X58504Y204309D01*
X57749Y204967D01*
X56986Y205615D01*
X56215Y206255D01*
X55437Y206886D01*
X54653Y207509D01*
X53861Y208122D01*
X53063Y208727D01*
X52257Y209322D01*
X51445Y209908D01*
X50627Y210485D01*
X49802Y211053D01*
X48970Y211611D01*
X48133Y212160D01*
X47289Y212700D01*
X46439Y213230D01*
X45583Y213750D01*
X44721Y214260D01*
X43854Y214761D01*
X42981Y215252D01*
X42103Y215733D01*
X41219Y216204D01*
X40330Y216665D01*
X39435Y217116D01*
X38536Y217557D01*
X37632Y217987D01*
X36723Y218408D01*
X35809Y218818D01*
X34891Y219217D01*
X33968Y219606D01*
X33041Y219985D01*
X32109Y220354D01*
X31174Y220711D01*
X30234Y221059D01*
X29291Y221395D01*
X28344Y221721D01*
X27393Y222036D01*
X26439Y222340D01*
X25482Y222634D01*
X24521Y222917D01*
X23557Y223188D01*
X22590Y223449D01*
X21620Y223699D01*
X20648Y223938D01*
X19672Y224166D01*
X18695Y224383D01*
X17714Y224589D01*
X16732Y224783D01*
X15748Y224967D01*
X29528Y43904D02*
X30481Y44209D01*
X31432Y44524D01*
X32380Y44849D01*
X33324Y45183D01*
X34264Y45527D01*
X35202Y45880D01*
X36135Y46243D01*
X37065Y46616D01*
X37991Y46998D01*
X38913Y47389D01*
X39831Y47789D01*
X40745Y48199D01*
X41654Y48619D01*
X42559Y49047D01*
X43460Y49485D01*
X44357Y49932D01*
X45248Y50388D01*
X46136Y50853D01*
X47018Y51327D01*
X47895Y51809D01*
X48768Y52301D01*
X49635Y52802D01*
X50498Y53311D01*
X51354Y53830D01*
X52206Y54357D01*
X53053Y54892D01*
X53894Y55436D01*
X54729Y55989D01*
X55558Y56550D01*
X56382Y57120D01*
X57200Y57697D01*
X58012Y58284D01*
X58818Y58878D01*
X59618Y59481D01*
X60412Y60092D01*
X61200Y60710D01*
X61981Y61337D01*
X62756Y61972D01*
X63524Y62614D01*
X64286Y63265D01*
X65041Y63923D01*
X65789Y64588D01*
X66531Y65261D01*
X67265Y65942D01*
X67993Y66630D01*
X68714Y67326D01*
X69427Y68029D01*
X70134Y68739D01*
X70833Y69456D01*
X71525Y70180D01*
X72209Y70912D01*
X72886Y71650D01*
X73555Y72395D01*
X74217Y73147D01*
X74871Y73905D01*
X75517Y74671D01*
X76155Y75442D01*
X76786Y76221D01*
X77408Y77005D01*
X78023Y77796D01*
X78630Y78593D01*
X79228Y79396D01*
X79818Y80205D01*
X80400Y81021D01*
X80974Y81842D01*
X81539Y82669D01*
X82095Y83501D01*
X82644Y84339D01*
X83183Y85183D01*
X83714Y86032D01*
X84237Y86887D01*
X84750Y87747D01*
X85255Y88612D01*
X85751Y89482D01*
X86239Y90357D01*
X86717Y91237D01*
X87186Y92122D01*
X87646Y93011D01*
X88098Y93905D01*
X88540Y94804D01*
X88973Y95707D01*
X89396Y96615D01*
X89811Y97527D01*
X90216Y98443D01*
X90611Y99363D01*
X90998Y100287D01*
X91375Y101215D01*
X91742Y102146D01*
X92100Y103082D01*
X92449Y104021D01*
X92788Y104963D01*
X93117Y105909D01*
X93437Y106858D01*
X93747Y107811D01*
X94047Y108766D01*
X94337Y109725D01*
X94618Y110686D01*
X94889Y111650D01*
X95150Y112617D01*
X95402Y113587D01*
X95643Y114559D01*
X95875Y115533D01*
X96096Y116510D01*
X96308Y117489D01*
X96509Y118470D01*
X96701Y119453D01*
X96883Y120438D01*
X97054Y121425D01*
X97216Y122413D01*
X97367Y123403D01*
X97509Y124395D01*
X97640Y125388D01*
X97761Y126382D01*
X97872Y127377D01*
X97973Y128374D01*
X98064Y129371D01*
X98145Y130369D01*
X98215Y131369D01*
X98276Y132368D01*
X98326Y133369D01*
X98366Y134369D01*
X98395Y135370D01*
X98415Y136372D01*
X98424Y137373D01*
X98423Y138375D01*
X98413Y139376D01*
X98391Y140378D01*
X98360Y141379D01*
X98318Y142379D01*
X98267Y143380D01*
X98205Y144379D01*
X98133Y145378D01*
X98050Y146377D01*
X97958Y147374D01*
X97856Y148370D01*
X97743Y149365D01*
X97620Y150359D01*
X97487Y151352D01*
X97344Y152343D01*
X97191Y153333D01*
X97028Y154321D01*
X96855Y155308D01*
X96671Y156292D01*
X96478Y157275D01*
X96275Y158256D01*
X96062Y159235D01*
X95839Y160211D01*
X95606Y161185D01*
X95363Y162157D01*
X95110Y163126D01*
X94847Y164092D01*
X94575Y165056D01*
X94292Y166017D01*
X94000Y166975D01*
X93699Y167930D01*
X93387Y168882D01*
X93066Y169831D01*
X92735Y170776D01*
X92395Y171718D01*
X92045Y172656D01*
X91685Y173591D01*
X91316Y174522D01*
X90938Y175450D01*
X90550Y176373D01*
X90153Y177293D01*
X89746Y178208D01*
X89330Y179119D01*
X88905Y180026D01*
X88471Y180928D01*
X88027Y181826D01*
X87575Y182720D01*
X87113Y183609D01*
X86642Y184493D01*
X86163Y185372D01*
X85674Y186246D01*
X85176Y187116D01*
X84670Y187980D01*
X84155Y188839D01*
X83631Y189692D01*
X83099Y190541D01*
X82558Y191384D01*
X82008Y192221D01*
X81450Y193052D01*
X80884Y193878D01*
X80309Y194699D01*
X79726Y195513D01*
X79134Y196321D01*
X78535Y197123D01*
X77927Y197919D01*
X77311Y198709D01*
X76687Y199493D01*
X76055Y200270D01*
X75416Y201041D01*
X74768Y201805D01*
X74113Y202562D01*
X73450Y203313D01*
X72780Y204057D01*
X72102Y204794D01*
X71416Y205525D01*
X70723Y206248D01*
X70023Y206964D01*
X69315Y207673D01*
X68601Y208375D01*
X67879Y209069D01*
X67150Y209756D01*
X66415Y210436D01*
X65672Y211108D01*
X64923Y211772D01*
X64166Y212429D01*
X63404Y213078D01*
X62634Y213719D01*
X61858Y214353D01*
X61076Y214978D01*
X60288Y215596D01*
X59493Y216205D01*
X58692Y216807D01*
X57885Y217400D01*
X57072Y217985D01*
X56253Y218561D01*
X55428Y219129D01*
X54598Y219689D01*
X53762Y220240D01*
X52920Y220783D01*
X52073Y221318D01*
X51220Y221843D01*
X50362Y222360D01*
X49499Y222868D01*
X48631Y223367D01*
X47758Y223858D01*
X46879Y224339D01*
X45996Y224812D01*
X45108Y225275D01*
X44216Y225730D01*
X43319Y226175D01*
X42417Y226611D01*
X41511Y227039D01*
X40601Y227456D01*
X39686Y227865D01*
X38768Y228264D01*
X37845Y228654D01*
X36919Y229034D01*
X35988Y229405D01*
X35054Y229767D01*
X34117Y230118D01*
X33175Y230461D01*
X32231Y230794D01*
X31283Y231117D01*
X30332Y231430D01*
X29377Y231734D01*
X28420Y232028D01*
X27459Y232312D01*
X26496Y232587D01*
X25530Y232852D01*
X24562Y233107D01*
X23591Y233352D01*
X22617Y233587D01*
X21641Y233812D01*
X20663Y234027D01*
X19685Y234232D01*
X103515Y80922D02*
X103993Y81800D01*
X104464Y82683D01*
X104927Y83570D01*
X105382Y84461D01*
X105830Y85355D01*
X106271Y86253D01*
X106703Y87155D01*
X107129Y88061D01*
X107546Y88970D01*
X107956Y89883D01*
X108358Y90799D01*
X108752Y91718D01*
X109138Y92641D01*
X109517Y93567D01*
X109887Y94496D01*
X110250Y95428D01*
X110605Y96364D01*
X110952Y97302D01*
X111291Y98243D01*
X111622Y99187D01*
X111945Y100134D01*
X112260Y101084D01*
X112567Y102036D01*
X112866Y102990D01*
X113156Y103948D01*
X113439Y104907D01*
X113714Y105869D01*
X113980Y106834D01*
X114238Y107800D01*
X114488Y108769D01*
X114730Y109739D01*
X114963Y110712D01*
X115188Y111687D01*
X115405Y112663D01*
X115614Y113642D01*
X115815Y114622D01*
X116007Y115604D01*
X116191Y116587D01*
X116366Y117572D01*
X116533Y118558D01*
X116692Y119546D01*
X116842Y120535D01*
X116984Y121525D01*
X117118Y122517D01*
X117243Y123509D01*
X117360Y124503D01*
X117468Y125497D01*
X117568Y126493D01*
X117660Y127489D01*
X117743Y128486D01*
X117817Y129483D01*
X117884Y130481D01*
X117941Y131480D01*
X117991Y132479D01*
X118031Y133479D01*
X118064Y134479D01*
X118087Y135479D01*
X118103Y136479D01*
X118110Y137479D01*
X118108Y138480D01*
X118098Y139480D01*
X118080Y140480D01*
X118053Y141480D01*
X118017Y142480D01*
X117973Y143480D01*
X117921Y144478D01*
X117860Y145477D01*
X117791Y146475D01*
X117713Y147472D01*
X117627Y148469D01*
X117532Y149465D01*
X117429Y150460D01*
X117318Y151454D01*
X117198Y152447D01*
X117070Y153439D01*
X116933Y154430D01*
X116788Y155420D01*
X116634Y156409D01*
X116472Y157396D01*
X116302Y158382D01*
X116124Y159366D01*
X115937Y160349D01*
X115742Y161330D01*
X115538Y162309D01*
X115326Y163287D01*
X115106Y164263D01*
X114878Y165237D01*
X114642Y166209D01*
X114397Y167179D01*
X114144Y168147D01*
X113883Y169113D01*
X113613Y170076D01*
X113336Y171037D01*
X113050Y171996D01*
X112757Y172952D01*
X112455Y173906D01*
X112145Y174857D01*
X111827Y175806D01*
X111501Y176751D01*
X111167Y177694D01*
X110825Y178635D01*
X110475Y179572D01*
X110117Y180506D01*
X109752Y181437D01*
X109378Y182365D01*
X108997Y183290D01*
X108607Y184211D01*
X108210Y185130D01*
X107806Y186045D01*
X107393Y186956D01*
X106973Y187864D01*
X106545Y188768D01*
X106109Y189669D01*
X105666Y190565D01*
X105216Y191458D01*
X104757Y192348D01*
X104291Y193233D01*
X103818Y194114D01*
X103337Y194992D01*
X102849Y195865D01*
X102354Y196734D01*
X101851Y197599D01*
X101341Y198459D01*
X100823Y199315D01*
X100299Y200167D01*
X99767Y201014D01*
X99228Y201857D01*
X98681Y202695D01*
X98128Y203529D01*
X97568Y204358D01*
X97001Y205182D01*
X96426Y206001D01*
X95845Y206815D01*
X95257Y207624D01*
X94662Y208429D01*
X94061Y209228D01*
X93452Y210022D01*
X92837Y210811D01*
X92216Y211595D01*
X91587Y212373D01*
X90952Y213146D01*
X90311Y213914D01*
X89663Y214676D01*
X89008Y215433D01*
X88348Y216184D01*
X87681Y216929D01*
X87007Y217669D01*
X86327Y218403D01*
X85642Y219131D01*
X84950Y219854D01*
X84252Y220570D01*
X83548Y221281D01*
X82837Y221986D01*
X82121Y222684D01*
X81399Y223377D01*
X80672Y224063D01*
X79938Y224743D01*
X79199Y225417D01*
X78454Y226085D01*
X77703Y226746D01*
X76947Y227401D01*
X76185Y228049D01*
X75418Y228692D01*
X74646Y229327D01*
X73868Y229956D01*
X73084Y230578D01*
X72296Y231194D01*
X71502Y231803D01*
X70703Y232405D01*
X69900Y233001D01*
X69091Y233589D01*
X68277Y234171D01*
X67458Y234746D01*
X66635Y235314D01*
X65806Y235875D01*
X64973Y236428D01*
X64135Y236975D01*
X63293Y237515D01*
X62446Y238048D01*
X61595Y238573D01*
X60739Y239091D01*
X59879Y239602D01*
X59014Y240105D01*
X58146Y240601D01*
X57273Y241090D01*
X56396Y241572D01*
X55515Y242045D01*
X54630Y242512D01*
X53741Y242971D01*
X52848Y243422D01*
X51952Y243866D01*
X51052Y244302D01*
X50148Y244731D01*
X49240Y245152D01*
X48329Y245565D01*
X47415Y245971D01*
X46497Y246368D01*
X45575Y246758D01*
X44651Y247140D01*
X43723Y247515D01*
X42792Y247881D01*
X41858Y248239D01*
X40921Y248590D01*
X39981Y248933D01*
X39039Y249267D01*
X38093Y249594D01*
X37145Y249913D01*
X36194Y250223D01*
X35241Y250526D01*
X34284Y250820D01*
X33326Y251106D01*
X32365Y251385D01*
X31402Y251655D01*
X30436Y251917D01*
X29469Y252170D01*
X28499Y252416D01*
X27527Y252653D01*
X26553Y252882D01*
X25577Y253103D01*
X24600Y253315D01*
X23620Y253520D01*
X22639Y253715D01*
X21657Y253903D01*
X20673Y254082D01*
X19687Y254253D01*
X-19685Y254254D02*
X-20671Y254083D01*
X-21655Y253903D01*
X-22638Y253716D01*
X-23619Y253520D01*
X-24598Y253316D01*
X-25576Y253103D01*
X-26551Y252883D01*
X-27525Y252654D01*
X-28497Y252416D01*
X-29467Y252171D01*
X-30435Y251917D01*
X-31400Y251655D01*
X-32363Y251385D01*
X-33324Y251107D01*
X-34283Y250821D01*
X-35239Y250526D01*
X-36192Y250224D01*
X-37143Y249913D01*
X-38092Y249594D01*
X-39037Y249268D01*
X-39980Y248933D01*
X-40920Y248591D01*
X-41857Y248240D01*
X-42791Y247882D01*
X-43722Y247515D01*
X-44649Y247141D01*
X-45574Y246759D01*
X-46495Y246369D01*
X-47413Y245971D01*
X-48328Y245566D01*
X-49239Y245152D01*
X-50146Y244732D01*
X-51050Y244303D01*
X-51951Y243867D01*
X-52847Y243423D01*
X-53740Y242972D01*
X-54629Y242513D01*
X-55514Y242046D01*
X-56395Y241572D01*
X-57272Y241091D01*
X-58145Y240602D01*
X-59013Y240106D01*
X-59878Y239602D01*
X-60738Y239091D01*
X-61594Y238574D01*
X-62445Y238048D01*
X-63292Y237516D01*
X-64134Y236976D01*
X-64972Y236429D01*
X-65805Y235875D01*
X-66634Y235314D01*
X-67457Y234747D01*
X-68276Y234172D01*
X-69090Y233590D01*
X-69899Y233001D01*
X-70703Y232406D01*
X-71501Y231804D01*
X-72295Y231195D01*
X-73084Y230579D01*
X-73867Y229957D01*
X-74645Y229328D01*
X-75417Y228692D01*
X-76184Y228050D01*
X-76946Y227402D01*
X-77702Y226747D01*
X-78453Y226085D01*
X-79198Y225418D01*
X-79937Y224744D01*
X-80671Y224064D01*
X-81399Y223377D01*
X-82121Y222685D01*
X-82837Y221986D01*
X-83547Y221282D01*
X-84251Y220571D01*
X-84949Y219854D01*
X-85641Y219132D01*
X-86327Y218404D01*
X-87006Y217670D01*
X-87680Y216930D01*
X-88347Y216184D01*
X-89008Y215433D01*
X-89662Y214677D01*
X-90310Y213914D01*
X-90952Y213147D01*
X-91587Y212374D01*
X-92215Y211595D01*
X-92837Y210812D01*
X-93452Y210023D01*
X-94060Y209229D01*
X-94662Y208429D01*
X-95257Y207625D01*
X-95845Y206816D01*
X-96426Y206001D01*
X-97000Y205182D01*
X-97567Y204358D01*
X-98128Y203530D01*
X-98681Y202696D01*
X-99227Y201858D01*
X-99766Y201015D01*
X-100298Y200168D01*
X-100823Y199316D01*
X-101340Y198460D01*
X-101850Y197600D01*
X-102353Y196735D01*
X-102849Y195866D01*
X-103337Y194993D01*
X-103818Y194115D01*
X-104291Y193234D01*
X-104757Y192349D01*
X-105215Y191459D01*
X-105666Y190566D01*
X-106109Y189670D01*
X-106544Y188769D01*
X-106972Y187865D01*
X-107393Y186957D01*
X-107805Y186046D01*
X-108210Y185131D01*
X-108607Y184212D01*
X-108996Y183291D01*
X-109378Y182366D01*
X-109751Y181438D01*
X-110117Y180507D01*
X-110475Y179573D01*
X-110825Y178636D01*
X-111167Y177695D01*
X-111501Y176752D01*
X-111827Y175807D01*
X-112144Y174858D01*
X-112454Y173907D01*
X-112756Y172953D01*
X-113050Y171997D01*
X-113336Y171038D01*
X-113613Y170077D01*
X-113882Y169114D01*
X-114144Y168148D01*
X-114397Y167180D01*
X-114641Y166210D01*
X-114878Y165238D01*
X-115106Y164264D01*
X-115326Y163288D01*
X-115538Y162311D01*
X-115742Y161331D01*
X-115937Y160350D01*
X-116124Y159367D01*
X-116302Y158383D01*
X-116472Y157397D01*
X-116634Y156410D01*
X-116788Y155421D01*
X-116933Y154431D01*
X-117069Y153440D01*
X-117198Y152448D01*
X-117318Y151455D01*
X-117429Y150461D01*
X-117532Y149466D01*
X-117627Y148470D01*
X-117713Y147473D01*
X-117791Y146476D01*
X-117860Y145478D01*
X-117921Y144480D01*
X-117973Y143481D01*
X-118017Y142481D01*
X-118053Y141481D01*
X-118080Y140481D01*
X-118098Y139481D01*
X-118108Y138481D01*
X-118110Y137480D01*
X-118103Y136480D01*
X-118087Y135480D01*
X-118064Y134480D01*
X-118031Y133480D01*
X-117991Y132480D01*
X-117941Y131481D01*
X-117884Y130482D01*
X-117817Y129484D01*
X-117743Y128487D01*
X-117660Y127490D01*
X-117568Y126494D01*
X-117468Y125498D01*
X-117360Y124504D01*
X-117243Y123510D01*
X-117118Y122518D01*
X-116984Y121526D01*
X-116842Y120536D01*
X-116692Y119547D01*
X-116533Y118559D01*
X-116366Y117573D01*
X-116191Y116588D01*
X-116007Y115605D01*
X-115815Y114623D01*
X-115614Y113643D01*
X-115406Y112664D01*
X-115189Y111688D01*
X-114963Y110713D01*
X-114730Y109740D01*
X-114488Y108770D01*
X-114238Y107801D01*
X-113980Y106834D01*
X-113714Y105870D01*
X-113439Y104908D01*
X-113157Y103949D01*
X-112866Y102991D01*
X-112567Y102037D01*
X-112260Y101085D01*
X-111945Y100135D01*
X-111622Y99188D01*
X-111291Y98244D01*
X-110952Y97303D01*
X-110605Y96365D01*
X-110250Y95429D01*
X-109888Y94497D01*
X-109517Y93568D01*
X-109139Y92642D01*
X-108752Y91719D01*
X-108358Y90800D01*
X-107956Y89884D01*
X-107546Y88971D01*
X-107129Y88062D01*
X-106704Y87156D01*
X-106271Y86254D01*
X-105831Y85356D01*
X-105383Y84462D01*
X-104927Y83571D01*
X-104464Y82684D01*
X-103994Y81801D01*
X-103516Y80923D01*
X-19685Y234232D02*
X-20665Y234027D01*
X-21644Y233811D01*
X-22619Y233586D01*
X-23593Y233351D01*
X-24564Y233106D01*
X-25533Y232851D01*
X-26499Y232586D01*
X-27462Y232312D01*
X-28422Y232028D01*
X-29379Y231733D01*
X-30334Y231430D01*
X-31285Y231116D01*
X-32233Y230793D01*
X-33178Y230460D01*
X-34119Y230118D01*
X-35056Y229766D01*
X-35991Y229404D01*
X-36921Y229033D01*
X-37847Y228653D01*
X-38770Y228263D01*
X-39689Y227864D01*
X-40603Y227455D01*
X-41513Y227038D01*
X-42419Y226610D01*
X-43321Y226174D01*
X-44218Y225729D01*
X-45110Y225274D01*
X-45998Y224811D01*
X-46881Y224338D01*
X-47759Y223857D01*
X-48633Y223366D01*
X-49501Y222867D01*
X-50364Y222359D01*
X-51222Y221842D01*
X-52074Y221316D01*
X-52922Y220782D01*
X-53763Y220239D01*
X-54599Y219688D01*
X-55430Y219128D01*
X-56255Y218560D01*
X-57074Y217983D01*
X-57887Y217399D01*
X-58694Y216805D01*
X-59495Y216204D01*
X-60289Y215595D01*
X-61078Y214977D01*
X-61860Y214352D01*
X-62636Y213718D01*
X-63405Y213077D01*
X-64168Y212428D01*
X-64924Y211771D01*
X-65674Y211106D01*
X-66416Y210434D01*
X-67152Y209755D01*
X-67881Y209068D01*
X-68602Y208373D01*
X-69317Y207671D01*
X-70024Y206962D01*
X-70725Y206246D01*
X-71417Y205523D01*
X-72103Y204793D01*
X-72781Y204056D01*
X-73452Y203312D01*
X-74114Y202561D01*
X-74770Y201803D01*
X-75417Y201039D01*
X-76057Y200269D01*
X-76688Y199491D01*
X-77312Y198708D01*
X-77928Y197918D01*
X-78536Y197122D01*
X-79136Y196320D01*
X-79727Y195511D01*
X-80310Y194697D01*
X-80885Y193877D01*
X-81451Y193051D01*
X-82010Y192219D01*
X-82559Y191382D01*
X-83100Y190539D01*
X-83632Y189691D01*
X-84156Y188837D01*
X-84671Y187978D01*
X-85177Y187114D01*
X-85675Y186244D01*
X-86164Y185370D01*
X-86643Y184491D01*
X-87114Y183607D01*
X-87576Y182718D01*
X-88028Y181825D01*
X-88472Y180927D01*
X-88906Y180024D01*
X-89331Y179117D01*
X-89747Y178206D01*
X-90153Y177291D01*
X-90551Y176371D01*
X-90939Y175448D01*
X-91317Y174521D01*
X-91686Y173589D01*
X-92045Y172655D01*
X-92395Y171716D01*
X-92736Y170774D01*
X-93067Y169829D01*
X-93388Y168880D01*
X-93699Y167928D01*
X-94001Y166973D01*
X-94293Y166015D01*
X-94575Y165054D01*
X-94848Y164090D01*
X-95110Y163124D01*
X-95363Y162155D01*
X-95606Y161183D01*
X-95839Y160209D01*
X-96062Y159233D01*
X-96275Y158254D01*
X-96479Y157273D01*
X-96672Y156290D01*
X-96855Y155306D01*
X-97028Y154319D01*
X-97191Y153331D01*
X-97344Y152341D01*
X-97487Y151350D01*
X-97620Y150357D01*
X-97743Y149363D01*
X-97856Y148368D01*
X-97958Y147372D01*
X-98051Y146375D01*
X-98133Y145376D01*
X-98205Y144377D01*
X-98267Y143378D01*
X-98318Y142377D01*
X-98360Y141377D01*
X-98391Y140376D01*
X-98413Y139374D01*
X-98423Y138373D01*
X-98424Y137371D01*
X-98415Y136370D01*
X-98395Y135369D01*
X-98365Y134367D01*
X-98326Y133367D01*
X-98275Y132366D01*
X-98215Y131367D01*
X-98145Y130367D01*
X-98064Y129369D01*
X-97973Y128372D01*
X-97872Y127375D01*
X-97761Y126380D01*
X-97640Y125386D01*
X-97508Y124393D01*
X-97367Y123401D01*
X-97215Y122411D01*
X-97054Y121423D01*
X-96882Y120436D01*
X-96701Y119451D01*
X-96509Y118468D01*
X-96307Y117487D01*
X-96096Y116508D01*
X-95874Y115531D01*
X-95643Y114557D01*
X-95401Y113585D01*
X-95150Y112615D01*
X-94889Y111648D01*
X-94618Y110684D01*
X-94337Y109723D01*
X-94046Y108764D01*
X-93746Y107809D01*
X-93436Y106856D01*
X-93116Y105907D01*
X-92787Y104961D01*
X-92448Y104019D01*
X-92100Y103080D01*
X-91742Y102144D01*
X-91374Y101213D01*
X-90997Y100285D01*
X-90611Y99361D01*
X-90215Y98441D01*
X-89810Y97525D01*
X-89395Y96613D01*
X-88972Y95705D01*
X-88539Y94802D01*
X-88097Y93903D01*
X-87646Y93009D01*
X-87185Y92120D01*
X-86716Y91235D01*
X-86238Y90355D01*
X-85751Y89480D01*
X-85254Y88610D01*
X-84750Y87745D01*
X-84236Y86885D01*
X-83713Y86031D01*
X-83182Y85181D01*
X-82643Y84338D01*
X-82094Y83499D01*
X-81538Y82667D01*
X-80972Y81840D01*
X-80399Y81019D01*
X-79817Y80204D01*
X-79227Y79395D01*
X-78628Y78591D01*
X-78022Y77794D01*
X-77407Y77004D01*
X-76785Y76219D01*
X-76154Y75441D01*
X-75516Y74669D01*
X-74869Y73904D01*
X-74215Y73146D01*
X-73554Y72394D01*
X-72884Y71649D01*
X-72207Y70910D01*
X-71523Y70179D01*
X-70831Y69455D01*
X-70132Y68738D01*
X-69426Y68027D01*
X-68712Y67325D01*
X-67992Y66629D01*
X-67264Y65941D01*
X-66529Y65260D01*
X-65788Y64587D01*
X-65039Y63921D01*
X-64284Y63263D01*
X-63523Y62613D01*
X-62754Y61970D01*
X-61980Y61336D01*
X-61198Y60709D01*
X-60411Y60090D01*
X-59617Y59480D01*
X-58817Y58877D01*
X-58011Y58283D01*
X-57199Y57696D01*
X-56381Y57118D01*
X-55557Y56549D01*
X-54727Y55988D01*
X-53892Y55435D01*
X-53051Y54891D01*
X-52205Y54356D01*
X-51353Y53829D01*
X-50496Y53310D01*
X-49633Y52801D01*
X-48766Y52300D01*
X-47894Y51809D01*
X-47016Y51326D01*
X-46134Y50852D01*
X-45247Y50387D01*
X-44355Y49931D01*
X-43458Y49484D01*
X-42558Y49046D01*
X-41652Y48618D01*
X-40743Y48199D01*
X-39829Y47789D01*
X-38911Y47388D01*
X-37989Y46997D01*
X-37063Y46615D01*
X-36133Y46242D01*
X-35200Y45880D01*
X-34263Y45526D01*
X-33322Y45182D01*
X-32378Y44848D01*
X-31430Y44523D01*
X-30480Y44208D01*
X-29528Y43904D01*
X-15748Y224967D02*
X-16733Y224783D01*
X-17715Y224588D01*
X-18695Y224383D01*
X-19673Y224166D01*
X-20648Y223938D01*
X-21621Y223699D01*
X-22591Y223449D01*
X-23558Y223188D01*
X-24521Y222916D01*
X-25482Y222634D01*
X-26440Y222340D01*
X-27394Y222036D01*
X-28345Y221721D01*
X-29292Y221395D01*
X-30235Y221058D01*
X-31174Y220711D01*
X-32110Y220353D01*
X-33041Y219985D01*
X-33968Y219606D01*
X-34891Y219217D01*
X-35809Y218817D01*
X-36723Y218407D01*
X-37632Y217987D01*
X-38537Y217556D01*
X-39436Y217116D01*
X-40330Y216665D01*
X-41219Y216204D01*
X-42103Y215733D01*
X-42981Y215252D01*
X-43854Y214761D01*
X-44722Y214260D01*
X-45584Y213750D01*
X-46439Y213229D01*
X-47289Y212699D01*
X-48133Y212160D01*
X-48971Y211611D01*
X-49802Y211053D01*
X-50627Y210485D01*
X-51446Y209908D01*
X-52258Y209322D01*
X-53063Y208726D01*
X-53862Y208122D01*
X-54653Y207508D01*
X-55438Y206886D01*
X-56216Y206255D01*
X-56986Y205615D01*
X-57749Y204966D01*
X-58505Y204309D01*
X-59253Y203643D01*
X-59994Y202969D01*
X-60727Y202287D01*
X-61452Y201596D01*
X-62169Y200897D01*
X-62879Y200190D01*
X-63580Y199475D01*
X-64274Y198753D01*
X-64959Y198022D01*
X-65636Y197284D01*
X-66304Y196538D01*
X-66964Y195784D01*
X-67615Y195024D01*
X-68258Y194256D01*
X-68892Y193480D01*
X-69517Y192698D01*
X-70133Y191908D01*
X-70740Y191112D01*
X-71339Y190309D01*
X-71928Y189499D01*
X-72508Y188682D01*
X-73079Y187859D01*
X-73640Y187030D01*
X-74192Y186194D01*
X-74734Y185352D01*
X-75267Y184504D01*
X-75791Y183650D01*
X-76304Y182791D01*
X-76808Y181925D01*
X-77302Y181054D01*
X-77786Y180177D01*
X-78260Y179295D01*
X-78724Y178407D01*
X-79179Y177515D01*
X-79623Y176617D01*
X-80057Y175714D01*
X-80480Y174807D01*
X-80893Y173895D01*
X-81296Y172978D01*
X-81689Y172056D01*
X-82071Y171131D01*
X-82443Y170201D01*
X-82804Y169266D01*
X-83154Y168328D01*
X-83494Y167386D01*
X-83823Y166440D01*
X-84142Y165491D01*
X-84450Y164538D01*
X-84747Y163581D01*
X-85033Y162621D01*
X-85308Y161658D01*
X-85572Y160692D01*
X-85826Y159723D01*
X-86068Y158752D01*
X-86300Y157777D01*
X-86520Y156800D01*
X-86729Y155821D01*
X-86927Y154839D01*
X-87115Y153855D01*
X-87291Y152869D01*
X-87455Y151881D01*
X-87609Y150892D01*
X-87752Y149900D01*
X-87883Y148907D01*
X-88003Y147913D01*
X-88112Y146918D01*
X-88209Y145921D01*
X-88296Y144923D01*
X-88370Y143924D01*
X-88434Y142925D01*
X-88486Y141925D01*
X-88527Y140924D01*
X-88557Y139923D01*
X-88576Y138921D01*
X-88583Y137920D01*
X-88578Y136918D01*
X-88563Y135917D01*
X-88536Y134916D01*
X-88498Y133915D01*
X-88448Y132915D01*
X-88387Y131915D01*
X-88315Y130916D01*
X-88232Y129918D01*
X-88137Y128921D01*
X-88031Y127925D01*
X-87914Y126931D01*
X-87785Y125937D01*
X-87646Y124946D01*
X-87495Y123956D01*
X-87333Y122967D01*
X-87160Y121981D01*
X-86975Y120996D01*
X-86780Y120014D01*
X-86573Y119034D01*
X-86356Y118056D01*
X-86127Y117081D01*
X-85887Y116109D01*
X-85636Y115139D01*
X-85375Y114173D01*
X-85102Y113209D01*
X-84819Y112248D01*
X-84525Y111291D01*
X-84220Y110337D01*
X-83904Y109387D01*
X-83577Y108440D01*
X-83240Y107497D01*
X-82892Y106558D01*
X-82534Y105622D01*
X-82165Y104691D01*
X-81785Y103764D01*
X-81395Y102842D01*
X-80995Y101924D01*
X-80584Y101011D01*
X-80163Y100102D01*
X-79732Y99198D01*
X-79290Y98299D01*
X-78839Y97405D01*
X-78377Y96516D01*
X-77905Y95633D01*
X-77424Y94755D01*
X-76932Y93882D01*
X-76430Y93015D01*
X-75919Y92154D01*
X-75398Y91298D01*
X-74868Y90449D01*
X-74328Y89605D01*
X-73778Y88768D01*
X-73219Y87937D01*
X-72651Y87113D01*
X-72073Y86295D01*
X-71486Y85483D01*
X-70890Y84678D01*
X-70285Y83880D01*
X-69671Y83089D01*
X-69048Y82305D01*
X-68417Y81527D01*
X-67776Y80757D01*
X-67127Y79995D01*
X-66469Y79240D01*
X-65803Y78492D01*
X-65128Y77752D01*
X-64445Y77019D01*
X-63754Y76294D01*
X-63054Y75578D01*
X-62347Y74869D01*
X-61632Y74168D01*
X-60908Y73475D01*
X-60177Y72791D01*
X-59438Y72114D01*
X-58692Y71447D01*
X-57938Y70787D01*
X-57177Y70136D01*
X-56408Y69494D01*
X-55632Y68861D01*
X-54849Y68237D01*
X-54059Y67621D01*
X-53263Y67014D01*
X-52459Y66416D01*
X-51649Y65828D01*
X-50832Y65249D01*
X-50008Y64679D01*
X-49178Y64118D01*
X-48342Y63566D01*
X-47500Y63025D01*
X-46652Y62492D01*
X-45797Y61970D01*
X-44937Y61457D01*
X-44071Y60954D01*
X-43199Y60460D01*
X-42322Y59977D01*
X-41440Y59503D01*
X-40552Y59040D01*
X-39659Y58586D01*
X-38761Y58143D01*
X-37858Y57710D01*
X-36950Y57287D01*
X-36037Y56874D01*
X-35120Y56472D01*
X-34199Y56080D01*
X-33273Y55699D01*
X-32342Y55328D01*
X-31408Y54967D01*
X-30469Y54618D01*
X-29528Y54279D01*
X-7874Y42000D02*
X7874D01*
X-7874D02*
Y52375D01*
X7874Y42000D02*
Y52375D01*
X-7874D02*
X7874D01*
X15748Y224967D02*
Y305118D01*
X-15748D02*
X15748D01*
X-15748Y224967D02*
Y305118D01*
X-19685Y234232D02*
Y254254D01*
X19685Y234232D02*
Y254254D01*
X-59055Y0D02*
X59055D01*
X-29528Y43904D02*
Y54279D01*
X29528Y43904D02*
Y54279D01*
X-103515Y80922D02*
X-59055Y0D01*
X59055D02*
X103515Y80922D01*
M02*
