G04*
G04 #@! TF.GenerationSoftware,Altium Limited,Altium Designer,22.10.1 (41)*
G04*
G04 Layer_Color=8388736*
%FSLAX25Y25*%
%MOIN*%
G70*
G04*
G04 #@! TF.SameCoordinates,FEF3DBFB-2847-4824-BCEC-0586C65A169C*
G04*
G04*
G04 #@! TF.FilePolarity,Negative*
G04*
G01*
G75*
%ADD12C,0.08800*%
%ADD13C,0.05800*%
G36*
X-30023Y17897D02*
X-29972Y17887D01*
X-29922Y17870D01*
X-29875Y17847D01*
X-29831Y17818D01*
X-29792Y17783D01*
X-25717Y13708D01*
X-25682Y13669D01*
X-25653Y13625D01*
X-25630Y13578D01*
X-25613Y13528D01*
X-25603Y13477D01*
X-25599Y13424D01*
Y5000D01*
X-25603Y4948D01*
X-25613Y4896D01*
X-25630Y4847D01*
X-25653Y4800D01*
X-25682Y4756D01*
X-25717Y4716D01*
X-27717Y2717D01*
X-27756Y2682D01*
X-27800Y2653D01*
X-27847Y2630D01*
X-27896Y2613D01*
X-27948Y2603D01*
X-28000Y2599D01*
X-56145D01*
X-56155Y2600D01*
X-56164Y2600D01*
X-56181Y2602D01*
X-56198Y2603D01*
X-56207Y2604D01*
X-56216Y2606D01*
X-56232Y2609D01*
X-56249Y2613D01*
X-56258Y2616D01*
X-56267Y2618D01*
X-56283Y2624D01*
X-56299Y2630D01*
X-56307Y2634D01*
X-56316Y2637D01*
X-56331Y2645D01*
X-56346Y2653D01*
X-56353Y2658D01*
X-56362Y2663D01*
X-56375Y2673D01*
X-56389Y2682D01*
X-56396Y2688D01*
X-56404Y2694D01*
X-56416Y2706D01*
X-56429Y2717D01*
X-56435Y2724D01*
X-56442Y2730D01*
X-56452Y2743D01*
X-56463Y2756D01*
X-56468Y2764D01*
X-56474Y2771D01*
X-56483Y2786D01*
X-56492Y2800D01*
X-56497Y2808D01*
X-56501Y2816D01*
X-62360Y14168D01*
X-62369Y14188D01*
X-62378Y14207D01*
X-62379Y14212D01*
X-62381Y14216D01*
X-62387Y14236D01*
X-62394Y14257D01*
X-62394Y14262D01*
X-62396Y14266D01*
X-62399Y14288D01*
X-62403Y14309D01*
X-62403Y14313D01*
X-62404Y14318D01*
X-62404Y14340D01*
X-62405Y14361D01*
X-62405Y14366D01*
X-62405Y14371D01*
X-62402Y14392D01*
X-62400Y14413D01*
X-62399Y14418D01*
X-62399Y14423D01*
X-62393Y14443D01*
X-62389Y14465D01*
X-62387Y14469D01*
X-62386Y14474D01*
X-62378Y14494D01*
X-62371Y14514D01*
X-62369Y14518D01*
X-62367Y14522D01*
X-62357Y14541D01*
X-62347Y14560D01*
X-60429Y17708D01*
X-60416Y17726D01*
X-60404Y17744D01*
X-60401Y17748D01*
X-60398Y17751D01*
X-60384Y17767D01*
X-60370Y17783D01*
X-60366Y17787D01*
X-60363Y17790D01*
X-60346Y17804D01*
X-60330Y17818D01*
X-60326Y17821D01*
X-60323Y17824D01*
X-60304Y17835D01*
X-60287Y17847D01*
X-60282Y17849D01*
X-60278Y17852D01*
X-60259Y17861D01*
X-60240Y17870D01*
X-60235Y17872D01*
X-60231Y17874D01*
X-60210Y17880D01*
X-60190Y17887D01*
X-60185Y17888D01*
X-60181Y17889D01*
X-60159Y17893D01*
X-60138Y17897D01*
X-60134Y17898D01*
X-60129Y17899D01*
X-60108Y17899D01*
X-60086Y17901D01*
X-30075D01*
X-30023Y17897D01*
D02*
G37*
D12*
X-108268Y137795D02*
D03*
X7874Y7874D02*
D03*
X-7874D02*
D03*
X29134Y241732D02*
D03*
X-29134D02*
D03*
X108268Y137795D02*
D03*
X31496Y7874D02*
D03*
X-78740Y59055D02*
D03*
X78740D02*
D03*
X-31496Y7874D02*
D03*
D13*
X-50000Y11000D02*
D03*
M02*
