G04*
G04 #@! TF.GenerationSoftware,Altium Limited,Altium Designer,22.10.1 (41)*
G04*
G04 Layer_Color=65535*
%FSLAX25Y25*%
%MOIN*%
G70*
G04*
G04 #@! TF.SameCoordinates,FEF3DBFB-2847-4824-BCEC-0586C65A169C*
G04*
G04*
G04 #@! TF.FilePolarity,Positive*
G04*
G01*
G75*
%ADD10C,0.00591*%
%ADD11C,0.01000*%
D10*
X9167Y14580D02*
X7593Y14588D01*
X9175Y16155D01*
X9177Y16548D01*
X8785Y16944D01*
X7998Y16947D01*
X7603Y16556D01*
X9960Y15757D02*
X11535Y15750D01*
X13890Y14558D02*
X12316Y14566D01*
X13898Y16133D01*
X13900Y16526D01*
X13508Y16922D01*
X12721Y16925D01*
X12325Y16534D01*
X-9407Y14588D02*
X-8620Y14584D01*
X-9013Y14586D01*
X-9002Y16947D01*
X-9398Y16556D01*
X-7433Y15759D02*
X-5859Y15752D01*
X-3503Y14560D02*
X-5077Y14568D01*
X-3496Y16135D01*
X-3494Y16528D01*
X-3886Y16924D01*
X-4673Y16927D01*
X-5068Y16535D01*
D11*
X4999Y19998D02*
X3999Y20998D01*
X2000D01*
X1000Y19998D01*
Y16000D01*
X2000Y15000D01*
X3999D01*
X4999Y16000D01*
X-12001Y19998D02*
X-13001Y20998D01*
X-15000D01*
X-16000Y19998D01*
Y16000D01*
X-15000Y15000D01*
X-13001D01*
X-12001Y16000D01*
M02*
