G04*
G04 #@! TF.GenerationSoftware,Altium Limited,Altium Designer,22.10.1 (41)*
G04*
G04 Layer_Physical_Order=2*
G04 Layer_Color=16711680*
%FSLAX25Y25*%
%MOIN*%
G70*
G04*
G04 #@! TF.SameCoordinates,FEF3DBFB-2847-4824-BCEC-0586C65A169C*
G04*
G04*
G04 #@! TF.FilePolarity,Positive*
G04*
G01*
G75*
%ADD15C,0.08000*%
%ADD16C,0.05000*%
G36*
X8540Y226037D02*
X14193Y225292D01*
X19785Y224180D01*
X25292Y222704D01*
X30691Y220872D01*
X35959Y218690D01*
X41072Y216168D01*
X46010Y213317D01*
X50751Y210150D01*
X55274Y206679D01*
X59561Y202919D01*
X63593Y198888D01*
X67352Y194601D01*
X70823Y190078D01*
X73990Y185337D01*
X76841Y180399D01*
X79363Y175286D01*
X81545Y170018D01*
X83378Y164619D01*
X84853Y159112D01*
X85966Y153520D01*
X86710Y147867D01*
X87083Y142178D01*
Y139327D01*
Y136476D01*
X86710Y130787D01*
X85966Y125134D01*
X84853Y119542D01*
X83378Y114034D01*
X81545Y108635D01*
X79363Y103368D01*
X76841Y98254D01*
X73990Y93317D01*
X70823Y88576D01*
X67352Y84052D01*
X63593Y79766D01*
X59561Y75734D01*
X55274Y71975D01*
X50751Y68504D01*
X46010Y65336D01*
X41072Y62485D01*
X35959Y59964D01*
X32955Y58720D01*
X28323Y49525D01*
Y35585D01*
X13709Y20970D01*
X-37428Y21432D01*
X-43000Y15911D01*
Y10000D01*
X-47000Y6000D01*
X-52000D01*
X-55000Y9000D01*
X-55000Y14008D01*
X-55000Y26236D01*
X-43236Y38000D01*
X-32974D01*
X-30078Y40973D01*
X-30339Y50897D01*
X-33145Y58798D01*
X-35959Y59964D01*
X-41072Y62485D01*
X-46010Y65336D01*
X-50751Y68504D01*
X-55274Y71975D01*
X-59561Y75734D01*
X-63593Y79766D01*
X-67352Y84052D01*
X-70823Y88576D01*
X-73990Y93317D01*
X-76841Y98254D01*
X-79363Y103368D01*
X-81545Y108635D01*
X-83378Y114034D01*
X-84853Y119542D01*
X-85966Y125134D01*
X-86710Y130787D01*
X-87083Y136476D01*
Y139327D01*
Y142178D01*
X-86710Y147867D01*
X-85966Y153520D01*
X-84853Y159112D01*
X-83378Y164619D01*
X-81545Y170018D01*
X-79363Y175286D01*
X-76841Y180399D01*
X-73990Y185337D01*
X-70823Y190078D01*
X-67352Y194601D01*
X-63593Y198888D01*
X-59561Y202919D01*
X-55274Y206679D01*
X-50751Y210150D01*
X-46010Y213317D01*
X-41072Y216168D01*
X-35959Y218690D01*
X-30691Y220872D01*
X-25292Y222704D01*
X-19785Y224180D01*
X-14193Y225292D01*
X-8540Y226037D01*
X-2851Y226410D01*
X2851D01*
X8540Y226037D01*
D02*
G37*
D15*
X-108268Y137795D02*
D03*
X7874Y7874D02*
D03*
X-7874D02*
D03*
X29134Y241732D02*
D03*
X-29134D02*
D03*
X108268Y137795D02*
D03*
X31496Y7874D02*
D03*
X-78740Y59055D02*
D03*
X78740D02*
D03*
X-31496Y7874D02*
D03*
D16*
X-50000Y11000D02*
D03*
M02*
