M48
;Layer_Color=9474304
;FILE_FORMAT=2:5
INCH,LZ
;TYPE=PLATED
T2F00S00C0.02800
T3F00S00C0.03937
%
T02
X-0021654Y0027559
X0021654
X003937Y0072835
X0066929Y0106299
Y0173228
X003937Y0200787
X-003937
X-0066929Y0173228
Y0106299
X-003937Y0072835
T03
X-007874Y0059055
X-0031496Y0007874
X-0007874
X0007874
X0031496
X007874Y0059055
X0108268Y0137795
X-0108268
X-0029134Y0241732
X0029134
M30
