M48
;Layer_Color=9474304
;FILE_FORMAT=2:5
INCH,LZ
;TYPE=PLATED
T1F00S00C0.01968
%
G90
G05
T01
G00X-0022784Y00433
M15
G01X-0020816
M16
G00X-0022784Y00433
M15
G01X-0020816
M16
G00X-0022784Y00433
M15
G01X-0020816
M16
G00X-0022784Y00433
M15
G01X-0020816
M16
G00X-0022784Y00473
M15
G01X-0020816
M16
G00X-0022784Y00473
M15
G01X-0020816
M16
G00X-0022784Y00473
M15
G01X-0020816
M16
G00X-0022784Y00473
M15
G01X-0020816
M16
G00X-0022784Y00513
M15
G01X-0020816
M16
G00X-0022784Y00513
M15
G01X-0020816
M16
G00X-0022784Y00513
M15
G01X-0020816
M16
G00X-0022784Y00513
M15
G01X-0020816
M16
G00X-0015784Y00513
M15
G01X-0013816
M16
G00X-0015784Y00513
M15
G01X-0013816
M16
G00X-0015784Y00513
M15
G01X-0013816
M16
G00X-0015784Y00513
M15
G01X-0013816
M16
G00X-0015784Y00473
M15
G01X-0013816
M16
G00X-0015784Y00473
M15
G01X-0013816
M16
G00X-0015784Y00473
M15
G01X-0013816
M16
G00X-0015784Y00473
M15
G01X-0013816
M16
G00X-0015784Y00433
M15
G01X-0013816
M16
G00X-0015784Y00433
M15
G01X-0013816
M16
G00X-0015784Y00433
M15
G01X-0013816
M16
G00X-0015784Y00433
M15
G01X-0013816
M16
G00X0014816Y00433
M15
G01X0016784
M16
G00X0014816Y00433
M15
G01X0016784
M16
G00X0014816Y00433
M15
G01X0016784
M16
G00X0014816Y00433
M15
G01X0016784
M16
G00X0014816Y00473
M15
G01X0016784
M16
G00X0014816Y00473
M15
G01X0016784
M16
G00X0014816Y00473
M15
G01X0016784
M16
G00X0014816Y00473
M15
G01X0016784
M16
G00X0014816Y00513
M15
G01X0016784
M16
G00X0014816Y00513
M15
G01X0016784
M16
G00X0014816Y00513
M15
G01X0016784
M16
G00X0014816Y00513
M15
G01X0016784
M16
G00X0021716Y00513
M15
G01X0023684
M16
G00X0021716Y00513
M15
G01X0023684
M16
G00X0021716Y00513
M15
G01X0023684
M16
G00X0021716Y00513
M15
G01X0023684
M16
G00X0021716Y00473
M15
G01X0023684
M16
G00X0021716Y00473
M15
G01X0023684
M16
G00X0021716Y00473
M15
G01X0023684
M16
G00X0021716Y00473
M15
G01X0023684
M16
G00X0021716Y00433
M15
G01X0023684
M16
G00X0021716Y00433
M15
G01X0023684
M16
G00X0021716Y00433
M15
G01X0023684
M16
G00X0021716Y00433
M15
G01X0023684
M16
M17
M30
