G04*
G04 #@! TF.GenerationSoftware,Altium Limited,Altium Designer,22.10.1 (41)*
G04*
G04 Layer_Color=8388736*
%FSLAX25Y25*%
%MOIN*%
G70*
G04*
G04 #@! TF.SameCoordinates,FB2E412C-4C94-422A-880B-86203416BC3E*
G04*
G04*
G04 #@! TF.FilePolarity,Negative*
G04*
G01*
G75*
%ADD12C,0.08800*%
%ADD13O,0.05918X0.03556*%
%ADD14C,0.05800*%
%ADD15C,0.06706*%
D12*
X-31496Y7874D02*
D03*
X31496D02*
D03*
X78740Y59055D02*
D03*
X-78740D02*
D03*
X108268Y137795D02*
D03*
X-108268D02*
D03*
X-29134Y241732D02*
D03*
X29134D02*
D03*
D13*
X-14800Y43300D02*
D03*
D03*
D03*
D03*
X-21800D02*
D03*
D03*
Y47300D02*
D03*
D03*
D03*
Y43300D02*
D03*
D03*
Y47300D02*
D03*
Y51300D02*
D03*
X-14800Y47300D02*
D03*
Y51300D02*
D03*
X15800Y43300D02*
D03*
D03*
D03*
D03*
X22700D02*
D03*
D03*
D03*
D03*
X-14800Y47300D02*
D03*
D03*
D03*
X15800D02*
D03*
D03*
D03*
D03*
X22700D02*
D03*
D03*
D03*
D03*
Y51300D02*
D03*
X15800D02*
D03*
X-21800D02*
D03*
D03*
D03*
X-14800D02*
D03*
D03*
D03*
X15800D02*
D03*
D03*
D03*
X22700D02*
D03*
D03*
D03*
D14*
X-21654Y27559D02*
D03*
X21654D02*
D03*
D15*
X-7874Y7874D02*
D03*
X7874D02*
D03*
M02*
