G04*
G04 #@! TF.GenerationSoftware,Altium Limited,Altium Designer,22.10.1 (41)*
G04*
G04 Layer_Physical_Order=3*
G04 Layer_Color=16440176*
%FSLAX25Y25*%
%MOIN*%
G70*
G04*
G04 #@! TF.SameCoordinates,FB2E412C-4C94-422A-880B-86203416BC3E*
G04*
G04*
G04 #@! TF.FilePolarity,Positive*
G04*
G01*
G75*
%ADD19C,0.05000*%
%ADD20C,0.05906*%
G36*
X30918Y249823D02*
X31665Y249613D01*
X31665Y249613D01*
X31665Y249613D01*
X34658Y248773D01*
X40545Y246775D01*
X46317Y244464D01*
X51957Y241849D01*
X57449Y238935D01*
X62778Y235732D01*
X67927Y232248D01*
X72883Y228494D01*
X77631Y224480D01*
X82157Y220217D01*
X86449Y215719D01*
X90494Y210998D01*
X94280Y206067D01*
X97798Y200941D01*
X101036Y195633D01*
X103986Y190161D01*
X106638Y184538D01*
X108987Y178781D01*
X111023Y172907D01*
X112743Y166933D01*
X114141Y160875D01*
X115213Y154751D01*
X115955Y148578D01*
X116366Y142374D01*
X116445Y136158D01*
X116191Y129946D01*
X115606Y123756D01*
X114690Y117607D01*
X113446Y111516D01*
X111878Y105499D01*
X109991Y99576D01*
X107790Y93761D01*
X106535Y90917D01*
X106535Y90917D01*
X106517Y90877D01*
X105785Y89218D01*
X104217Y85947D01*
X102547Y82727D01*
X100778Y79561D01*
X99845Y78006D01*
X57916Y1500D01*
X-56549Y1500D01*
X-94594Y70788D01*
X-94594Y70788D01*
X-94594D01*
X-96373Y73307D01*
X-99659Y78526D01*
X-102662Y83911D01*
X-105376Y89448D01*
X-107793Y95122D01*
X-109904Y100916D01*
X-111706Y106813D01*
X-113192Y112798D01*
X-114358Y118854D01*
X-115202Y124962D01*
X-115720Y131107D01*
X-115911Y137271D01*
X-115775Y143436D01*
X-115312Y149585D01*
X-114524Y155701D01*
X-113412Y161767D01*
X-111980Y167765D01*
X-110232Y173678D01*
X-108172Y179491D01*
X-105807Y185186D01*
X-103143Y190747D01*
X-100188Y196160D01*
X-96949Y201408D01*
X-93437Y206476D01*
X-89661Y211352D01*
X-85631Y216020D01*
X-81360Y220467D01*
X-76858Y224682D01*
X-72140Y228652D01*
X-67217Y232366D01*
X-62104Y235814D01*
X-56815Y238985D01*
X-51366Y241872D01*
X-45771Y244465D01*
X-40046Y246757D01*
X-34208Y248743D01*
X-31241Y249580D01*
X-31241Y249580D01*
X-31241Y249580D01*
X-30494Y249790D01*
X-28947Y249911D01*
X-27407Y249729D01*
X-25932Y249249D01*
X-24578Y248491D01*
X-23399Y247484D01*
X-22438Y246265D01*
X-21734Y244883D01*
X-21313Y243390D01*
X-21192Y241843D01*
X-21374Y240303D01*
X-21854Y238827D01*
X-22612Y237474D01*
X-23620Y236294D01*
X-24838Y235334D01*
X-26220Y234630D01*
X-26967Y234419D01*
X-26967Y234419D01*
X-29769Y233585D01*
X-35294Y231674D01*
X-40698Y229445D01*
X-45963Y226905D01*
X-51072Y224062D01*
X-56007Y220928D01*
X-60750Y217511D01*
X-65287Y213824D01*
X-69601Y209879D01*
X-73679Y205689D01*
X-77505Y201270D01*
X-81068Y196635D01*
X-84356Y191800D01*
X-87356Y186783D01*
X-90059Y181599D01*
X-92456Y176267D01*
X-94538Y170804D01*
X-96298Y165229D01*
X-97732Y159562D01*
X-98833Y153820D01*
X-99598Y148024D01*
X-100024Y142194D01*
X-100110Y136348D01*
X-99856Y130508D01*
X-99262Y124692D01*
X-98330Y118921D01*
X-97065Y113213D01*
X-95469Y107589D01*
X-93549Y102067D01*
X-91310Y96667D01*
X-88761Y91406D01*
X-85910Y86302D01*
X-82766Y81373D01*
X-79342Y76635D01*
X-75647Y72105D01*
X-71694Y67797D01*
X-67498Y63727D01*
X-63072Y59908D01*
X-58431Y56353D01*
X-53591Y53074D01*
X-48568Y50082D01*
X-43380Y47388D01*
X-38044Y45000D01*
X-32577Y42927D01*
X-29801Y42011D01*
X-29801Y42011D01*
X-29639Y42120D01*
X-29363Y42397D01*
X-29169Y42735D01*
X-29068Y43113D01*
X-29055Y43308D01*
X-29055Y55385D01*
X-33003Y56861D01*
X-33068Y56888D01*
X-38419Y59314D01*
X-38481Y59345D01*
X-43655Y62129D01*
X-43715Y62164D01*
X-48688Y65292D01*
X-48746Y65331D01*
X-53495Y68790D01*
X-53550Y68833D01*
X-58054Y72606D01*
X-58106Y72652D01*
X-62343Y76722D01*
X-62392Y76772D01*
X-66343Y81120D01*
X-66389Y81173D01*
X-70036Y85779D01*
X-70077Y85835D01*
X-73404Y90678D01*
X-73441Y90737D01*
X-76432Y95794D01*
X-76465Y95855D01*
X-79135Y101167D01*
X-81413Y106582D01*
X-81438Y106647D01*
X-83343Y112205D01*
X-83364Y112272D01*
X-84888Y117946D01*
X-84904Y118014D01*
X-86039Y123778D01*
X-86050Y123847D01*
X-86792Y129675D01*
X-86799Y129745D01*
X-87144Y135610D01*
X-87145Y135679D01*
X-87091Y141554D01*
X-87089Y141624D01*
X-86636Y147482D01*
X-86628Y147551D01*
X-85780Y153365D01*
X-85767Y153433D01*
X-84526Y159176D01*
X-84509Y159244D01*
X-82881Y164889D01*
X-82859Y164955D01*
X-80852Y170477D01*
X-80826Y170542D01*
X-78449Y175914D01*
X-78419Y175977D01*
X-75682Y181176D01*
X-75648Y181237D01*
X-72565Y186239D01*
X-72527Y186296D01*
X-69112Y191077D01*
X-69069Y191133D01*
X-65338Y195671D01*
X-65292Y195723D01*
X-61261Y199998D01*
X-61212Y200047D01*
X-56900Y204038D01*
X-56848Y204084D01*
X-52275Y207773D01*
X-52220Y207815D01*
X-47408Y211186D01*
X-47349Y211224D01*
X-42320Y214261D01*
X-42259Y214295D01*
X-37035Y216983D01*
X-36972Y217013D01*
X-31577Y219341D01*
X-31512Y219366D01*
X-25972Y221323D01*
X-25906Y221344D01*
X-20246Y222920D01*
X-20178Y222936D01*
X-14424Y224125D01*
X-14356Y224136D01*
X-8535Y224932D01*
X-8465Y224939D01*
X-2603Y225338D01*
X-2534Y225340D01*
X3341D01*
X3411Y225338D01*
X9273Y224939D01*
X9342Y224932D01*
X15163Y224136D01*
X15232Y224125D01*
X20986Y222936D01*
X21054Y222920D01*
X26713Y221344D01*
X26780Y221323D01*
X32320Y219366D01*
X32385Y219341D01*
X37779Y217013D01*
X37842Y216983D01*
X43066Y214295D01*
X43127Y214261D01*
X48157Y211224D01*
X48215Y211186D01*
X53027Y207815D01*
X53083Y207773D01*
X57655Y204084D01*
X57708Y204038D01*
X62019Y200047D01*
X62069Y199998D01*
X66100Y195723D01*
X66146Y195671D01*
X69877Y191133D01*
X69919Y191077D01*
X73334Y186296D01*
X73373Y186239D01*
X76455Y181237D01*
X76490Y181176D01*
X79226Y175977D01*
X79257Y175914D01*
X81634Y170542D01*
X81660Y170477D01*
X83667Y164955D01*
X83689Y164889D01*
X85317Y159244D01*
X85334Y159176D01*
X86575Y153433D01*
X86587Y153365D01*
X87436Y147551D01*
X87444Y147482D01*
X87896Y141624D01*
X87899Y141554D01*
X87953Y135679D01*
X87951Y135610D01*
X87606Y129745D01*
X87600Y129675D01*
X86858Y123847D01*
X86847Y123778D01*
X85711Y118014D01*
X85695Y117946D01*
X84171Y112272D01*
X84151Y112205D01*
X82245Y106647D01*
X82221Y106582D01*
X79943Y101167D01*
X79913Y101103D01*
X77273Y95855D01*
X77240Y95794D01*
X74249Y90737D01*
X74212Y90678D01*
X70885Y85835D01*
X70844Y85779D01*
X67196Y81173D01*
X67151Y81120D01*
X63200Y76772D01*
X63151Y76722D01*
X58913Y72652D01*
X58862Y72606D01*
X54358Y68833D01*
X54303Y68790D01*
X49553Y65331D01*
X49496Y65292D01*
X44523Y62164D01*
X44462Y62129D01*
X39289Y59345D01*
X39226Y59314D01*
X33875Y56888D01*
X33811Y56861D01*
X29145Y55116D01*
Y43161D01*
X29145Y43161D01*
X29158Y42960D01*
X29274Y42575D01*
X29499Y42242D01*
X29813Y41990D01*
X29994Y41902D01*
X32779Y42809D01*
X38262Y44867D01*
X43617Y47240D01*
X48823Y49922D01*
X53865Y52903D01*
X58724Y56173D01*
X63384Y59720D01*
X67830Y63534D01*
X72045Y67599D01*
X76017Y71904D01*
X79730Y76434D01*
X83173Y81172D01*
X86334Y86102D01*
X89202Y91209D01*
X91767Y96474D01*
X94021Y101880D01*
X95955Y107408D01*
X97565Y113040D01*
X98843Y118756D01*
X99785Y124536D01*
X100389Y130362D01*
X100652Y136213D01*
X100573Y142069D01*
X100153Y147911D01*
X99393Y153718D01*
X98296Y159471D01*
X96865Y165151D01*
X95105Y170737D01*
X93022Y176211D01*
X90624Y181555D01*
X87918Y186749D01*
X84914Y191777D01*
X81622Y196621D01*
X78053Y201265D01*
X74220Y205693D01*
X70134Y209889D01*
X65811Y213841D01*
X61265Y217533D01*
X56511Y220954D01*
X51565Y224092D01*
X46446Y226937D01*
X41169Y229478D01*
X35752Y231707D01*
X30215Y233616D01*
X27408Y234449D01*
X27408D01*
X26661Y234658D01*
X25278Y235361D01*
X24058Y236320D01*
X23049Y237498D01*
X22290Y238851D01*
X21809Y240326D01*
X21624Y241866D01*
X21744Y243413D01*
X22164Y244906D01*
X22866Y246289D01*
X23825Y247509D01*
X25004Y248518D01*
X26356Y249277D01*
X27831Y249759D01*
X29372Y249943D01*
X30918Y249823D01*
D02*
G37*
%LPC*%
G36*
X29134Y247280D02*
X27698Y247091D01*
X26360Y246536D01*
X25211Y245655D01*
X24330Y244506D01*
X23775Y243168D01*
X23586Y241732D01*
X23775Y240297D01*
X24330Y238959D01*
X25211Y237810D01*
X26360Y236928D01*
X27698Y236374D01*
X29134Y236185D01*
X30570Y236374D01*
X31908Y236928D01*
X33057Y237810D01*
X33938Y238959D01*
X34492Y240297D01*
X34681Y241732D01*
X34492Y243168D01*
X33938Y244506D01*
X33057Y245655D01*
X31908Y246536D01*
X30570Y247091D01*
X29134Y247280D01*
D02*
G37*
G36*
X-29134D02*
X-30570Y247091D01*
X-31908Y246536D01*
X-33057Y245655D01*
X-33938Y244506D01*
X-34492Y243168D01*
X-34681Y241732D01*
X-34492Y240297D01*
X-33938Y238959D01*
X-33057Y237810D01*
X-31908Y236928D01*
X-30570Y236374D01*
X-29134Y236185D01*
X-27698Y236374D01*
X-26360Y236928D01*
X-25211Y237810D01*
X-24330Y238959D01*
X-23775Y240297D01*
X-23586Y241732D01*
X-23775Y243168D01*
X-24330Y244506D01*
X-25211Y245655D01*
X-26360Y246536D01*
X-27698Y247091D01*
X-29134Y247280D01*
D02*
G37*
G36*
X39370Y204318D02*
X38456Y204197D01*
X37605Y203845D01*
X36874Y203284D01*
X36313Y202553D01*
X35960Y201701D01*
X35840Y200787D01*
X35960Y199874D01*
X36313Y199022D01*
X36874Y198291D01*
X37605Y197730D01*
X38456Y197378D01*
X39370Y197257D01*
X40284Y197378D01*
X41135Y197730D01*
X41866Y198291D01*
X42427Y199022D01*
X42780Y199874D01*
X42900Y200787D01*
X42780Y201701D01*
X42427Y202553D01*
X41866Y203284D01*
X41135Y203845D01*
X40284Y204197D01*
X39370Y204318D01*
D02*
G37*
G36*
X-66929Y176759D02*
X-67843Y176638D01*
X-68694Y176286D01*
X-69425Y175725D01*
X-69986Y174994D01*
X-70339Y174142D01*
X-70459Y173228D01*
X-70339Y172315D01*
X-69986Y171463D01*
X-69425Y170732D01*
X-68694Y170171D01*
X-67843Y169818D01*
X-66929Y169698D01*
X-66015Y169818D01*
X-65164Y170171D01*
X-64433Y170732D01*
X-63872Y171463D01*
X-63519Y172315D01*
X-63399Y173228D01*
X-63519Y174142D01*
X-63872Y174994D01*
X-64433Y175725D01*
X-65164Y176286D01*
X-66015Y176638D01*
X-66929Y176759D01*
D02*
G37*
G36*
X108268Y143343D02*
X106832Y143154D01*
X105494Y142599D01*
X104345Y141718D01*
X103463Y140569D01*
X102909Y139231D01*
X102720Y137795D01*
X102909Y136360D01*
X103463Y135022D01*
X104345Y133873D01*
X105494Y132991D01*
X106832Y132437D01*
X108268Y132248D01*
X109704Y132437D01*
X111041Y132991D01*
X112190Y133873D01*
X113072Y135022D01*
X113626Y136360D01*
X113815Y137795D01*
X113626Y139231D01*
X113072Y140569D01*
X112190Y141718D01*
X111041Y142599D01*
X109704Y143154D01*
X108268Y143343D01*
D02*
G37*
G36*
X-108268D02*
X-109704Y143154D01*
X-111041Y142599D01*
X-112190Y141718D01*
X-113072Y140569D01*
X-113626Y139231D01*
X-113815Y137795D01*
X-113626Y136360D01*
X-113072Y135022D01*
X-112190Y133873D01*
X-111041Y132991D01*
X-109704Y132437D01*
X-108268Y132248D01*
X-106832Y132437D01*
X-105494Y132991D01*
X-104345Y133873D01*
X-103463Y135022D01*
X-102909Y136360D01*
X-102720Y137795D01*
X-102909Y139231D01*
X-103463Y140569D01*
X-104345Y141718D01*
X-105494Y142599D01*
X-106832Y143154D01*
X-108268Y143343D01*
D02*
G37*
G36*
X66929Y109829D02*
X66015Y109709D01*
X65164Y109356D01*
X64433Y108795D01*
X63872Y108064D01*
X63519Y107213D01*
X63399Y106299D01*
X63519Y105385D01*
X63872Y104534D01*
X64433Y103803D01*
X65164Y103242D01*
X66015Y102889D01*
X66929Y102769D01*
X67843Y102889D01*
X68694Y103242D01*
X69425Y103803D01*
X69986Y104534D01*
X70339Y105385D01*
X70459Y106299D01*
X70339Y107213D01*
X69986Y108064D01*
X69425Y108795D01*
X68694Y109356D01*
X67843Y109709D01*
X66929Y109829D01*
D02*
G37*
G36*
X-39370Y76365D02*
X-40284Y76245D01*
X-41135Y75892D01*
X-41866Y75331D01*
X-42427Y74600D01*
X-42780Y73748D01*
X-42900Y72835D01*
X-42780Y71921D01*
X-42427Y71070D01*
X-41866Y70338D01*
X-41135Y69777D01*
X-40284Y69425D01*
X-39370Y69304D01*
X-38456Y69425D01*
X-37605Y69777D01*
X-36874Y70338D01*
X-36313Y71070D01*
X-35960Y71921D01*
X-35840Y72835D01*
X-35960Y73748D01*
X-36313Y74600D01*
X-36874Y75331D01*
X-37605Y75892D01*
X-38456Y76245D01*
X-39370Y76365D01*
D02*
G37*
G36*
X-13619Y54203D02*
X-15981D01*
X-16732Y54104D01*
X-17034Y53979D01*
X-19566D01*
X-19868Y54104D01*
X-20619Y54203D01*
X-22981D01*
X-23732Y54104D01*
X-23963Y54008D01*
X-24054Y54022D01*
X-24619Y53900D01*
X-24772Y53830D01*
X-24945Y53624D01*
X-25214Y53158D01*
X-25241Y53083D01*
X-25495Y52751D01*
X-25785Y52051D01*
X-25884Y51300D01*
X-25785Y50549D01*
X-25495Y49849D01*
X-25490Y49843D01*
Y48757D01*
X-25495Y48751D01*
X-25785Y48051D01*
X-25884Y47300D01*
X-25785Y46549D01*
X-25495Y45849D01*
X-25490Y45842D01*
Y44758D01*
X-25495Y44751D01*
X-25785Y44051D01*
X-25884Y43300D01*
X-25785Y42549D01*
X-25495Y41849D01*
X-25490Y41842D01*
Y41756D01*
X-25490Y41754D01*
X-25490Y41747D01*
X-25490Y41741D01*
X-25491Y41735D01*
X-25490Y41732D01*
X-25491Y41623D01*
X-25455Y41408D01*
X-25386Y41201D01*
X-25386Y41201D01*
X-25284Y41008D01*
X-25218Y40921D01*
X-25218Y40921D01*
X-23911Y40570D01*
X-23732Y40496D01*
X-23543Y40471D01*
X-23541Y40471D01*
X-20157Y39686D01*
X-16747Y39018D01*
X-13317Y38469D01*
X-11593Y38254D01*
X-11593Y38254D01*
X-11318Y38529D01*
X-11108Y38842D01*
X-10964Y39191D01*
X-10891Y39561D01*
X-10891Y39749D01*
X-10890Y39749D01*
Y42367D01*
X-10815Y42549D01*
X-10716Y43300D01*
X-10815Y44051D01*
X-10890Y44233D01*
Y46367D01*
X-10815Y46549D01*
X-10716Y47300D01*
X-10815Y48051D01*
X-10890Y48233D01*
X-10890Y50367D01*
X-10815Y50549D01*
X-10716Y51300D01*
X-10815Y52051D01*
X-10890Y52233D01*
Y52872D01*
X-10890Y52896D01*
X-10900Y52944D01*
X-10919Y52990D01*
X-10946Y53030D01*
X-10963Y53047D01*
X-10963Y53048D01*
X-10963Y53167D01*
X-10987Y53405D01*
X-11035Y53640D01*
X-11107Y53869D01*
X-11153Y53979D01*
X-11153Y53979D01*
X-12566D01*
X-12868Y54104D01*
X-13619Y54203D01*
D02*
G37*
G36*
X23881D02*
X21519D01*
X20768Y54104D01*
X20067Y53814D01*
X20065Y53812D01*
X18435Y53812D01*
X18432Y53814D01*
X17732Y54104D01*
X16981Y54203D01*
X14619D01*
X13868Y54104D01*
X13168Y53814D01*
X13165Y53812D01*
X12280D01*
X12212Y53671D01*
X12108Y53377D01*
X12043Y53091D01*
X12038Y53073D01*
X12038Y53073D01*
X12004Y52763D01*
X12004Y52607D01*
X11863Y52166D01*
X11815Y52051D01*
X11716Y51300D01*
X11815Y50549D01*
X12004Y50092D01*
Y48508D01*
X11815Y48051D01*
X11716Y47300D01*
X11815Y46549D01*
X12004Y46092D01*
Y44508D01*
X11815Y44051D01*
X11716Y43300D01*
X11815Y42549D01*
X12004Y42092D01*
Y39336D01*
X12004Y39207D01*
X12054Y38954D01*
X12119Y38798D01*
X12153Y38715D01*
X12153Y38715D01*
X12297Y38501D01*
X12388Y38410D01*
X12388Y38410D01*
X12714Y38083D01*
X14348Y38287D01*
X17600Y38800D01*
X20833Y39420D01*
X24045Y40145D01*
X25638Y40561D01*
X25638Y40561D01*
X25767Y40666D01*
X25971Y40929D01*
X26114Y41230D01*
X26187Y41555D01*
Y41578D01*
X26395Y41849D01*
X26685Y42549D01*
X26784Y43300D01*
X26685Y44051D01*
X26395Y44751D01*
X26187Y45022D01*
Y45578D01*
X26395Y45849D01*
X26685Y46549D01*
X26784Y47300D01*
X26685Y48051D01*
X26395Y48751D01*
X26187Y49022D01*
Y49578D01*
X26395Y49849D01*
X26685Y50549D01*
X26784Y51300D01*
X26685Y52051D01*
X26395Y52751D01*
X25969Y53307D01*
X25820Y53519D01*
X25806Y53548D01*
X25696Y53695D01*
X25695Y53696D01*
X25660Y53718D01*
X25595Y53731D01*
X25225Y53859D01*
X24632Y54104D01*
X23881Y54203D01*
D02*
G37*
G36*
X78740Y64603D02*
X77304Y64413D01*
X75966Y63859D01*
X74818Y62978D01*
X73936Y61829D01*
X73382Y60491D01*
X73193Y59055D01*
X73382Y57619D01*
X73936Y56281D01*
X74818Y55133D01*
X75966Y54251D01*
X77304Y53697D01*
X78740Y53508D01*
X80176Y53697D01*
X81514Y54251D01*
X82663Y55133D01*
X83544Y56281D01*
X84099Y57619D01*
X84288Y59055D01*
X84099Y60491D01*
X83544Y61829D01*
X82663Y62978D01*
X81514Y63859D01*
X80176Y64413D01*
X78740Y64603D01*
D02*
G37*
G36*
X-78740D02*
X-80176Y64413D01*
X-81514Y63859D01*
X-82663Y62978D01*
X-83544Y61829D01*
X-84099Y60491D01*
X-84288Y59055D01*
X-84099Y57619D01*
X-83544Y56281D01*
X-82663Y55133D01*
X-81514Y54251D01*
X-80176Y53697D01*
X-78740Y53508D01*
X-77304Y53697D01*
X-75966Y54251D01*
X-74818Y55133D01*
X-73936Y56281D01*
X-73382Y57619D01*
X-73193Y59055D01*
X-73382Y60491D01*
X-73936Y61829D01*
X-74818Y62978D01*
X-75966Y63859D01*
X-77304Y64413D01*
X-78740Y64603D01*
D02*
G37*
G36*
X7874Y53395D02*
X-7874D01*
X-8264Y53317D01*
X-8595Y53096D01*
X-8816Y52765D01*
X-8894Y52375D01*
Y42000D01*
X-8816Y41610D01*
X-8595Y41279D01*
X-8264Y41058D01*
X-7874Y40980D01*
X7874D01*
X8264Y41058D01*
X8595Y41279D01*
X8816Y41610D01*
X8894Y42000D01*
Y52375D01*
X8816Y52765D01*
X8595Y53096D01*
X8264Y53317D01*
X7874Y53395D01*
D02*
G37*
G36*
X21654Y31089D02*
X20740Y30969D01*
X19888Y30616D01*
X19157Y30055D01*
X18596Y29324D01*
X18244Y28473D01*
X18123Y27559D01*
X18244Y26645D01*
X18596Y25794D01*
X19157Y25063D01*
X19888Y24502D01*
X20740Y24149D01*
X21654Y24029D01*
X22567Y24149D01*
X23419Y24502D01*
X24150Y25063D01*
X24711Y25794D01*
X25063Y26645D01*
X25184Y27559D01*
X25063Y28473D01*
X24711Y29324D01*
X24150Y30055D01*
X23419Y30616D01*
X22567Y30969D01*
X21654Y31089D01*
D02*
G37*
G36*
X-7874Y11861D02*
X-8906Y11725D01*
X-9867Y11327D01*
X-10693Y10693D01*
X-11327Y9867D01*
X-11725Y8906D01*
X-11861Y7874D01*
X-11725Y6842D01*
X-11327Y5881D01*
X-10693Y5055D01*
X-9867Y4421D01*
X-8906Y4023D01*
X-7874Y3887D01*
X-6842Y4023D01*
X-5881Y4421D01*
X-5055Y5055D01*
X-4421Y5881D01*
X-4023Y6842D01*
X-3887Y7874D01*
X-4023Y8906D01*
X-4421Y9867D01*
X-5055Y10693D01*
X-5881Y11327D01*
X-6842Y11725D01*
X-7874Y11861D01*
D02*
G37*
G36*
X31496Y13421D02*
X30060Y13232D01*
X28722Y12678D01*
X27573Y11797D01*
X26692Y10648D01*
X26138Y9310D01*
X25949Y7874D01*
X26138Y6438D01*
X26692Y5100D01*
X27573Y3951D01*
X28722Y3070D01*
X30060Y2516D01*
X31496Y2327D01*
X32932Y2516D01*
X34270Y3070D01*
X35419Y3951D01*
X36300Y5100D01*
X36854Y6438D01*
X37043Y7874D01*
X36854Y9310D01*
X36300Y10648D01*
X35419Y11797D01*
X34270Y12678D01*
X32932Y13232D01*
X31496Y13421D01*
D02*
G37*
G36*
X-31496D02*
X-32932Y13232D01*
X-34270Y12678D01*
X-35419Y11797D01*
X-36300Y10648D01*
X-36854Y9310D01*
X-37043Y7874D01*
X-36854Y6438D01*
X-36300Y5100D01*
X-35419Y3951D01*
X-34270Y3070D01*
X-32932Y2516D01*
X-31496Y2327D01*
X-30060Y2516D01*
X-28722Y3070D01*
X-27573Y3951D01*
X-26692Y5100D01*
X-26138Y6438D01*
X-25949Y7874D01*
X-26138Y9310D01*
X-26692Y10648D01*
X-27573Y11797D01*
X-28722Y12678D01*
X-30060Y13232D01*
X-31496Y13421D01*
D02*
G37*
%LPD*%
D19*
X39370Y72835D02*
D03*
X-21654Y27559D02*
D03*
X66929Y173228D02*
D03*
X-66929Y106299D02*
D03*
X-39370Y200787D02*
D03*
D20*
X7874Y7874D02*
D03*
M02*
