G04*
G04 #@! TF.GenerationSoftware,Altium Limited,Altium Designer,22.10.1 (41)*
G04*
G04 Layer_Physical_Order=1*
G04 Layer_Color=255*
%FSLAX25Y25*%
%MOIN*%
G70*
G04*
G04 #@! TF.SameCoordinates,FB2E412C-4C94-422A-880B-86203416BC3E*
G04*
G04*
G04 #@! TF.FilePolarity,Positive*
G04*
G01*
G75*
%ADD16R,0.31000X0.10000*%
%ADD17C,0.08000*%
%ADD18O,0.05118X0.02756*%
%ADD19C,0.05000*%
%ADD20C,0.05906*%
G36*
X3258Y225358D02*
X9120Y224959D01*
X9189Y224952D01*
X15010Y224157D01*
X15079Y224145D01*
X20833Y222957D01*
X20900Y222940D01*
X26561Y221364D01*
X26627Y221343D01*
X32167Y219387D01*
X32232Y219361D01*
X37626Y217034D01*
X37689Y217004D01*
X42913Y214315D01*
X42974Y214281D01*
X48004Y211245D01*
X48062Y211207D01*
X52874Y207836D01*
X52930Y207794D01*
X57502Y204104D01*
X57555Y204059D01*
X61866Y200067D01*
X61916Y200018D01*
X65947Y195744D01*
X65993Y195692D01*
X69724Y191153D01*
X69766Y191098D01*
X73181Y186317D01*
X73220Y186259D01*
X76302Y181257D01*
X76337Y181197D01*
X79073Y175998D01*
X79104Y175935D01*
X81481Y170562D01*
X81507Y170498D01*
X83514Y164976D01*
X83536Y164909D01*
X85164Y159264D01*
X85181Y159197D01*
X86422Y153454D01*
X86434Y153385D01*
X87283Y147572D01*
X87291Y147503D01*
X87743Y141645D01*
X87746Y141575D01*
X87800Y135700D01*
X87798Y135630D01*
X87454Y129765D01*
X87447Y129696D01*
X86705Y123868D01*
X86694Y123799D01*
X85558Y118034D01*
X85543Y117966D01*
X84018Y112292D01*
X83998Y112226D01*
X82092Y106668D01*
X82068Y106603D01*
X79790Y101187D01*
X79760Y101124D01*
X77120Y95876D01*
X77087Y95814D01*
X74096Y90757D01*
X74059Y90698D01*
X70732Y85856D01*
X70691Y85799D01*
X67043Y81194D01*
X66998Y81140D01*
X63046Y76793D01*
X62998Y76743D01*
X58760Y72673D01*
X58709Y72626D01*
X54205Y68853D01*
X54150Y68810D01*
X49400Y65352D01*
X49343Y65313D01*
X44370Y62184D01*
X44309Y62149D01*
X39136Y59365D01*
X39073Y59334D01*
X33722Y56908D01*
X33658Y56881D01*
X28155Y54824D01*
X28089Y54802D01*
X25274Y53962D01*
X25053Y53930D01*
X24632Y54104D01*
X23881Y54203D01*
X21519D01*
X20768Y54104D01*
X20321Y53919D01*
X18179D01*
X17732Y54104D01*
X16981Y54203D01*
X14619D01*
X13868Y54104D01*
X13421Y53919D01*
X-12421D01*
X-12868Y54104D01*
X-13619Y54203D01*
X-15981D01*
X-16732Y54104D01*
X-17179Y53919D01*
X-19421D01*
X-19868Y54104D01*
X-20619Y54203D01*
X-22981D01*
X-23732Y54104D01*
X-24179Y53919D01*
X-24479D01*
X-24772Y53962D01*
X-27587Y54802D01*
X-27653Y54824D01*
X-33156Y56881D01*
X-33221Y56908D01*
X-38572Y59334D01*
X-38634Y59365D01*
X-43808Y62149D01*
X-43868Y62184D01*
X-48841Y65313D01*
X-48899Y65352D01*
X-53648Y68810D01*
X-53703Y68853D01*
X-58207Y72626D01*
X-58259Y72673D01*
X-62496Y76743D01*
X-62545Y76793D01*
X-66496Y81140D01*
X-66541Y81194D01*
X-70189Y85799D01*
X-70230Y85856D01*
X-73557Y90698D01*
X-73594Y90757D01*
X-76585Y95814D01*
X-76618Y95876D01*
X-79288Y101187D01*
X-81566Y106603D01*
X-81591Y106668D01*
X-83496Y112226D01*
X-83517Y112292D01*
X-85041Y117966D01*
X-85057Y118034D01*
X-86192Y123799D01*
X-86203Y123868D01*
X-86945Y129696D01*
X-86952Y129765D01*
X-87297Y135630D01*
X-87298Y135700D01*
X-87244Y141575D01*
X-87242Y141645D01*
X-86789Y147503D01*
X-86781Y147572D01*
X-85933Y153385D01*
X-85920Y153454D01*
X-84679Y159197D01*
X-84662Y159264D01*
X-83034Y164909D01*
X-83012Y164976D01*
X-81005Y170498D01*
X-80979Y170562D01*
X-78602Y175935D01*
X-78572Y175998D01*
X-75836Y181197D01*
X-75801Y181257D01*
X-72718Y186259D01*
X-72680Y186317D01*
X-69265Y191098D01*
X-69222Y191153D01*
X-65491Y195692D01*
X-65445Y195744D01*
X-61414Y200018D01*
X-61365Y200067D01*
X-57053Y204059D01*
X-57001Y204104D01*
X-52428Y207794D01*
X-52373Y207836D01*
X-47561Y211207D01*
X-47502Y211245D01*
X-42472Y214281D01*
X-42412Y214315D01*
X-37188Y217004D01*
X-37125Y217034D01*
X-31730Y219361D01*
X-31665Y219387D01*
X-26125Y221343D01*
X-26059Y221364D01*
X-20399Y222940D01*
X-20331Y222957D01*
X-14577Y224145D01*
X-14509Y224157D01*
X-8687Y224952D01*
X-8618Y224959D01*
X-2757Y225358D01*
X-2687Y225360D01*
X3188D01*
X3258Y225358D01*
D02*
G37*
G36*
X31143Y249777D02*
X31890Y249567D01*
X31890Y249567D01*
X31890Y249567D01*
X34883Y248727D01*
X40770Y246729D01*
X46542Y244419D01*
X52182Y241803D01*
X57674Y238889D01*
X63002Y235686D01*
X68152Y232202D01*
X73107Y228448D01*
X77855Y224434D01*
X82381Y220172D01*
X86673Y215673D01*
X90718Y210952D01*
X94505Y206021D01*
X98023Y200895D01*
X101261Y195588D01*
X104210Y190115D01*
X106863Y184492D01*
X109211Y178735D01*
X111248Y172861D01*
X112968Y166887D01*
X114366Y160829D01*
X115437Y154705D01*
X116180Y148532D01*
X116591Y142329D01*
X116670Y136112D01*
X116416Y129900D01*
X115830Y123711D01*
X114914Y117561D01*
X113671Y111470D01*
X112103Y105453D01*
X110216Y99530D01*
X108015Y93715D01*
X106929Y91255D01*
X106746Y90840D01*
X106742Y90831D01*
X106742Y90831D01*
X105739Y88560D01*
X103541Y84106D01*
X101154Y79751D01*
X98583Y75502D01*
X97208Y73434D01*
X57785Y1500D01*
X-56747D01*
X-96393Y73703D01*
X-96393Y73703D01*
X-96393D01*
X-98066Y76234D01*
X-101143Y81463D01*
X-103942Y86845D01*
X-106457Y92366D01*
X-108680Y98011D01*
X-110605Y103765D01*
X-112228Y109611D01*
X-113543Y115533D01*
X-114547Y121517D01*
X-115237Y127544D01*
X-115612Y133600D01*
X-115670Y139666D01*
X-115412Y145728D01*
X-114837Y151767D01*
X-113948Y157769D01*
X-112747Y163716D01*
X-111237Y169592D01*
X-109422Y175381D01*
X-107308Y181068D01*
X-104900Y186636D01*
X-102204Y192071D01*
X-99228Y197358D01*
X-95980Y202483D01*
X-92470Y207431D01*
X-88705Y212189D01*
X-84698Y216743D01*
X-80458Y221083D01*
X-75997Y225195D01*
X-71328Y229069D01*
X-66463Y232694D01*
X-61415Y236060D01*
X-56199Y239158D01*
X-50828Y241979D01*
X-45317Y244516D01*
X-39681Y246762D01*
X-33935Y248711D01*
X-31016Y249534D01*
X-31016Y249534D01*
X-31016Y249534D01*
X-30269Y249744D01*
X-28723Y249866D01*
X-27182Y249683D01*
X-25707Y249204D01*
X-24353Y248445D01*
X-23174Y247438D01*
X-22214Y246219D01*
X-21509Y244837D01*
X-21089Y243344D01*
X-20967Y241797D01*
X-21149Y240257D01*
X-21629Y238781D01*
X-22387Y237428D01*
X-23395Y236248D01*
X-24613Y235288D01*
X-25996Y234584D01*
X-26742Y234374D01*
X-26742Y234374D01*
X-29740Y233478D01*
X-35645Y231408D01*
X-41409Y228975D01*
X-47010Y226187D01*
X-52428Y223056D01*
X-57639Y219594D01*
X-62625Y215813D01*
X-67365Y211730D01*
X-71842Y207359D01*
X-76038Y202717D01*
X-79936Y197824D01*
X-83522Y192696D01*
X-86782Y187356D01*
X-89703Y181823D01*
X-92273Y176118D01*
X-94483Y170265D01*
X-96325Y164285D01*
X-97790Y158202D01*
X-98873Y152040D01*
X-99570Y145822D01*
X-99879Y139573D01*
X-99798Y133316D01*
X-99327Y127077D01*
X-98468Y120880D01*
X-97225Y114748D01*
X-95603Y108705D01*
X-93607Y102775D01*
X-91246Y96981D01*
X-88528Y91345D01*
X-85465Y85889D01*
X-82067Y80635D01*
X-78349Y75603D01*
X-74325Y70812D01*
X-70010Y66281D01*
X-65421Y62028D01*
X-60576Y58069D01*
X-55494Y54419D01*
X-50195Y51093D01*
X-44698Y48103D01*
X-39026Y45462D01*
X-33201Y43179D01*
X-27244Y41264D01*
X-21180Y39723D01*
X-15032Y38563D01*
X-8823Y37789D01*
X-2578Y37402D01*
X3679Y37405D01*
X9923Y37799D01*
X16131Y38580D01*
X22278Y39746D01*
X28341Y41294D01*
X34295Y43215D01*
X40118Y45504D01*
X45787Y48152D01*
X51280Y51147D01*
X56577Y54479D01*
X61655Y58134D01*
X66495Y62098D01*
X71080Y66356D01*
X75390Y70892D01*
X79409Y75687D01*
X83122Y80723D01*
X86513Y85981D01*
X89571Y91440D01*
X92283Y97079D01*
X94638Y102875D01*
X96627Y108807D01*
X98243Y114852D01*
X99480Y120985D01*
X100332Y127184D01*
X100796Y133423D01*
X100870Y139680D01*
X100555Y145929D01*
X99851Y152146D01*
X98761Y158307D01*
X97290Y164388D01*
X95442Y170366D01*
X93226Y176217D01*
X90649Y181919D01*
X87722Y187449D01*
X84457Y192786D01*
X80865Y197909D01*
X76961Y202799D01*
X72761Y207436D01*
X68279Y211802D01*
X63534Y215881D01*
X58545Y219656D01*
X53330Y223113D01*
X47909Y226238D01*
X42305Y229020D01*
X36538Y231447D01*
X30631Y233510D01*
X27632Y234403D01*
X26886Y234612D01*
X25502Y235315D01*
X24283Y236274D01*
X23274Y237452D01*
X22514Y238805D01*
X22033Y240280D01*
X21849Y241820D01*
X21969Y243367D01*
X22388Y244861D01*
X23091Y246244D01*
X24050Y247463D01*
X25229Y248472D01*
X26581Y249232D01*
X28056Y249713D01*
X29596Y249897D01*
X31143Y249777D01*
D02*
G37*
%LPC*%
G36*
X-38909Y204287D02*
X-39831D01*
X-40721Y204049D01*
X-41519Y203588D01*
X-42171Y202936D01*
X-42632Y202138D01*
X-42870Y201248D01*
Y200327D01*
X-42632Y199436D01*
X-42171Y198638D01*
X-41519Y197987D01*
X-40721Y197526D01*
X-39831Y197287D01*
X-38909D01*
X-38019Y197526D01*
X-37221Y197987D01*
X-36569Y198638D01*
X-36109Y199436D01*
X-35870Y200327D01*
Y201248D01*
X-36109Y202138D01*
X-36569Y202936D01*
X-37221Y203588D01*
X-38019Y204049D01*
X-38909Y204287D01*
D02*
G37*
G36*
X67390Y176728D02*
X66468D01*
X65578Y176490D01*
X64780Y176029D01*
X64128Y175377D01*
X63668Y174579D01*
X63429Y173689D01*
Y172768D01*
X63668Y171877D01*
X64128Y171079D01*
X64780Y170428D01*
X65578Y169967D01*
X66468Y169728D01*
X67390D01*
X68280Y169967D01*
X69078Y170428D01*
X69730Y171079D01*
X70191Y171877D01*
X70429Y172768D01*
Y173689D01*
X70191Y174579D01*
X69730Y175377D01*
X69078Y176029D01*
X68280Y176490D01*
X67390Y176728D01*
D02*
G37*
G36*
X-66468Y109799D02*
X-67390D01*
X-68280Y109561D01*
X-69078Y109100D01*
X-69730Y108448D01*
X-70191Y107650D01*
X-70429Y106760D01*
Y105838D01*
X-70191Y104948D01*
X-69730Y104150D01*
X-69078Y103498D01*
X-68280Y103038D01*
X-67390Y102799D01*
X-66468D01*
X-65578Y103038D01*
X-64780Y103498D01*
X-64128Y104150D01*
X-63668Y104948D01*
X-63429Y105838D01*
Y106760D01*
X-63668Y107650D01*
X-64128Y108448D01*
X-64780Y109100D01*
X-65578Y109561D01*
X-66468Y109799D01*
D02*
G37*
G36*
X39831Y76335D02*
X38909D01*
X38019Y76096D01*
X37221Y75635D01*
X36569Y74984D01*
X36109Y74186D01*
X35870Y73295D01*
Y72374D01*
X36109Y71484D01*
X36569Y70686D01*
X37221Y70034D01*
X38019Y69573D01*
X38909Y69335D01*
X39831D01*
X40721Y69573D01*
X41519Y70034D01*
X42171Y70686D01*
X42632Y71484D01*
X42870Y72374D01*
Y73295D01*
X42632Y74186D01*
X42171Y74984D01*
X41519Y75635D01*
X40721Y76096D01*
X39831Y76335D01*
D02*
G37*
G36*
X29134Y247280D02*
X27698Y247091D01*
X26360Y246536D01*
X25211Y245655D01*
X24330Y244506D01*
X23775Y243168D01*
X23586Y241732D01*
X23775Y240297D01*
X24330Y238959D01*
X25211Y237810D01*
X26360Y236928D01*
X27698Y236374D01*
X29134Y236185D01*
X30570Y236374D01*
X31908Y236928D01*
X33057Y237810D01*
X33938Y238959D01*
X34492Y240297D01*
X34681Y241732D01*
X34492Y243168D01*
X33938Y244506D01*
X33057Y245655D01*
X31908Y246536D01*
X30570Y247091D01*
X29134Y247280D01*
D02*
G37*
G36*
X-29134D02*
X-30570Y247091D01*
X-31908Y246536D01*
X-33057Y245655D01*
X-33938Y244506D01*
X-34492Y243168D01*
X-34681Y241732D01*
X-34492Y240297D01*
X-33938Y238959D01*
X-33057Y237810D01*
X-31908Y236928D01*
X-30570Y236374D01*
X-29134Y236185D01*
X-27698Y236374D01*
X-26360Y236928D01*
X-25211Y237810D01*
X-24330Y238959D01*
X-23775Y240297D01*
X-23586Y241732D01*
X-23775Y243168D01*
X-24330Y244506D01*
X-25211Y245655D01*
X-26360Y246536D01*
X-27698Y247091D01*
X-29134Y247280D01*
D02*
G37*
G36*
X108268Y143343D02*
X106832Y143154D01*
X105494Y142599D01*
X104345Y141718D01*
X103463Y140569D01*
X102909Y139231D01*
X102720Y137795D01*
X102909Y136360D01*
X103463Y135022D01*
X104345Y133873D01*
X105494Y132991D01*
X106832Y132437D01*
X108268Y132248D01*
X109704Y132437D01*
X111041Y132991D01*
X112190Y133873D01*
X113072Y135022D01*
X113626Y136360D01*
X113815Y137795D01*
X113626Y139231D01*
X113072Y140569D01*
X112190Y141718D01*
X111041Y142599D01*
X109704Y143154D01*
X108268Y143343D01*
D02*
G37*
G36*
X-108268D02*
X-109704Y143154D01*
X-111041Y142599D01*
X-112190Y141718D01*
X-113072Y140569D01*
X-113626Y139231D01*
X-113815Y137795D01*
X-113626Y136360D01*
X-113072Y135022D01*
X-112190Y133873D01*
X-111041Y132991D01*
X-109704Y132437D01*
X-108268Y132248D01*
X-106832Y132437D01*
X-105494Y132991D01*
X-104345Y133873D01*
X-103463Y135022D01*
X-102909Y136360D01*
X-102720Y137795D01*
X-102909Y139231D01*
X-103463Y140569D01*
X-104345Y141718D01*
X-105494Y142599D01*
X-106832Y143154D01*
X-108268Y143343D01*
D02*
G37*
G36*
X78740Y64603D02*
X77304Y64413D01*
X75966Y63859D01*
X74818Y62978D01*
X73936Y61829D01*
X73382Y60491D01*
X73193Y59055D01*
X73382Y57619D01*
X73936Y56281D01*
X74818Y55133D01*
X75966Y54251D01*
X77304Y53697D01*
X78740Y53508D01*
X80176Y53697D01*
X81514Y54251D01*
X82663Y55133D01*
X83544Y56281D01*
X84099Y57619D01*
X84288Y59055D01*
X84099Y60491D01*
X83544Y61829D01*
X82663Y62978D01*
X81514Y63859D01*
X80176Y64413D01*
X78740Y64603D01*
D02*
G37*
G36*
X-78740D02*
X-80176Y64413D01*
X-81514Y63859D01*
X-82663Y62978D01*
X-83544Y61829D01*
X-84099Y60491D01*
X-84288Y59055D01*
X-84099Y57619D01*
X-83544Y56281D01*
X-82663Y55133D01*
X-81514Y54251D01*
X-80176Y53697D01*
X-78740Y53508D01*
X-77304Y53697D01*
X-75966Y54251D01*
X-74818Y55133D01*
X-73936Y56281D01*
X-73382Y57619D01*
X-73193Y59055D01*
X-73382Y60491D01*
X-73936Y61829D01*
X-74818Y62978D01*
X-75966Y63859D01*
X-77304Y64413D01*
X-78740Y64603D01*
D02*
G37*
G36*
X-21654Y31089D02*
X-22567Y30969D01*
X-23419Y30616D01*
X-24150Y30055D01*
X-24711Y29324D01*
X-25063Y28473D01*
X-25184Y27559D01*
X-25063Y26645D01*
X-24711Y25794D01*
X-24150Y25063D01*
X-23419Y24502D01*
X-22567Y24149D01*
X-21654Y24029D01*
X-20740Y24149D01*
X-19888Y24502D01*
X-19157Y25063D01*
X-18596Y25794D01*
X-18244Y26645D01*
X-18123Y27559D01*
X-18244Y28473D01*
X-18596Y29324D01*
X-19157Y30055D01*
X-19888Y30616D01*
X-20740Y30969D01*
X-21654Y31089D01*
D02*
G37*
G36*
X7874Y11861D02*
X6842Y11725D01*
X5881Y11327D01*
X5055Y10693D01*
X4421Y9867D01*
X4023Y8906D01*
X3887Y7874D01*
X4023Y6842D01*
X4421Y5881D01*
X5055Y5055D01*
X5881Y4421D01*
X6842Y4023D01*
X7874Y3887D01*
X8906Y4023D01*
X9867Y4421D01*
X10693Y5055D01*
X11327Y5881D01*
X11725Y6842D01*
X11861Y7874D01*
X11725Y8906D01*
X11327Y9867D01*
X10693Y10693D01*
X9867Y11327D01*
X8906Y11725D01*
X7874Y11861D01*
D02*
G37*
G36*
X31496Y13421D02*
X30060Y13232D01*
X28722Y12678D01*
X27573Y11797D01*
X26692Y10648D01*
X26138Y9310D01*
X25949Y7874D01*
X26138Y6438D01*
X26692Y5100D01*
X27573Y3951D01*
X28722Y3070D01*
X30060Y2516D01*
X31496Y2327D01*
X32932Y2516D01*
X34270Y3070D01*
X35419Y3951D01*
X36300Y5100D01*
X36854Y6438D01*
X37043Y7874D01*
X36854Y9310D01*
X36300Y10648D01*
X35419Y11797D01*
X34270Y12678D01*
X32932Y13232D01*
X31496Y13421D01*
D02*
G37*
G36*
X-31496D02*
X-32932Y13232D01*
X-34270Y12678D01*
X-35419Y11797D01*
X-36300Y10648D01*
X-36854Y9310D01*
X-37043Y7874D01*
X-36854Y6438D01*
X-36300Y5100D01*
X-35419Y3951D01*
X-34270Y3070D01*
X-32932Y2516D01*
X-31496Y2327D01*
X-30060Y2516D01*
X-28722Y3070D01*
X-27573Y3951D01*
X-26692Y5100D01*
X-26138Y6438D01*
X-25949Y7874D01*
X-26138Y9310D01*
X-26692Y10648D01*
X-27573Y11797D01*
X-28722Y12678D01*
X-30060Y13232D01*
X-31496Y13421D01*
D02*
G37*
%LPD*%
D16*
X0Y300000D02*
D03*
D17*
X-31496Y7874D02*
D03*
X31496D02*
D03*
X78740Y59055D02*
D03*
X-78740D02*
D03*
X108268Y137795D02*
D03*
X-108268D02*
D03*
X-29134Y241732D02*
D03*
X29134D02*
D03*
D18*
X-14800Y43300D02*
D03*
D03*
D03*
D03*
X-21800D02*
D03*
D03*
Y47300D02*
D03*
D03*
D03*
Y43300D02*
D03*
D03*
Y47300D02*
D03*
Y51300D02*
D03*
X-14800Y47300D02*
D03*
Y51300D02*
D03*
X15800Y43300D02*
D03*
D03*
D03*
D03*
X22700D02*
D03*
D03*
D03*
D03*
X-14800Y47300D02*
D03*
D03*
D03*
X15800D02*
D03*
D03*
D03*
D03*
X22700D02*
D03*
D03*
D03*
D03*
Y51300D02*
D03*
X15800D02*
D03*
X-21800D02*
D03*
D03*
D03*
X-14800D02*
D03*
D03*
D03*
X15800D02*
D03*
D03*
D03*
X22700D02*
D03*
D03*
D03*
D19*
X39370Y72835D02*
D03*
X-39370D02*
D03*
X-21654Y27559D02*
D03*
X21654D02*
D03*
X66929Y106299D02*
D03*
Y173228D02*
D03*
X39370Y200787D02*
D03*
X-66929Y106299D02*
D03*
X-39370Y200787D02*
D03*
X-66929Y173228D02*
D03*
D20*
X-7874Y7874D02*
D03*
X7874D02*
D03*
M02*
