%FSTAX23Y23*%
%MOIN*%
%SFA1B1*%

%IPPOS*%
%ADD15C,0.050000*%
%ADD16C,0.059060*%
%LNtransdutir_alinhado-1*%
%LPD*%
G36*
X00309Y02498D02*
X00317Y02496D01*
X00347Y02488*
X00406Y02468*
X00463Y02445*
X0052Y02419*
X00575Y02389*
X00628Y02357*
X00679Y02323*
X00729Y02285*
X00776Y02245*
X00822Y02202*
X00865Y02157*
X00905Y0211*
X00943Y02061*
X00978Y02009*
X0101Y01956*
X0104Y01902*
X01066Y01845*
X0109Y01788*
X0111Y01729*
X01128Y01669*
X01141Y01609*
X01152Y01548*
X0116Y01486*
X01164Y01424*
X01165Y01362*
X01162Y013*
X01156Y01238*
X01147Y01176*
X01135Y01115*
X01119Y01055*
X011Y00996*
X01078Y00938*
X01065Y00909*
X01065Y00909*
X01057Y00891*
X01039Y00854*
X0102Y00817*
X01Y00782*
X00989Y00764*
X00578Y00015*
X-00568*
X-00965Y00738*
X-00982Y00763*
X-01013Y00815*
X-01041Y00869*
X-01066Y00924*
X-01088Y00981*
X-01107Y01038*
X-01123Y01097*
X-01137Y01156*
X-01147Y01216*
X-01154Y01276*
X-01157Y01337*
X-01158Y01397*
X-01155Y01458*
X-0115Y01518*
X-01141Y01578*
X-01129Y01638*
X-01114Y01696*
X-01095Y01754*
X-01074Y01811*
X-0105Y01867*
X-01023Y01921*
X-00993Y01974*
X-00961Y02025*
X-00926Y02075*
X-00888Y02122*
X-00848Y02168*
X-00806Y02211*
X-00761Y02252*
X-00714Y02291*
X-00666Y02327*
X-00615Y02361*
X-00563Y02392*
X-00509Y0242*
X-00454Y02446*
X-00398Y02468*
X-00341Y02488*
X-00311Y02496*
X-00304Y02498*
X-00288Y02499*
X-00273Y02497*
X-00258Y02493*
X-00245Y02485*
X-00233Y02475*
X-00223Y02463*
X-00216Y02449*
X-00212Y02434*
X-00211Y02419*
X-00213Y02403*
X-00217Y02388*
X-00225Y02375*
X-00235Y02363*
X-00247Y02353*
X-00261Y02346*
X-00269Y02344*
Y02344*
X-00297Y02336*
X-00352Y02317*
X-00406Y02295*
X-00459Y02269*
X-0051Y02241*
X-00559Y02209*
X-00606Y02175*
X-00652Y02138*
X-00695Y02099*
X-00736Y02057*
X-00774Y02013*
X-0081Y01966*
X-00842Y01918*
X-00873Y01868*
X-009Y01816*
X-00923Y01763*
X-00944Y01708*
X-00962Y01652*
X-00976Y01596*
X-00987Y01538*
X-00995Y0148*
X-00999Y01422*
X-01Y01364*
X-00997Y01305*
X-00992Y01247*
X-00982Y01189*
X-0097Y01132*
X-00954Y01076*
X-00934Y01021*
X-00912Y00967*
X-00887Y00914*
X-00858Y00863*
X-00827Y00814*
X-00792Y00766*
X-00755Y00721*
X-00716Y00678*
X-00674Y00637*
X-0063Y00599*
X-00583Y00564*
X-00535Y00531*
X-00485Y00501*
X-00433Y00474*
X-00379Y0045*
X-00325Y00429*
X-00297Y0042*
X-00296Y00421*
X-00295Y00421*
X-00293Y00424*
X-00291Y00427*
X-0029Y00431*
X-00289Y00433*
Y00554*
X-00329Y00569*
X-0033Y00569*
X-00383Y00593*
X-00384Y00594*
X-00435Y00621*
X-00436Y00622*
X-00486Y00653*
X-00486Y00653*
X-00534Y00688*
X-00534Y00688*
X-00579Y00726*
X-0058Y00727*
X-00622Y00767*
X-00623Y00768*
X-00662Y00811*
X-00663Y00812*
X-00699Y00858*
X-007Y00858*
X-00733Y00907*
X-00733Y00907*
X-00763Y00958*
X-00764Y00959*
X-0079Y01012*
X-00813Y01066*
X-00813Y01067*
X-00832Y01122*
X-00833Y01123*
X-00848Y0118*
X-00848Y0118*
X-00859Y01238*
X-00859Y01239*
X-00867Y01297*
X-00867Y01298*
X-0087Y01356*
X-0087Y01357*
X-0087Y01416*
X-0087Y01416*
X-00865Y01475*
X-00865Y01476*
X-00857Y01534*
X-00857Y01534*
X-00844Y01592*
X-00844Y01593*
X-00828Y01649*
X-00828Y0165*
X-00807Y01705*
X-00807Y01706*
X-00783Y01759*
X-00783Y0176*
X-00756Y01812*
X-00755Y01812*
X-00725Y01862*
X-00724Y01863*
X-0069Y01911*
X-0069Y01911*
X-00652Y01957*
X-00652Y01957*
X-00612Y02*
X-00611Y02001*
X-00568Y0204*
X-00567Y02041*
X-00522Y02078*
X-00521Y02078*
X-00473Y02112*
X-00472Y02112*
X-00422Y02143*
X-00422Y02143*
X-00369Y0217*
X-00369Y0217*
X-00315Y02193*
X-00314Y02194*
X-00259Y02213*
X-00258Y02214*
X-00201Y02229*
X-00201Y02229*
X-00143Y02241*
X-00142Y02241*
X-00084Y02249*
X-00084Y02249*
X-00025Y02253*
X-00024Y02253*
X00033*
X00034Y02253*
X00093Y02249*
X00093Y02249*
X00152Y02241*
X00152Y02241*
X0021Y02229*
X00211Y02229*
X00267Y02214*
X00268Y02213*
X00323Y02194*
X00324Y02193*
X00378Y0217*
X00378Y0217*
X00431Y02143*
X00431Y02143*
X00482Y02112*
X00482Y02112*
X0053Y02078*
X00531Y02078*
X00577Y02041*
X00577Y0204*
X0062Y02001*
X00621Y02*
X00661Y01957*
X00662Y01957*
X00699Y01911*
X00699Y01911*
X00733Y01863*
X00734Y01862*
X00765Y01812*
X00765Y01812*
X00792Y0176*
X00793Y01759*
X00816Y01706*
X00817Y01705*
X00837Y0165*
X00837Y01649*
X00853Y01593*
X00853Y01592*
X00866Y01534*
X00866Y01534*
X00874Y01476*
X00875Y01475*
X00879Y01416*
X00879Y01416*
X0088Y01357*
X0088Y01356*
X00876Y01298*
X00876Y01297*
X00869Y01239*
X00869Y01238*
X00857Y0118*
X00857Y0118*
X00842Y01123*
X00842Y01122*
X00823Y01067*
X00822Y01066*
X00799Y01012*
X00799Y01011*
X00773Y00959*
X00772Y00958*
X00743Y00907*
X00742Y00907*
X00709Y00858*
X00709Y00858*
X00672Y00812*
X00672Y00811*
X00632Y00768*
X00632Y00767*
X00589Y00727*
X00589Y00726*
X00544Y00688*
X00543Y00688*
X00496Y00653*
X00495Y00653*
X00445Y00622*
X00445Y00621*
X00393Y00594*
X00392Y00593*
X00339Y00569*
X00338Y00569*
X00292Y00551*
Y00432*
Y00432*
X00292Y0043*
X00293Y00426*
X00295Y00423*
X00298Y0042*
X003Y00419*
X00304Y00421*
X00304Y00421*
X00328Y00428*
X00383Y00449*
X00436Y00472*
X00488Y00499*
X00539Y00529*
X00587Y00562*
X00634Y00597*
X00678Y00635*
X00721Y00676*
X0076Y00719*
X00797Y00764*
X00832Y00812*
X00863Y00861*
X00892Y00912*
X00918Y00965*
X0094Y01019*
X0096Y01074*
X00976Y0113*
X00988Y01188*
X00998Y01245*
X01004Y01304*
X01007Y01362*
X01006Y01421*
X01002Y01479*
X00994Y01537*
X00983Y01595*
X00969Y01652*
X00951Y01707*
X0093Y01762*
X00906Y01816*
X00879Y01868*
X00849Y01918*
X00816Y01966*
X00781Y02013*
X00742Y02057*
X00701Y02099*
X00658Y02138*
X00613Y02175*
X00565Y0221*
X00516Y02241*
X00465Y02269*
X00412Y02295*
X00358Y02317*
X00302Y02336*
X00274Y02345*
X00267Y02347*
X00253Y02354*
X00241Y02363*
X00231Y02375*
X00223Y02389*
X00218Y02403*
X00216Y02419*
X00218Y02434*
X00222Y02449*
X00229Y02463*
X00238Y02475*
X0025Y02485*
X00264Y02493*
X00278Y02498*
X00294Y025*
X00309Y02498*
G37*
%LNtransdutir_alinhado-2*%
%LPC*%
G36*
X00291Y02472D02*
X00276Y0247D01*
X00263Y02465*
X00252Y02456*
X00243Y02445*
X00237Y02431*
X00235Y02417*
X00237Y02402*
X00243Y02389*
X00252Y02378*
X00263Y02369*
X00276Y02363*
X00291Y02361*
X00305Y02363*
X00319Y02369*
X0033Y02378*
X00339Y02389*
X00344Y02402*
X00346Y02417*
X00344Y02431*
X00339Y02445*
X0033Y02456*
X00319Y02465*
X00305Y0247*
X00291Y02472*
G37*
G36*
X-00291D02*
X-00305Y0247D01*
X-00319Y02465*
X-0033Y02456*
X-00339Y02445*
X-00344Y02431*
X-00346Y02417*
X-00344Y02402*
X-00339Y02389*
X-0033Y02378*
X-00319Y02369*
X-00305Y02363*
X-00291Y02361*
X-00276Y02363*
X-00263Y02369*
X-00252Y02378*
X-00243Y02389*
X-00237Y02402*
X-00235Y02417*
X-00237Y02431*
X-00243Y02445*
X-00252Y02456*
X-00263Y02465*
X-00276Y0247*
X-00291Y02472*
G37*
G36*
X-00393Y02043D02*
X-00402Y02041D01*
X-00411Y02038*
X-00418Y02032*
X-00424Y02025*
X-00427Y02017*
X-00429Y02007*
X-00427Y01998*
X-00424Y0199*
X-00418Y01982*
X-00411Y01977*
X-00402Y01973*
X-00393Y01972*
X-00384Y01973*
X-00376Y01977*
X-00368Y01982*
X-00363Y0199*
X-00359Y01998*
X-00358Y02007*
X-00359Y02017*
X-00363Y02025*
X-00368Y02032*
X-00376Y02038*
X-00384Y02041*
X-00393Y02043*
G37*
G36*
X00669Y01767D02*
X0066Y01766D01*
X00651Y01762*
X00644Y01757*
X00638Y01749*
X00635Y01741*
X00633Y01732*
X00635Y01723*
X00638Y01714*
X00644Y01707*
X00651Y01701*
X0066Y01698*
X00669Y01696*
X00678Y01698*
X00686Y01701*
X00694Y01707*
X00699Y01714*
X00703Y01723*
X00704Y01732*
X00703Y01741*
X00699Y01749*
X00694Y01757*
X00686Y01762*
X00678Y01766*
X00669Y01767*
G37*
G36*
X01082Y01433D02*
X01068Y01431D01*
X01054Y01425*
X01043Y01417*
X01034Y01405*
X01029Y01392*
X01027Y01377*
X01029Y01363*
X01034Y0135*
X01043Y01338*
X01054Y01329*
X01068Y01324*
X01082Y01322*
X01097Y01324*
X0111Y01329*
X01121Y01338*
X0113Y0135*
X01136Y01363*
X01138Y01377*
X01136Y01392*
X0113Y01405*
X01121Y01417*
X0111Y01425*
X01097Y01431*
X01082Y01433*
G37*
G36*
X-01082D02*
X-01097Y01431D01*
X-0111Y01425*
X-01121Y01417*
X-0113Y01405*
X-01136Y01392*
X-01138Y01377*
X-01136Y01363*
X-0113Y0135*
X-01121Y01338*
X-0111Y01329*
X-01097Y01324*
X-01082Y01322*
X-01068Y01324*
X-01054Y01329*
X-01043Y01338*
X-01034Y0135*
X-01029Y01363*
X-01027Y01377*
X-01029Y01392*
X-01034Y01405*
X-01043Y01417*
X-01054Y01425*
X-01068Y01431*
X-01082Y01433*
G37*
G36*
X-00669Y01098D02*
X-00678Y01097D01*
X-00686Y01093*
X-00694Y01087*
X-00699Y0108*
X-00703Y01072*
X-00704Y01062*
X-00703Y01053*
X-00699Y01045*
X-00694Y01038*
X-00686Y01032*
X-00678Y01028*
X-00669Y01027*
X-0066Y01028*
X-00651Y01032*
X-00644Y01038*
X-00638Y01045*
X-00635Y01053*
X-00633Y01062*
X-00635Y01072*
X-00638Y0108*
X-00644Y01087*
X-00651Y01093*
X-0066Y01097*
X-00669Y01098*
G37*
G36*
X00393Y00763D02*
X00384Y00762D01*
X00376Y00758*
X00368Y00753*
X00363Y00746*
X00359Y00737*
X00358Y00728*
X00359Y00719*
X00363Y0071*
X00368Y00703*
X00376Y00697*
X00384Y00694*
X00393Y00693*
X00402Y00694*
X00411Y00697*
X00418Y00703*
X00424Y0071*
X00427Y00719*
X00429Y00728*
X00427Y00737*
X00424Y00746*
X00418Y00753*
X00411Y00758*
X00402Y00762*
X00393Y00763*
G37*
G36*
X-00136Y00542D02*
X-00159D01*
X-00167Y00541*
X-0017Y00539*
X-00195*
X-00198Y00541*
X-00206Y00542*
X-00229*
X-00237Y00541*
X-00239Y00539*
X-0024Y0054*
X-00241Y00539*
X-00243Y00539*
X-00245Y00539*
X-00247Y00538*
X-00248Y00538*
X-0025Y00536*
X-00251Y00534*
X-00251Y00534*
X-00253Y00531*
X-00254Y00528*
X-00254Y00527*
X-00257Y0052*
X-00258Y00513*
X-00257Y00505*
X-00255Y005*
Y00485*
X-00257Y0048*
X-00258Y00473*
X-00257Y00465*
X-00255Y0046*
Y00445*
X-00257Y0044*
X-00258Y00433*
X-00257Y00425*
X-00255Y0042*
Y00417*
Y00417*
X-00255Y00417*
Y00417*
Y00417*
Y00417*
Y00416*
X-00255Y00414*
X-00254Y00412*
X-00253Y0041*
X-00253Y00409*
X-00253*
X-00236Y00404*
X-00202Y00396*
X-00168Y0039*
X-00134Y00384*
X-00116Y00382*
X-00114Y00385*
X-00112Y00388*
X-0011Y00391*
X-00109Y00395*
Y00397*
X-00109*
Y00421*
X-00108Y00425*
X-00107Y00433*
X-00108Y0044*
X-00109Y00444*
Y00461*
X-00108Y00465*
X-00107Y00473*
X-00108Y0048*
X-00109Y00484*
Y00501*
X-00108Y00505*
X-00107Y00513*
X-00108Y0052*
X-00109Y00524*
Y00528*
Y00528*
X-0011Y00529*
X-0011Y00529*
X-0011Y0053*
X-0011Y0053*
Y00531*
X-0011Y00534*
X-00111Y00536*
X-00112Y00538*
X-00112Y00539*
X-00125*
X-00128Y00541*
X-00136Y00542*
G37*
G36*
X00238D02*
X00215D01*
X00207Y00541*
X002Y00538*
X002Y00538*
X00184*
X00184Y00538*
X00177Y00541*
X00169Y00542*
X00146*
X00138Y00541*
X00131Y00538*
X00131Y00538*
X00122*
X00121Y00536*
X0012Y00533*
X00119Y0053*
X00119Y00527*
Y00525*
Y00523*
X00118Y0052*
X00117Y00513*
X00118Y00505*
X00119Y00502*
Y00483*
X00118Y0048*
X00117Y00473*
X00118Y00465*
X00119Y00462*
Y00443*
X00118Y0044*
X00117Y00433*
X00118Y00425*
X00119Y00422*
Y00393*
Y00391*
X0012Y00389*
X00121Y00387*
X00122Y00384*
X00123Y00384*
X00126Y0038*
X00143Y00382*
X00175Y00387*
X00207Y00394*
X00239Y00401*
X00251Y00404*
X00251Y00404*
X00255Y00405*
X00257Y00406*
X00259Y00409*
X0026Y00412*
X00261Y00415*
X00263Y00418*
X00266Y00425*
X00267Y00433*
X00266Y0044*
X00263Y00447*
X00261Y0045*
Y00455*
X00263Y00458*
X00266Y00465*
X00267Y00473*
X00266Y0048*
X00263Y00487*
X00261Y0049*
Y00495*
X00263Y00498*
X00266Y00505*
X00267Y00513*
X00266Y0052*
X00263Y00527*
X00259Y00533*
X00259Y00533*
X00258Y00534*
X00256Y00537*
X00256*
X00251Y00538*
X00246Y00541*
X00238Y00542*
G37*
G36*
X00787Y00646D02*
X00773Y00644D01*
X00759Y00638*
X00748Y00629*
X00739Y00618*
X00733Y00604*
X00731Y0059*
X00733Y00576*
X00739Y00562*
X00748Y00551*
X00759Y00542*
X00773Y00536*
X00787Y00535*
X00801Y00536*
X00815Y00542*
X00826Y00551*
X00835Y00562*
X0084Y00576*
X00842Y0059*
X0084Y00604*
X00835Y00618*
X00826Y00629*
X00815Y00638*
X00801Y00644*
X00787Y00646*
G37*
G36*
X-00787D02*
X-00801Y00644D01*
X-00815Y00638*
X-00826Y00629*
X-00835Y00618*
X-0084Y00604*
X-00842Y0059*
X-0084Y00576*
X-00835Y00562*
X-00826Y00551*
X-00815Y00542*
X-00801Y00536*
X-00787Y00535*
X-00773Y00536*
X-00759Y00542*
X-00748Y00551*
X-00739Y00562*
X-00733Y00576*
X-00731Y0059*
X-00733Y00604*
X-00739Y00618*
X-00748Y00629*
X-00759Y00638*
X-00773Y00644*
X-00787Y00646*
G37*
G36*
X00078Y00533D02*
X-00078D01*
X-00082Y00533*
X-00085Y0053*
X-00088Y00527*
X-00088Y00523*
Y0042*
X-00088Y00416*
X-00085Y00412*
X-00082Y0041*
X-00078Y00409*
X00078*
X00082Y0041*
X00085Y00412*
X00088Y00416*
X00088Y0042*
Y00523*
X00088Y00527*
X00085Y0053*
X00082Y00533*
X00078Y00533*
G37*
G36*
X-00216Y0031D02*
X-00225Y00309D01*
X-00234Y00306*
X-00241Y003*
X-00247Y00293*
X-0025Y00284*
X-00251Y00275*
X-0025Y00266*
X-00247Y00257*
X-00241Y0025*
X-00234Y00245*
X-00225Y00241*
X-00216Y0024*
X-00207Y00241*
X-00198Y00245*
X-00191Y0025*
X-00185Y00257*
X-00182Y00266*
X-00181Y00275*
X-00182Y00284*
X-00185Y00293*
X-00191Y003*
X-00198Y00306*
X-00207Y00309*
X-00216Y0031*
G37*
G36*
X00078Y00118D02*
X00068Y00117D01*
X00058Y00113*
X0005Y00106*
X00044Y00098*
X0004Y00089*
X00038Y00078*
X0004Y00068*
X00044Y00058*
X0005Y0005*
X00058Y00044*
X00068Y0004*
X00078Y00038*
X00089Y0004*
X00098Y00044*
X00106Y0005*
X00113Y00058*
X00117Y00068*
X00118Y00078*
X00117Y00089*
X00113Y00098*
X00106Y00106*
X00098Y00113*
X00089Y00117*
X00078Y00118*
G37*
G36*
X00314Y00134D02*
X003Y00132D01*
X00287Y00126*
X00275Y00117*
X00266Y00106*
X00261Y00093*
X00259Y00078*
X00261Y00064*
X00266Y00051*
X00275Y00039*
X00287Y0003*
X003Y00025*
X00314Y00023*
X00329Y00025*
X00342Y0003*
X00354Y00039*
X00363Y00051*
X00368Y00064*
X0037Y00078*
X00368Y00093*
X00363Y00106*
X00354Y00117*
X00342Y00126*
X00329Y00132*
X00314Y00134*
G37*
G36*
X-00314D02*
X-00329Y00132D01*
X-00342Y00126*
X-00354Y00117*
X-00363Y00106*
X-00368Y00093*
X-0037Y00078*
X-00368Y00064*
X-00363Y00051*
X-00354Y00039*
X-00342Y0003*
X-00329Y00025*
X-00314Y00023*
X-003Y00025*
X-00287Y0003*
X-00275Y00039*
X-00266Y00051*
X-00261Y00064*
X-00259Y00078*
X-00261Y00093*
X-00266Y00106*
X-00275Y00117*
X-00287Y00126*
X-003Y00132*
X-00314Y00134*
G37*
%LNtransdutir_alinhado-3*%
%LPD*%
G54D15*
X-00393Y00728D03*
X00216Y00275D03*
X00669Y01062D03*
X00393Y02007D03*
X-00669Y01732D03*
G54D16*
X-00078Y00078D03*
M02*