%FSTAX23Y23*%
%MOIN*%
%SFA1B1*%

%IPPOS*%
%ADD12R,0.310000X0.100000*%
%ADD13C,0.080000*%
%ADD14O,0.051180X0.027560*%
%ADD15C,0.050000*%
%ADD16C,0.059060*%
%LNtransdutir_alinhado-1*%
%LPD*%
G36*
X00032Y02253D02*
X00091Y02249D01*
X00091Y02249*
X0015Y02241*
X0015Y02241*
X00208Y02229*
X00209Y02229*
X00265Y02213*
X00266Y02213*
X00321Y02193*
X00322Y02193*
X00376Y0217*
X00376Y0217*
X00429Y02143*
X00429Y02142*
X0048Y02112*
X0048Y02112*
X00528Y02078*
X00529Y02077*
X00575Y02041*
X00575Y0204*
X00618Y02*
X00619Y02*
X00659Y01957*
X00659Y01956*
X00697Y01911*
X00697Y0191*
X00731Y01863*
X00732Y01862*
X00763Y01812*
X00763Y01811*
X0079Y01759*
X00791Y01759*
X00814Y01705*
X00815Y01704*
X00835Y01649*
X00835Y01649*
X00851Y01592*
X00851Y01591*
X00864Y01534*
X00864Y01533*
X00872Y01475*
X00872Y01475*
X00877Y01416*
X00877Y01415*
X00878Y01357*
X00877Y01356*
X00874Y01297*
X00874Y01296*
X00867Y01238*
X00866Y01237*
X00855Y0118*
X00855Y01179*
X0084Y01122*
X00839Y01122*
X0082Y01066*
X0082Y01066*
X00797Y01011*
X00797Y01011*
X00771Y00958*
X0077Y00958*
X0074Y00907*
X0074Y00906*
X00707Y00858*
X00706Y00857*
X0067Y00811*
X00669Y00811*
X0063Y00767*
X00629Y00767*
X00587Y00726*
X00587Y00726*
X00542Y00688*
X00541Y00688*
X00494Y00653*
X00493Y00653*
X00443Y00621*
X00443Y00621*
X00391Y00593*
X0039Y00593*
X00337Y00569*
X00336Y00568*
X00281Y00548*
X0028Y00548*
X00252Y00539*
X0025Y00539*
X00246Y00541*
X00238Y00542*
X00215*
X00207Y00541*
X00203Y00539*
X00181*
X00177Y00541*
X00169Y00542*
X00146*
X00138Y00541*
X00134Y00539*
X-00124*
X-00128Y00541*
X-00136Y00542*
X-00159*
X-00167Y00541*
X-00171Y00539*
X-00194*
X-00198Y00541*
X-00206Y00542*
X-00229*
X-00237Y00541*
X-00241Y00539*
X-00244*
X-00247Y00539*
X-00275Y00548*
X-00276Y00548*
X-00331Y00568*
X-00332Y00569*
X-00385Y00593*
X-00386Y00593*
X-00438Y00621*
X-00438Y00621*
X-00488Y00653*
X-00488Y00653*
X-00536Y00688*
X-00537Y00688*
X-00582Y00726*
X-00582Y00726*
X-00624Y00767*
X-00625Y00767*
X-00664Y00811*
X-00665Y00811*
X-00701Y00857*
X-00702Y00858*
X-00735Y00906*
X-00735Y00907*
X-00765Y00958*
X-00766Y00958*
X-00792Y01011*
X-00815Y01066*
X-00815Y01066*
X-00834Y01122*
X-00835Y01122*
X-0085Y01179*
X-0085Y0118*
X-00861Y01237*
X-00862Y01238*
X-00869Y01296*
X-00869Y01297*
X-00872Y01356*
X-00872Y01357*
X-00872Y01415*
X-00872Y01416*
X-00867Y01475*
X-00867Y01475*
X-00859Y01533*
X-00859Y01534*
X-00846Y01591*
X-00846Y01592*
X-0083Y01649*
X-0083Y01649*
X-0081Y01704*
X-00809Y01705*
X-00786Y01759*
X-00785Y01759*
X-00758Y01811*
X-00758Y01812*
X-00727Y01862*
X-00726Y01863*
X-00692Y0191*
X-00692Y01911*
X-00654Y01956*
X-00654Y01957*
X-00614Y02*
X-00613Y02*
X-0057Y0204*
X-0057Y02041*
X-00524Y02077*
X-00523Y02078*
X-00475Y02112*
X-00475Y02112*
X-00424Y02142*
X-00424Y02143*
X-00371Y0217*
X-00371Y0217*
X-00317Y02193*
X-00316Y02193*
X-00261Y02213*
X-0026Y02213*
X-00203Y02229*
X-00203Y02229*
X-00145Y02241*
X-00145Y02241*
X-00086Y02249*
X-00086Y02249*
X-00027Y02253*
X-00026Y02253*
X00031*
X00032Y02253*
G37*
G36*
X00311Y02497D02*
X00318Y02495D01*
X00348Y02487*
X00407Y02467*
X00465Y02444*
X00521Y02418*
X00576Y02388*
X0063Y02356*
X00681Y02322*
X00731Y02284*
X00778Y02244*
X00823Y02201*
X00866Y02156*
X00907Y02109*
X00945Y0206*
X0098Y02008*
X01012Y01955*
X01042Y01901*
X01068Y01844*
X01092Y01787*
X01112Y01728*
X01129Y01668*
X01143Y01608*
X01154Y01547*
X01161Y01485*
X01165Y01423*
X01166Y01361*
X01164Y01299*
X01158Y01237*
X01149Y01175*
X01136Y01114*
X01121Y01054*
X01102Y00995*
X0108Y00937*
X01069Y00912*
X01067Y00908*
X01067Y00908*
X01057Y00885*
X01035Y00841*
X01011Y00797*
X00985Y00755*
X00972Y00734*
X00577Y00015*
X-00567*
X-00963Y00737*
X-0098Y00762*
X-01011Y00814*
X-01039Y00868*
X-01064Y00923*
X-01086Y0098*
X-01106Y01037*
X-01122Y01096*
X-01135Y01155*
X-01145Y01215*
X-01152Y01275*
X-01156Y01336*
X-01156Y01396*
X-01154Y01457*
X-01148Y01517*
X-01139Y01577*
X-01127Y01637*
X-01112Y01695*
X-01094Y01753*
X-01073Y0181*
X-01049Y01866*
X-01022Y0192*
X-00992Y01973*
X-00959Y02024*
X-00924Y02074*
X-00887Y02121*
X-00846Y02167*
X-00804Y0221*
X-00759Y02251*
X-00713Y0229*
X-00664Y02326*
X-00614Y0236*
X-00561Y02391*
X-00508Y02419*
X-00453Y02445*
X-00396Y02467*
X-00339Y02487*
X-0031Y02495*
X-00302Y02497*
X-00287Y02498*
X-00271Y02496*
X-00257Y02492*
X-00243Y02484*
X-00231Y02474*
X-00222Y02462*
X-00215Y02448*
X-0021Y02433*
X-00209Y02417*
X-00211Y02402*
X-00216Y02387*
X-00223Y02374*
X-00233Y02362*
X-00246Y02352*
X-00259Y02345*
X-00267Y02343*
X-00297Y02334*
X-00356Y02314*
X-00414Y02289*
X-0047Y02261*
X-00524Y0223*
X-00576Y02195*
X-00626Y02158*
X-00673Y02117*
X-00718Y02073*
X-0076Y02027*
X-00799Y01978*
X-00835Y01926*
X-00867Y01873*
X-00897Y01818*
X-00922Y01761*
X-00944Y01702*
X-00963Y01642*
X-00977Y01582*
X-00988Y0152*
X-00995Y01458*
X-00998Y01395*
X-00997Y01333*
X-00993Y0127*
X-00984Y01208*
X-00972Y01147*
X-00956Y01087*
X-00936Y01027*
X-00912Y00969*
X-00885Y00913*
X-00854Y00858*
X-0082Y00806*
X-00783Y00756*
X-00743Y00708*
X-007Y00662*
X-00654Y0062*
X-00605Y0058*
X-00554Y00544*
X-00501Y0051*
X-00446Y00481*
X-0039Y00454*
X-00332Y00431*
X-00272Y00412*
X-00211Y00397*
X-0015Y00385*
X-00088Y00377*
X-00025Y00374*
X00036Y00374*
X00099Y00377*
X00161Y00385*
X00222Y00397*
X00283Y00412*
X00342Y00432*
X00401Y00455*
X00457Y00481*
X00512Y00511*
X00565Y00544*
X00616Y00581*
X00664Y0062*
X0071Y00663*
X00753Y00708*
X00794Y00756*
X00831Y00807*
X00865Y00859*
X00895Y00914*
X00922Y0097*
X00946Y01028*
X00966Y01088*
X00982Y01148*
X00994Y01209*
X01003Y01271*
X01007Y01334*
X01008Y01396*
X01005Y01459*
X00998Y01521*
X00987Y01583*
X00972Y01643*
X00954Y01703*
X00932Y01762*
X00906Y01819*
X00877Y01874*
X00844Y01927*
X00808Y01979*
X00769Y02027*
X00727Y02074*
X00682Y02118*
X00635Y02158*
X00585Y02196*
X00533Y02231*
X00479Y02262*
X00423Y0229*
X00365Y02314*
X00306Y02335*
X00276Y02344*
X00268Y02346*
X00255Y02353*
X00242Y02362*
X00232Y02374*
X00225Y02388*
X0022Y02402*
X00218Y02418*
X00219Y02433*
X00223Y02448*
X0023Y02462*
X0024Y02474*
X00252Y02484*
X00265Y02492*
X0028Y02497*
X00295Y02498*
X00311Y02497*
G37*
%LNtransdutir_alinhado-2*%
%LPC*%
G36*
X-00389Y02042D02*
X-00398D01*
X-00407Y0204*
X-00415Y02035*
X-00421Y02029*
X-00426Y02021*
X-00428Y02012*
Y02003*
X-00426Y01994*
X-00421Y01986*
X-00415Y01979*
X-00407Y01975*
X-00398Y01972*
X-00389*
X-0038Y01975*
X-00372Y01979*
X-00365Y01986*
X-00361Y01994*
X-00358Y02003*
Y02012*
X-00361Y02021*
X-00365Y02029*
X-00372Y02035*
X-0038Y0204*
X-00389Y02042*
G37*
G36*
X00673Y01767D02*
X00664D01*
X00655Y01764*
X00647Y0176*
X00641Y01753*
X00636Y01745*
X00634Y01736*
Y01727*
X00636Y01718*
X00641Y0171*
X00647Y01704*
X00655Y01699*
X00664Y01697*
X00673*
X00682Y01699*
X0069Y01704*
X00697Y0171*
X00701Y01718*
X00704Y01727*
Y01736*
X00701Y01745*
X00697Y01753*
X0069Y0176*
X00682Y01764*
X00673Y01767*
G37*
G36*
X-00664Y01097D02*
X-00673D01*
X-00682Y01095*
X-0069Y01091*
X-00697Y01084*
X-00701Y01076*
X-00704Y01067*
Y01058*
X-00701Y01049*
X-00697Y01041*
X-0069Y01034*
X-00682Y0103*
X-00673Y01027*
X-00664*
X-00655Y0103*
X-00647Y01034*
X-00641Y01041*
X-00636Y01049*
X-00634Y01058*
Y01067*
X-00636Y01076*
X-00641Y01084*
X-00647Y01091*
X-00655Y01095*
X-00664Y01097*
G37*
G36*
X00398Y00763D02*
X00389D01*
X0038Y0076*
X00372Y00756*
X00365Y00749*
X00361Y00741*
X00358Y00732*
Y00723*
X00361Y00714*
X00365Y00706*
X00372Y007*
X0038Y00695*
X00389Y00693*
X00398*
X00407Y00695*
X00415Y007*
X00421Y00706*
X00426Y00714*
X00428Y00723*
Y00732*
X00426Y00741*
X00421Y00749*
X00415Y00756*
X00407Y0076*
X00398Y00763*
G37*
G36*
X00291Y02472D02*
X00276Y0247D01*
X00263Y02465*
X00252Y02456*
X00243Y02445*
X00237Y02431*
X00235Y02417*
X00237Y02402*
X00243Y02389*
X00252Y02378*
X00263Y02369*
X00276Y02363*
X00291Y02361*
X00305Y02363*
X00319Y02369*
X0033Y02378*
X00339Y02389*
X00344Y02402*
X00346Y02417*
X00344Y02431*
X00339Y02445*
X0033Y02456*
X00319Y02465*
X00305Y0247*
X00291Y02472*
G37*
G36*
X-00291D02*
X-00305Y0247D01*
X-00319Y02465*
X-0033Y02456*
X-00339Y02445*
X-00344Y02431*
X-00346Y02417*
X-00344Y02402*
X-00339Y02389*
X-0033Y02378*
X-00319Y02369*
X-00305Y02363*
X-00291Y02361*
X-00276Y02363*
X-00263Y02369*
X-00252Y02378*
X-00243Y02389*
X-00237Y02402*
X-00235Y02417*
X-00237Y02431*
X-00243Y02445*
X-00252Y02456*
X-00263Y02465*
X-00276Y0247*
X-00291Y02472*
G37*
G36*
X01082Y01433D02*
X01068Y01431D01*
X01054Y01425*
X01043Y01417*
X01034Y01405*
X01029Y01392*
X01027Y01377*
X01029Y01363*
X01034Y0135*
X01043Y01338*
X01054Y01329*
X01068Y01324*
X01082Y01322*
X01097Y01324*
X0111Y01329*
X01121Y01338*
X0113Y0135*
X01136Y01363*
X01138Y01377*
X01136Y01392*
X0113Y01405*
X01121Y01417*
X0111Y01425*
X01097Y01431*
X01082Y01433*
G37*
G36*
X-01082D02*
X-01097Y01431D01*
X-0111Y01425*
X-01121Y01417*
X-0113Y01405*
X-01136Y01392*
X-01138Y01377*
X-01136Y01363*
X-0113Y0135*
X-01121Y01338*
X-0111Y01329*
X-01097Y01324*
X-01082Y01322*
X-01068Y01324*
X-01054Y01329*
X-01043Y01338*
X-01034Y0135*
X-01029Y01363*
X-01027Y01377*
X-01029Y01392*
X-01034Y01405*
X-01043Y01417*
X-01054Y01425*
X-01068Y01431*
X-01082Y01433*
G37*
G36*
X00787Y00646D02*
X00773Y00644D01*
X00759Y00638*
X00748Y00629*
X00739Y00618*
X00733Y00604*
X00731Y0059*
X00733Y00576*
X00739Y00562*
X00748Y00551*
X00759Y00542*
X00773Y00536*
X00787Y00535*
X00801Y00536*
X00815Y00542*
X00826Y00551*
X00835Y00562*
X0084Y00576*
X00842Y0059*
X0084Y00604*
X00835Y00618*
X00826Y00629*
X00815Y00638*
X00801Y00644*
X00787Y00646*
G37*
G36*
X-00787D02*
X-00801Y00644D01*
X-00815Y00638*
X-00826Y00629*
X-00835Y00618*
X-0084Y00604*
X-00842Y0059*
X-0084Y00576*
X-00835Y00562*
X-00826Y00551*
X-00815Y00542*
X-00801Y00536*
X-00787Y00535*
X-00773Y00536*
X-00759Y00542*
X-00748Y00551*
X-00739Y00562*
X-00733Y00576*
X-00731Y0059*
X-00733Y00604*
X-00739Y00618*
X-00748Y00629*
X-00759Y00638*
X-00773Y00644*
X-00787Y00646*
G37*
G36*
X-00216Y0031D02*
X-00225Y00309D01*
X-00234Y00306*
X-00241Y003*
X-00247Y00293*
X-0025Y00284*
X-00251Y00275*
X-0025Y00266*
X-00247Y00257*
X-00241Y0025*
X-00234Y00245*
X-00225Y00241*
X-00216Y0024*
X-00207Y00241*
X-00198Y00245*
X-00191Y0025*
X-00185Y00257*
X-00182Y00266*
X-00181Y00275*
X-00182Y00284*
X-00185Y00293*
X-00191Y003*
X-00198Y00306*
X-00207Y00309*
X-00216Y0031*
G37*
G36*
X00078Y00118D02*
X00068Y00117D01*
X00058Y00113*
X0005Y00106*
X00044Y00098*
X0004Y00089*
X00038Y00078*
X0004Y00068*
X00044Y00058*
X0005Y0005*
X00058Y00044*
X00068Y0004*
X00078Y00038*
X00089Y0004*
X00098Y00044*
X00106Y0005*
X00113Y00058*
X00117Y00068*
X00118Y00078*
X00117Y00089*
X00113Y00098*
X00106Y00106*
X00098Y00113*
X00089Y00117*
X00078Y00118*
G37*
G36*
X00314Y00134D02*
X003Y00132D01*
X00287Y00126*
X00275Y00117*
X00266Y00106*
X00261Y00093*
X00259Y00078*
X00261Y00064*
X00266Y00051*
X00275Y00039*
X00287Y0003*
X003Y00025*
X00314Y00023*
X00329Y00025*
X00342Y0003*
X00354Y00039*
X00363Y00051*
X00368Y00064*
X0037Y00078*
X00368Y00093*
X00363Y00106*
X00354Y00117*
X00342Y00126*
X00329Y00132*
X00314Y00134*
G37*
G36*
X-00314D02*
X-00329Y00132D01*
X-00342Y00126*
X-00354Y00117*
X-00363Y00106*
X-00368Y00093*
X-0037Y00078*
X-00368Y00064*
X-00363Y00051*
X-00354Y00039*
X-00342Y0003*
X-00329Y00025*
X-00314Y00023*
X-003Y00025*
X-00287Y0003*
X-00275Y00039*
X-00266Y00051*
X-00261Y00064*
X-00259Y00078*
X-00261Y00093*
X-00266Y00106*
X-00275Y00117*
X-00287Y00126*
X-003Y00132*
X-00314Y00134*
G37*
%LNtransdutir_alinhado-3*%
%LPD*%
G54D12*
X0Y03D03*
G54D13*
X-00314Y00078D03*
X00314D03*
X00787Y0059D03*
X-00787D03*
X01082Y01377D03*
X-01082D03*
X-00291Y02417D03*
X00291D03*
G54D14*
X-00148Y00433D03*
D03*
D03*
D03*
X-00218D03*
D03*
Y00473D03*
D03*
D03*
Y00433D03*
D03*
Y00473D03*
Y00513D03*
X-00148Y00473D03*
Y00513D03*
X00158Y00433D03*
D03*
D03*
D03*
X00227D03*
D03*
D03*
D03*
X-00148Y00473D03*
D03*
D03*
X00158D03*
D03*
D03*
D03*
X00227D03*
D03*
D03*
D03*
Y00513D03*
X00158D03*
X-00218D03*
D03*
D03*
X-00148D03*
D03*
D03*
X00158D03*
D03*
D03*
X00227D03*
D03*
D03*
G54D15*
X00393Y00728D03*
X-00393D03*
X-00216Y00275D03*
X00216D03*
X00669Y01062D03*
Y01732D03*
X00393Y02007D03*
X-00669Y01062D03*
X-00393Y02007D03*
X-00669Y01732D03*
G54D16*
X-00078Y00078D03*
X00078D03*
M02*