M48
;Layer_Color=9474304
;FILE_FORMAT=4:4
METRIC,LZ
;TYPE=PLATED
T1F00S00C0.5000
T2F00S00C0.7000
T3F00S00C1.0000
T4F00S00C1.2700
T5F00S00C1.3000
T6F00S00C3.3020
;TYPE=NON_PLATED
T7F00S00C3.5000
T8F00S00C4.0000
%
T01
X00856Y00215
X008765Y002398
X008875
Y00252
X008765
Y002642
X008875
X00882Y00285
X00922Y00268
Y00237
X00923Y00215
X0093Y0042
X00895Y00456423
Y00472
X00872Y00436423
X00858Y00407423
X00841Y00389
X0084854Y00370993
X00815Y00338
X00791Y00359
Y00299
X0076Y00328
X00722Y00343
X00697Y00329
Y00381
X00678793Y00376008
X00679Y00423
X0068Y00443
X0072Y00444
Y00427
X00719Y00411
X00779Y00403
X00773Y00426
X0077Y00483
X00748Y00481
X00583Y00472
X00571Y00486
X00574Y00455
X00525925Y00452116
X00526Y00438
Y00422
Y00406
X00521Y0038
X0057673Y0038027
X00629Y0038
X00628Y00285
X00633Y0026445
X00622
Y0025225
X00633
Y0024005
X00622
X00617714Y00215
X00667Y00236
X00713Y00215
X0070911Y0026751
X0074311Y00275
X00774Y00215
X00539571
X00461428
X0045Y0027
X00483Y00275
X00413Y00234
X00487Y00406
X00488Y00458
X00374Y00285
X003685Y002642
X003795
Y00252
X003685
Y002398
X003795
X00383286Y00215
X00305143
X00227
X00209Y00269
X0014Y00296
X00107Y00294
X00087Y00297
X001098Y003275
Y003385
X00122
Y003275
X001342
Y003385
X00155Y00333
X00094Y003705
Y00444
X0016327Y0047273
X00314Y00307
X00278Y00712
X00334Y00733
X00384Y0071
X0038Y00775
Y00796
X00359Y00833
Y00851
X00191Y00836
X00190499Y0078575
X00131Y00785
Y00836
X00542Y0085
X00534Y00775
Y0075
X00589Y00768
X00606015Y00718015
X005965Y006325
X00596496Y00578
X00578
X0056
X00616
X00618Y00517
X00646Y00503
X00665Y00498
X00717843Y00521214
X00727988Y00531078
X00719Y00543
X00737Y00576
Y00506
X00571Y0050343
X00533Y0052257
Y00537
X00494Y00543
X00489Y00501
X00492Y00592
Y00611
X00522Y006
X00541Y00621
X00702Y00705
X00712Y00748
X00904Y00738
X0089Y00882
X00863Y0053
X00831
X00818Y00892
X00937Y00894
Y00921
X00532Y00934
T02
X010033Y007561
X01016
Y007688
Y007815
Y007942
Y008069
Y008196
Y008323
Y00845
Y008577
X010033
Y00845
Y008323
Y008196
Y008069
Y007942
Y007815
Y007688
Y008704
X01016
T03
X007938Y00921
X008192
X008446
X0087
Y009464
X008446
X008192
X007938
X007684
Y00921
X00743
X007176
X006922
X006668
X006414
Y009464
X006668
X006922
X007176
X00743
T04
X0024305Y009036
X0027075
X0029845
X0032615
X0035385
X0034Y00932
X003123
X002846
X002569
T05
X00943Y00331
Y00381
Y00464
Y00514
Y00599
Y00649
T06
X00423418Y00917774
X00173482
T07
X01017Y00209
X01025Y0029
X00097Y00209
X01025Y00696
X01017Y0096
X00097
T08
X01025Y00424131
Y00559
M30
