G04*
G04 #@! TF.GenerationSoftware,Altium Limited,Altium Designer,23.5.1 (21)*
G04*
G04 Layer_Physical_Order=3*
G04 Layer_Color=32768*
%FSLAX44Y44*%
%MOMM*%
G71*
G04*
G04 #@! TF.SameCoordinates,D9901149-2AC3-4954-9F64-4BA616841755*
G04*
G04*
G04 #@! TF.FilePolarity,Negative*
G04*
G01*
G75*
%ADD10C,0.2540*%
%ADD76C,0.5080*%
%ADD91C,2.3160*%
%ADD92C,1.7160*%
%ADD93C,1.5160*%
%ADD94C,2.0160*%
%ADD95C,2.2860*%
%ADD96C,4.3180*%
%ADD97C,4.5160*%
%ADD98C,5.0160*%
%ADD99C,1.6000*%
D10*
X661000Y464000D02*
X729000D01*
X759000D02*
X766000Y457000D01*
X729000Y464000D02*
X733000Y468000D01*
Y532000D01*
Y548000D01*
X739000Y554000D01*
X844000D01*
X846000Y552000D01*
Y539000D02*
Y552000D01*
X802000Y336000D02*
Y368000D01*
X798000Y372000D02*
X802000Y368000D01*
X773000Y372000D02*
X798000D01*
X759000Y464000D02*
Y513000D01*
X763000Y517000D01*
X843000D01*
X846000Y520000D01*
Y539000D01*
X848000Y541000D01*
X909000D01*
X835000Y295000D02*
X839000Y299000D01*
X661000Y295000D02*
X835000D01*
X799000Y333000D02*
X802000Y336000D01*
X839000Y388000D02*
X909000Y458000D01*
X839000Y299000D02*
Y388000D01*
X909000Y458000D02*
Y679000D01*
X917000Y687000D02*
X966000D01*
X909000Y679000D02*
X917000Y687000D01*
X964000Y409000D02*
X974000Y419000D01*
X766000Y379000D02*
X773000Y372000D01*
X375000Y283000D02*
X383000Y275000D01*
X91000Y485000D02*
X99000Y493000D01*
X91000Y318000D02*
Y485000D01*
X99000Y493000D02*
X167000D01*
X175000Y485000D01*
X718000Y295000D02*
X727000Y286000D01*
Y285000D02*
Y286000D01*
X737000Y295000D02*
X740000D01*
X727000Y262000D02*
Y285000D01*
X737000Y295000D01*
Y252000D02*
X888000D01*
X904000Y268000D01*
Y270000D01*
X393500Y224000D02*
X961000D01*
X241000Y284000D02*
X392000D01*
X391000Y224000D02*
X396000D01*
X383000Y232000D02*
X391000Y224000D01*
X383000Y232000D02*
Y275000D01*
X476000Y252000D02*
X640000D01*
X383000Y275000D02*
X392000Y284000D01*
X435000D01*
X467000Y261000D02*
X476000Y252000D01*
X467000Y261000D02*
Y277000D01*
X460000Y284000D02*
X467000Y277000D01*
X435000Y284000D02*
X460000D01*
X645000Y371000D02*
X652000Y378000D01*
X594000Y371000D02*
X645000D01*
X652000Y378000D02*
Y455000D01*
X181000Y371000D02*
X594000D01*
X91000Y333000D02*
X799000Y333000D01*
X640000Y252000D02*
X648000Y260000D01*
Y272000D01*
Y282000D01*
X661000Y295000D01*
X727000Y262000D02*
X737000Y252000D01*
X175000Y377000D02*
Y485000D01*
Y377000D02*
X181000Y371000D01*
X904140Y392140D02*
X921000Y409000D01*
Y409000D02*
X964000D01*
X904140Y268000D02*
Y392140D01*
X766000Y379000D02*
Y457000D01*
X966000Y687000D02*
X974000Y679000D01*
Y399000D02*
Y679000D01*
X965000Y408000D02*
X973000Y400000D01*
X652000Y455000D02*
X661000Y464000D01*
X964000Y409000D02*
X974000Y399000D01*
X964000Y227000D02*
X973000Y236000D01*
X974000Y237000D02*
Y399000D01*
X961000Y224000D02*
X974000Y237000D01*
X91000Y292000D02*
Y333000D01*
Y292000D02*
X101000Y282000D01*
X241000Y284000D01*
D76*
X63000Y694000D02*
X410000D01*
X431000Y715000D01*
Y998000D01*
D91*
X943000Y514000D02*
D03*
Y464000D02*
D03*
Y331000D02*
D03*
Y599000D02*
D03*
D92*
X1016000Y756100D02*
D03*
Y832300D02*
D03*
Y806900D02*
D03*
Y794200D02*
D03*
Y819600D02*
D03*
Y845000D02*
D03*
Y857700D02*
D03*
X1003300Y781500D02*
D03*
Y794200D02*
D03*
Y806900D02*
D03*
Y819600D02*
D03*
Y832300D02*
D03*
Y845000D02*
D03*
Y857700D02*
D03*
Y870400D02*
D03*
X1016000Y781500D02*
D03*
Y870400D02*
D03*
X1003300Y768800D02*
D03*
X1016000D02*
D03*
X1003300Y756100D02*
D03*
D93*
X492000Y592000D02*
D03*
Y611000D02*
D03*
X384000Y710000D02*
D03*
X278000Y712000D02*
D03*
X606015Y718015D02*
D03*
X380000Y796000D02*
D03*
X534000Y775000D02*
D03*
X542000Y850000D02*
D03*
X930000Y420000D02*
D03*
X937000Y894000D02*
D03*
Y921000D02*
D03*
X818000Y892000D02*
D03*
X748000Y481000D02*
D03*
X773000Y426000D02*
D03*
X841000Y389000D02*
D03*
X815000Y338000D02*
D03*
X872000Y436423D02*
D03*
X895000Y456423D02*
D03*
X858000Y407423D02*
D03*
X720000Y444000D02*
D03*
X779000Y403000D02*
D03*
X737000Y506000D02*
D03*
X646000Y503000D02*
D03*
X722000Y343000D02*
D03*
X697000Y329000D02*
D03*
X890000Y882000D02*
D03*
X541000Y621000D02*
D03*
X522000Y600000D02*
D03*
X578000Y578000D02*
D03*
X314000Y307000D02*
D03*
X633000Y240050D02*
D03*
X622000D02*
D03*
Y252250D02*
D03*
X633000D02*
D03*
Y264450D02*
D03*
X622000D02*
D03*
X368500Y264200D02*
D03*
X379500D02*
D03*
Y252000D02*
D03*
X368500D02*
D03*
Y239800D02*
D03*
X379500D02*
D03*
X109800Y327500D02*
D03*
Y338500D02*
D03*
X122000D02*
D03*
Y327500D02*
D03*
X134200D02*
D03*
Y338500D02*
D03*
X876500Y264200D02*
D03*
X887500D02*
D03*
Y252000D02*
D03*
X876500D02*
D03*
Y239800D02*
D03*
X887500D02*
D03*
X618000Y517000D02*
D03*
X665000Y498000D02*
D03*
X712000Y748000D02*
D03*
X702000Y705000D02*
D03*
X525925Y452116D02*
D03*
X583000Y472000D02*
D03*
X533000Y522570D02*
D03*
Y537000D02*
D03*
X191000Y836000D02*
D03*
X190499Y785750D02*
D03*
X571000Y486000D02*
D03*
X359000Y833000D02*
D03*
X760000Y328000D02*
D03*
X487000Y406000D02*
D03*
X679000Y423000D02*
D03*
X678793Y376008D02*
D03*
X521000Y380000D02*
D03*
X131000Y785000D02*
D03*
Y836000D02*
D03*
X494000Y543000D02*
D03*
X489000Y501000D02*
D03*
X488000Y458000D02*
D03*
X791000Y299000D02*
D03*
X629000Y380000D02*
D03*
X737000Y576000D02*
D03*
X720000Y427000D02*
D03*
X923000Y215000D02*
D03*
X596500Y632500D02*
D03*
X680000Y443000D02*
D03*
X574000Y455000D02*
D03*
X526000Y406000D02*
D03*
X374000Y285000D02*
D03*
X713000Y215000D02*
D03*
X774000D02*
D03*
X539571D02*
D03*
X305143D02*
D03*
X87000Y297000D02*
D03*
X727988Y531078D02*
D03*
X461428Y215000D02*
D03*
X94000Y370500D02*
D03*
X882000Y285000D02*
D03*
X628000D02*
D03*
X617714Y215000D02*
D03*
X616000Y578000D02*
D03*
X717843Y521214D02*
D03*
X94000Y444000D02*
D03*
X227000Y215000D02*
D03*
X383286D02*
D03*
X155000Y333000D02*
D03*
X596496Y578000D02*
D03*
X856000Y215000D02*
D03*
D94*
X641400Y921000D02*
D03*
X666800D02*
D03*
X692200D02*
D03*
X717600D02*
D03*
X743000D02*
D03*
X768400D02*
D03*
X793800D02*
D03*
X819200D02*
D03*
X844600D02*
D03*
X870000D02*
D03*
X641400Y946400D02*
D03*
X666800D02*
D03*
X692200D02*
D03*
X717600D02*
D03*
X743000D02*
D03*
X768400D02*
D03*
X793800D02*
D03*
X819200D02*
D03*
X870000D02*
D03*
X844600D02*
D03*
D95*
X353850Y903600D02*
D03*
X326150D02*
D03*
X298450D02*
D03*
X270750D02*
D03*
X243050D02*
D03*
X256900Y932000D02*
D03*
X284600D02*
D03*
X312300D02*
D03*
D96*
X173482Y917774D02*
D03*
X423418D02*
D03*
D97*
X1025000Y290000D02*
D03*
Y696000D02*
D03*
X97000Y209000D02*
D03*
Y960000D02*
D03*
X1017000Y209000D02*
D03*
Y960000D02*
D03*
D98*
X1025000Y424131D02*
D03*
Y559000D02*
D03*
D99*
X57000Y169000D02*
Y1000000D01*
Y169000D02*
X1057000D01*
Y1000000D01*
X57000D02*
X1057000D01*
M02*
