G04*
G04 #@! TF.GenerationSoftware,Altium Limited,Altium Designer,23.5.1 (21)*
G04*
G04 Layer_Color=16711935*
%FSLAX44Y44*%
%MOMM*%
G71*
G04*
G04 #@! TF.SameCoordinates,D9901149-2AC3-4954-9F64-4BA616841755*
G04*
G04*
G04 #@! TF.FilePolarity,Negative*
G04*
G01*
G75*
%ADD38R,1.2000X1.6000*%
%ADD39R,1.6000X1.2000*%
%ADD40R,1.6000X1.3000*%
%ADD41R,1.3000X1.6000*%
%ADD45R,3.2032X2.7032*%
%ADD62R,4.2032X4.2032*%
%ADD63C,4.2032*%
%ADD64R,1.3532X1.3532*%
%ADD65C,1.3532*%
%ADD66O,2.2032X1.6032*%
%ADD67R,2.2032X1.6032*%
%ADD68R,1.8032X2.2032*%
%ADD69O,1.8032X2.2032*%
%ADD70C,2.3000*%
%ADD71R,2.3000X2.3000*%
%ADD72C,6.2032*%
%ADD73C,0.2032*%
%ADD74C,1.2032*%
%ADD75C,0.9000*%
%ADD103R,1.6000X1.0000*%
%ADD104R,1.4032X1.1032*%
%ADD105R,1.1000X1.5000*%
D38*
X555500Y934000D02*
D03*
X572500D02*
D03*
X943500Y738000D02*
D03*
X926500D02*
D03*
X718500Y974000D02*
D03*
X735500D02*
D03*
X761500Y451000D02*
D03*
X744500D02*
D03*
X798500Y893000D02*
D03*
X781500D02*
D03*
X858500D02*
D03*
X875500D02*
D03*
X917500Y921000D02*
D03*
X900500D02*
D03*
D39*
X596000Y612500D02*
D03*
Y595500D02*
D03*
X786000Y451500D02*
D03*
Y468500D02*
D03*
D40*
X560000Y619500D02*
D03*
Y600500D02*
D03*
X745000Y541500D02*
D03*
Y560500D02*
D03*
X697000Y346500D02*
D03*
Y365500D02*
D03*
X722000Y380250D02*
D03*
Y361250D02*
D03*
X700000Y425500D02*
D03*
Y444500D02*
D03*
X507532Y464250D02*
D03*
Y445250D02*
D03*
X549000Y445250D02*
D03*
Y464250D02*
D03*
X507532Y404500D02*
D03*
Y423500D02*
D03*
X549000Y423500D02*
D03*
Y404500D02*
D03*
X791000Y319500D02*
D03*
Y338500D02*
D03*
X549000Y503500D02*
D03*
Y484500D02*
D03*
X719000Y558500D02*
D03*
Y577500D02*
D03*
X820000Y389500D02*
D03*
Y370500D02*
D03*
X556000Y771500D02*
D03*
Y752500D02*
D03*
X357000Y776500D02*
D03*
Y795500D02*
D03*
X589000Y730500D02*
D03*
Y749500D02*
D03*
D41*
X173500Y836000D02*
D03*
X154500D02*
D03*
X754500Y403000D02*
D03*
X735500D02*
D03*
X703500D02*
D03*
X684500D02*
D03*
X754500Y427000D02*
D03*
X735500D02*
D03*
X154500Y785000D02*
D03*
X173500D02*
D03*
X540500Y380000D02*
D03*
X559500D02*
D03*
X591500D02*
D03*
X610500D02*
D03*
X521500Y578000D02*
D03*
X540500D02*
D03*
X294500Y732000D02*
D03*
X313500D02*
D03*
D45*
X841000Y320000D02*
D03*
X884000D02*
D03*
D62*
X943000Y514000D02*
D03*
Y381000D02*
D03*
Y649000D02*
D03*
D63*
Y464000D02*
D03*
Y331000D02*
D03*
Y599000D02*
D03*
D64*
X1016000Y756100D02*
D03*
D65*
Y832300D02*
D03*
Y806900D02*
D03*
Y794200D02*
D03*
Y819600D02*
D03*
Y845000D02*
D03*
Y857700D02*
D03*
X1003300Y781500D02*
D03*
Y794200D02*
D03*
Y806900D02*
D03*
Y819600D02*
D03*
Y832300D02*
D03*
Y845000D02*
D03*
Y857700D02*
D03*
Y870400D02*
D03*
X1016000Y781500D02*
D03*
Y870400D02*
D03*
X1003300Y768800D02*
D03*
X1016000D02*
D03*
X1003300Y756100D02*
D03*
D66*
X492000Y592000D02*
D03*
D67*
Y611000D02*
D03*
D68*
X641400Y921000D02*
D03*
D69*
X666800D02*
D03*
X692200D02*
D03*
X717600D02*
D03*
X743000D02*
D03*
X768400D02*
D03*
X793800D02*
D03*
X819200D02*
D03*
X844600D02*
D03*
X870000D02*
D03*
X641400Y946400D02*
D03*
X666800D02*
D03*
X692200D02*
D03*
X717600D02*
D03*
X743000D02*
D03*
X768400D02*
D03*
X793800D02*
D03*
X819200D02*
D03*
X870000D02*
D03*
X844600D02*
D03*
D70*
X353850Y903600D02*
D03*
X326150D02*
D03*
X298450D02*
D03*
X270750D02*
D03*
X256900Y932000D02*
D03*
X284600D02*
D03*
X312300D02*
D03*
X340000D02*
D03*
D71*
X243050Y903600D02*
D03*
D72*
X173482Y917774D02*
D03*
X423418D02*
D03*
X97000Y209000D02*
D03*
Y960000D02*
D03*
X1017000Y209000D02*
D03*
Y960000D02*
D03*
D73*
X1025000Y290000D02*
D03*
Y424131D02*
D03*
Y559000D02*
D03*
Y696000D02*
D03*
D74*
X384000Y710000D02*
D03*
X380000Y775000D02*
D03*
X278000Y712000D02*
D03*
X589000Y768000D02*
D03*
X606015Y718015D02*
D03*
X534000Y750000D02*
D03*
X380000Y796000D02*
D03*
X334000Y733000D02*
D03*
X534000Y775000D02*
D03*
X542000Y850000D02*
D03*
X532000Y934000D02*
D03*
X930000Y420000D02*
D03*
X937000Y894000D02*
D03*
Y921000D02*
D03*
X818000Y892000D02*
D03*
X748000Y481000D02*
D03*
X848540Y370993D02*
D03*
X863000Y530000D02*
D03*
X831000D02*
D03*
X773000Y426000D02*
D03*
X841000Y389000D02*
D03*
X815000Y338000D02*
D03*
X770000Y483000D02*
D03*
X872000Y436423D02*
D03*
X895000Y472000D02*
D03*
Y456423D02*
D03*
X858000Y407423D02*
D03*
X720000Y444000D02*
D03*
X779000Y403000D02*
D03*
X737000Y506000D02*
D03*
X646000Y503000D02*
D03*
X722000Y343000D02*
D03*
X697000Y329000D02*
D03*
X743110Y275000D02*
D03*
X483000D02*
D03*
X709110Y267510D02*
D03*
X890000Y882000D02*
D03*
X163270Y472730D02*
D03*
X541000Y621000D02*
D03*
X522000Y600000D02*
D03*
X560000Y578000D02*
D03*
X578000D02*
D03*
X314000Y307000D02*
D03*
X618000Y517000D02*
D03*
X665000Y498000D02*
D03*
X712000Y748000D02*
D03*
X702000Y705000D02*
D03*
X525925Y452116D02*
D03*
X583000Y472000D02*
D03*
X571000Y503430D02*
D03*
X533000Y522570D02*
D03*
Y537000D02*
D03*
X191000Y836000D02*
D03*
X190499Y785750D02*
D03*
X904000Y738000D02*
D03*
X571000Y486000D02*
D03*
X359000Y851000D02*
D03*
Y833000D02*
D03*
X791000Y359000D02*
D03*
X760000Y328000D02*
D03*
X487000Y406000D02*
D03*
X679000Y423000D02*
D03*
X697000Y381000D02*
D03*
X678793Y376008D02*
D03*
X521000Y380000D02*
D03*
X131000Y785000D02*
D03*
Y836000D02*
D03*
X494000Y543000D02*
D03*
X489000Y501000D02*
D03*
X488000Y458000D02*
D03*
X791000Y299000D02*
D03*
X629000Y380000D02*
D03*
X737000Y576000D02*
D03*
X107000Y294000D02*
D03*
X140000Y296000D02*
D03*
X413000Y234000D02*
D03*
X667000Y236000D02*
D03*
X922000Y268000D02*
D03*
X720000Y427000D02*
D03*
X719000Y411000D02*
D03*
Y543000D02*
D03*
X923000Y215000D02*
D03*
X596500Y632500D02*
D03*
X680000Y443000D02*
D03*
X526000Y422000D02*
D03*
X574000Y455000D02*
D03*
X526000Y406000D02*
D03*
X374000Y285000D02*
D03*
X713000Y215000D02*
D03*
X774000D02*
D03*
X539571D02*
D03*
X305143D02*
D03*
X87000Y297000D02*
D03*
X727988Y531078D02*
D03*
X526000Y438000D02*
D03*
X461428Y215000D02*
D03*
X94000Y370500D02*
D03*
X882000Y285000D02*
D03*
X628000D02*
D03*
X617714Y215000D02*
D03*
X922000Y237000D02*
D03*
X616000Y578000D02*
D03*
X576730Y380270D02*
D03*
X717843Y521214D02*
D03*
X450000Y270000D02*
D03*
X94000Y444000D02*
D03*
X227000Y215000D02*
D03*
X383286D02*
D03*
X155000Y333000D02*
D03*
X209000Y269000D02*
D03*
X596496Y578000D02*
D03*
X856000Y215000D02*
D03*
D75*
X633000Y240050D02*
D03*
X622000D02*
D03*
Y252250D02*
D03*
X633000D02*
D03*
Y264450D02*
D03*
X622000D02*
D03*
X368500Y264200D02*
D03*
X379500D02*
D03*
Y252000D02*
D03*
X368500D02*
D03*
Y239800D02*
D03*
X379500D02*
D03*
X109800Y327500D02*
D03*
Y338500D02*
D03*
X122000D02*
D03*
Y327500D02*
D03*
X134200D02*
D03*
Y338500D02*
D03*
X876500Y264200D02*
D03*
X887500D02*
D03*
Y252000D02*
D03*
X876500D02*
D03*
Y239800D02*
D03*
X887500D02*
D03*
D103*
X828000Y445500D02*
D03*
Y428500D02*
D03*
X852000D02*
D03*
Y445500D02*
D03*
D104*
X831000Y512500D02*
D03*
Y495500D02*
D03*
D105*
X863000Y494000D02*
D03*
X853500Y472000D02*
D03*
X872500D02*
D03*
X906000Y409000D02*
D03*
X887000D02*
D03*
X896500Y431000D02*
D03*
M02*
