G04*
G04 #@! TF.GenerationSoftware,Altium Limited,Altium Designer,23.5.1 (21)*
G04*
G04 Layer_Color=128*
%FSLAX44Y44*%
%MOMM*%
G71*
G04*
G04 #@! TF.SameCoordinates,D9901149-2AC3-4954-9F64-4BA616841755*
G04*
G04*
G04 #@! TF.FilePolarity,Positive*
G04*
G01*
G75*
%ADD14R,1.1000X1.5000*%
%ADD15R,1.5000X1.1000*%
%ADD16R,1.5000X1.2000*%
%ADD17R,1.2000X1.5000*%
%ADD21R,3.0000X2.5000*%
%ADD100R,1.5000X0.9000*%
%ADD101R,1.2000X0.9000*%
%ADD102R,1.0000X1.4000*%
D14*
X555500Y934000D02*
D03*
X572500D02*
D03*
X943500Y738000D02*
D03*
X926500D02*
D03*
X718500Y974000D02*
D03*
X735500D02*
D03*
X761500Y451000D02*
D03*
X744500D02*
D03*
X798500Y893000D02*
D03*
X781500D02*
D03*
X858500D02*
D03*
X875500D02*
D03*
X917500Y921000D02*
D03*
X900500D02*
D03*
D15*
X596000Y612500D02*
D03*
Y595500D02*
D03*
X786000Y451500D02*
D03*
Y468500D02*
D03*
D16*
X560000Y619500D02*
D03*
Y600500D02*
D03*
X745000Y541500D02*
D03*
Y560500D02*
D03*
X697000Y346500D02*
D03*
Y365500D02*
D03*
X722000Y380250D02*
D03*
Y361250D02*
D03*
X700000Y425500D02*
D03*
Y444500D02*
D03*
X507532Y464250D02*
D03*
Y445250D02*
D03*
X549000Y445250D02*
D03*
Y464250D02*
D03*
X507532Y404500D02*
D03*
Y423500D02*
D03*
X549000Y423500D02*
D03*
Y404500D02*
D03*
X791000Y319500D02*
D03*
Y338500D02*
D03*
X549000Y503500D02*
D03*
Y484500D02*
D03*
X719000Y558500D02*
D03*
Y577500D02*
D03*
X820000Y389500D02*
D03*
Y370500D02*
D03*
X556000Y771500D02*
D03*
Y752500D02*
D03*
X357000Y776500D02*
D03*
Y795500D02*
D03*
X589000Y730500D02*
D03*
Y749500D02*
D03*
D17*
X173500Y836000D02*
D03*
X154500D02*
D03*
X754500Y403000D02*
D03*
X735500D02*
D03*
X703500D02*
D03*
X684500D02*
D03*
X754500Y427000D02*
D03*
X735500D02*
D03*
X154500Y785000D02*
D03*
X173500D02*
D03*
X540500Y380000D02*
D03*
X559500D02*
D03*
X591500D02*
D03*
X610500D02*
D03*
X521500Y578000D02*
D03*
X540500D02*
D03*
X294500Y732000D02*
D03*
X313500D02*
D03*
D21*
X841000Y320000D02*
D03*
X884000D02*
D03*
D100*
X828000Y445500D02*
D03*
Y428500D02*
D03*
X852000D02*
D03*
Y445500D02*
D03*
D101*
X831000Y512500D02*
D03*
Y495500D02*
D03*
D102*
X863000Y494000D02*
D03*
X853500Y472000D02*
D03*
X872500D02*
D03*
X906000Y409000D02*
D03*
X887000D02*
D03*
X896500Y431000D02*
D03*
M02*
