G04*
G04 #@! TF.GenerationSoftware,Altium Limited,Altium Designer,23.5.1 (21)*
G04*
G04 Layer_Physical_Order=2*
G04 Layer_Color=39423*
%FSLAX44Y44*%
%MOMM*%
G71*
G04*
G04 #@! TF.SameCoordinates,D9901149-2AC3-4954-9F64-4BA616841755*
G04*
G04*
G04 #@! TF.FilePolarity,Negative*
G04*
G01*
G75*
%ADD76C,0.5080*%
%ADD90C,1.0160*%
%ADD91C,2.3160*%
%ADD92C,1.7160*%
%ADD93C,1.5160*%
%ADD94C,2.0160*%
%ADD95C,2.2860*%
%ADD96C,4.3180*%
%ADD97C,4.5160*%
%ADD98C,5.0160*%
D76*
X63000Y694000D02*
X410000D01*
X431000Y715000D01*
Y998000D01*
D90*
X57000Y169000D02*
Y1000000D01*
Y169000D02*
X1057000D01*
Y1000000D01*
X57000D02*
X1057000D01*
D91*
X943000Y514000D02*
D03*
Y464000D02*
D03*
Y381000D02*
D03*
Y649000D02*
D03*
D92*
X1016000Y756100D02*
D03*
Y794200D02*
D03*
X1003300Y781500D02*
D03*
Y794200D02*
D03*
Y806900D02*
D03*
Y819600D02*
D03*
Y832300D02*
D03*
Y845000D02*
D03*
Y857700D02*
D03*
Y870400D02*
D03*
Y768800D02*
D03*
Y756100D02*
D03*
D93*
X492000Y592000D02*
D03*
Y611000D02*
D03*
X380000Y775000D02*
D03*
X589000Y768000D02*
D03*
X534000Y750000D02*
D03*
X334000Y733000D02*
D03*
X532000Y934000D02*
D03*
X848540Y370993D02*
D03*
X863000Y530000D02*
D03*
X831000D02*
D03*
X770000Y483000D02*
D03*
X872000Y436423D02*
D03*
X895000Y472000D02*
D03*
X858000Y407423D02*
D03*
X720000Y444000D02*
D03*
X737000Y506000D02*
D03*
X646000Y503000D02*
D03*
X743110Y275000D02*
D03*
X483000D02*
D03*
X709110Y267510D02*
D03*
X890000Y882000D02*
D03*
X163270Y472730D02*
D03*
X560000Y578000D02*
D03*
X618000Y517000D02*
D03*
X665000Y498000D02*
D03*
X712000Y748000D02*
D03*
X702000Y705000D02*
D03*
X583000Y472000D02*
D03*
X571000Y503430D02*
D03*
X533000Y522570D02*
D03*
Y537000D02*
D03*
X191000Y836000D02*
D03*
X190499Y785750D02*
D03*
X904000Y738000D02*
D03*
X359000Y851000D02*
D03*
X791000Y359000D02*
D03*
X697000Y381000D02*
D03*
X107000Y294000D02*
D03*
X140000Y296000D02*
D03*
X413000Y234000D02*
D03*
X667000Y236000D02*
D03*
X922000Y268000D02*
D03*
X720000Y427000D02*
D03*
X719000Y411000D02*
D03*
Y543000D02*
D03*
X526000Y422000D02*
D03*
Y438000D02*
D03*
X922000Y237000D02*
D03*
X616000Y578000D02*
D03*
X576730Y380270D02*
D03*
X717843Y521214D02*
D03*
X450000Y270000D02*
D03*
X209000Y269000D02*
D03*
X596496Y578000D02*
D03*
D94*
X641400Y921000D02*
D03*
X666800D02*
D03*
X692200D02*
D03*
X717600D02*
D03*
X743000D02*
D03*
X768400D02*
D03*
X793800D02*
D03*
X819200D02*
D03*
X844600D02*
D03*
X870000D02*
D03*
X641400Y946400D02*
D03*
D95*
X326150Y903600D02*
D03*
X298450D02*
D03*
X270750D02*
D03*
X243050D02*
D03*
X256900Y932000D02*
D03*
X284600D02*
D03*
X312300D02*
D03*
X340000D02*
D03*
D96*
X173482Y917774D02*
D03*
X423418D02*
D03*
D97*
X1025000Y290000D02*
D03*
Y696000D02*
D03*
X97000Y209000D02*
D03*
Y960000D02*
D03*
X1017000Y209000D02*
D03*
Y960000D02*
D03*
D98*
X1025000Y424131D02*
D03*
Y559000D02*
D03*
M02*
