G04*
G04 #@! TF.GenerationSoftware,Altium Limited,Altium Designer,23.5.1 (21)*
G04*
G04 Layer_Color=32896*
%FSLAX44Y44*%
%MOMM*%
G71*
G04*
G04 #@! TF.SameCoordinates,D9901149-2AC3-4954-9F64-4BA616841755*
G04*
G04*
G04 #@! TF.FilePolarity,Positive*
G04*
G01*
G75*
%ADD10C,0.2540*%
%ADD11C,0.2000*%
D10*
X732000Y474000D02*
X739000Y467000D01*
X846000Y400000D02*
X852000Y394000D01*
X846000Y400000D02*
Y412000D01*
X565000Y445000D02*
X586000D01*
X595078Y683843D02*
X597617Y681304D01*
Y676226D01*
X595078Y673687D01*
X584922D01*
X582383Y676226D01*
Y681304D01*
X584922Y683843D01*
X597617Y699078D02*
Y688922D01*
X590000D01*
X592539Y694000D01*
Y696539D01*
X590000Y699078D01*
X584922D01*
X582383Y696539D01*
Y691461D01*
X584922Y688922D01*
Y704157D02*
X582383Y706696D01*
Y711774D01*
X584922Y714314D01*
X595078D01*
X597617Y711774D01*
Y706696D01*
X595078Y704157D01*
X592539D01*
X590000Y706696D01*
Y714314D01*
X268157Y738078D02*
X270696Y740618D01*
X275774D01*
X278313Y738078D01*
Y727922D01*
X275774Y725383D01*
X270696D01*
X268157Y727922D01*
X252922Y740618D02*
X263078D01*
Y733000D01*
X258000Y735539D01*
X255461D01*
X252922Y733000D01*
Y727922D01*
X255461Y725383D01*
X260539D01*
X263078Y727922D01*
X247843Y738078D02*
X245304Y740618D01*
X240226D01*
X237687Y738078D01*
Y735539D01*
X240226Y733000D01*
X237687Y730461D01*
Y727922D01*
X240226Y725383D01*
X245304D01*
X247843Y727922D01*
Y730461D01*
X245304Y733000D01*
X247843Y735539D01*
Y738078D01*
X245304Y733000D02*
X240226D01*
X336078Y776843D02*
X338618Y774304D01*
Y769226D01*
X336078Y766687D01*
X325922D01*
X323382Y769226D01*
Y774304D01*
X325922Y776843D01*
X338618Y792078D02*
Y781922D01*
X331000D01*
X333539Y787000D01*
Y789539D01*
X331000Y792078D01*
X325922D01*
X323382Y789539D01*
Y784461D01*
X325922Y781922D01*
X338618Y797157D02*
Y807313D01*
X336078D01*
X325922Y797157D01*
X323382D01*
X562078Y798843D02*
X564618Y796304D01*
Y791226D01*
X562078Y788687D01*
X551922D01*
X549383Y791226D01*
Y796304D01*
X551922Y798843D01*
X564618Y814078D02*
Y803922D01*
X557000D01*
X559539Y809000D01*
Y811539D01*
X557000Y814078D01*
X551922D01*
X549383Y811539D01*
Y806461D01*
X551922Y803922D01*
X564618Y829314D02*
X562078Y824235D01*
X557000Y819157D01*
X551922D01*
X549383Y821696D01*
Y826774D01*
X551922Y829314D01*
X554461D01*
X557000Y826774D01*
Y819157D01*
X930198Y941552D02*
Y956787D01*
X922580D01*
X920041Y954248D01*
Y949169D01*
X922580Y946630D01*
X930198D01*
X925120D02*
X920041Y941552D01*
X904806D02*
X914963D01*
X904806Y951709D01*
Y954248D01*
X907345Y956787D01*
X912424D01*
X914963Y954248D01*
X899728D02*
X897189Y956787D01*
X892110D01*
X889571Y954248D01*
Y951709D01*
X892110Y949169D01*
X894650D01*
X892110D01*
X889571Y946630D01*
Y944091D01*
X892110Y941552D01*
X897189D01*
X899728Y944091D01*
X880313Y859382D02*
Y874617D01*
X872696D01*
X870157Y872078D01*
Y867000D01*
X872696Y864461D01*
X880313D01*
X875235D02*
X870157Y859382D01*
X854922D02*
X865078D01*
X854922Y869539D01*
Y872078D01*
X857461Y874617D01*
X862539D01*
X865078Y872078D01*
X839687Y859382D02*
X849843D01*
X839687Y869539D01*
Y872078D01*
X842226Y874617D01*
X847304D01*
X849843Y872078D01*
X806774Y859382D02*
Y874617D01*
X799157D01*
X796618Y872078D01*
Y867000D01*
X799157Y864461D01*
X806774D01*
X801696D02*
X796618Y859382D01*
X781382D02*
X791539D01*
X781382Y869539D01*
Y872078D01*
X783922Y874617D01*
X789000D01*
X791539Y872078D01*
X776304Y859382D02*
X771226D01*
X773765D01*
Y874617D01*
X776304Y872078D01*
X711383Y470687D02*
X726618D01*
Y478304D01*
X724078Y480843D01*
X719000D01*
X716461Y478304D01*
Y470687D01*
Y475765D02*
X711383Y480843D01*
Y496078D02*
Y485922D01*
X721539Y496078D01*
X724078D01*
X726618Y493539D01*
Y488461D01*
X724078Y485922D01*
Y501157D02*
X726618Y503696D01*
Y508774D01*
X724078Y511314D01*
X713922D01*
X711383Y508774D01*
Y503696D01*
X713922Y501157D01*
X724078D01*
X949619Y437617D02*
Y422383D01*
X942001D01*
X939462Y424922D01*
Y435078D01*
X942001Y437617D01*
X949619D01*
X924227Y422383D02*
X934384D01*
X924227Y432539D01*
Y435078D01*
X926766Y437617D01*
X931845D01*
X934384Y435078D01*
X890157Y522617D02*
Y507383D01*
X882539D01*
X880000Y509922D01*
Y520078D01*
X882539Y522617D01*
X890157D01*
X874922Y507383D02*
X869843D01*
X872382D01*
Y522617D01*
X874922Y520078D01*
X850044Y542383D02*
Y557617D01*
X842426D01*
X839887Y555078D01*
Y550000D01*
X842426Y547461D01*
X850044D01*
X844966D02*
X839887Y542383D01*
X834809D02*
X829730D01*
X832270D01*
Y557617D01*
X834809Y555078D01*
X822113D02*
X819574Y557617D01*
X814495D01*
X811956Y555078D01*
Y552539D01*
X814495Y550000D01*
X811956Y547461D01*
Y544922D01*
X814495Y542383D01*
X819574D01*
X822113Y544922D01*
Y547461D01*
X819574Y550000D01*
X822113Y552539D01*
Y555078D01*
X819574Y550000D02*
X814495D01*
X781383Y485956D02*
X796618D01*
Y493574D01*
X794078Y496113D01*
X789000D01*
X786461Y493574D01*
Y485956D01*
Y491035D02*
X781383Y496113D01*
Y501191D02*
Y506270D01*
Y503730D01*
X796618D01*
X794078Y501191D01*
X781383Y521505D02*
X796618D01*
X789000Y513887D01*
Y524044D01*
X854157Y352078D02*
X856696Y354618D01*
X861774D01*
X864313Y352078D01*
Y341922D01*
X861774Y339383D01*
X856696D01*
X854157Y341922D01*
X841461Y339383D02*
Y354618D01*
X849078Y347000D01*
X838922D01*
X833843Y352078D02*
X831304Y354618D01*
X826226D01*
X823687Y352078D01*
Y349539D01*
X826226Y347000D01*
X823687Y344461D01*
Y341922D01*
X826226Y339383D01*
X831304D01*
X833843Y341922D01*
Y344461D01*
X831304Y347000D01*
X833843Y349539D01*
Y352078D01*
X831304Y347000D02*
X826226D01*
X781696Y966383D02*
Y981618D01*
X774078D01*
X771539Y979078D01*
Y974000D01*
X774078Y971461D01*
X781696D01*
X776618D02*
X771539Y966383D01*
X766461Y968922D02*
X763922Y966383D01*
X758843D01*
X756304Y968922D01*
Y979078D01*
X758843Y981618D01*
X763922D01*
X766461Y979078D01*
Y976539D01*
X763922Y974000D01*
X756304D01*
X956106Y758672D02*
Y773907D01*
X948488D01*
X945949Y771368D01*
Y766290D01*
X948488Y763750D01*
X956106D01*
X951028D02*
X945949Y758672D01*
X930714D02*
X940871D01*
X930714Y768829D01*
Y771368D01*
X933253Y773907D01*
X938332D01*
X940871Y771368D01*
X925636Y761211D02*
X923097Y758672D01*
X918018D01*
X915479Y761211D01*
Y771368D01*
X918018Y773907D01*
X923097D01*
X925636Y771368D01*
Y768829D01*
X923097Y766290D01*
X915479D01*
X583313Y951383D02*
Y966618D01*
X575696D01*
X573157Y964078D01*
Y959000D01*
X575696Y956461D01*
X583313D01*
X578235D02*
X573157Y951383D01*
X557922D02*
X568078D01*
X557922Y961539D01*
Y964078D01*
X560461Y966618D01*
X565539D01*
X568078Y964078D01*
X552843D02*
X550304Y966618D01*
X545226D01*
X542687Y964078D01*
Y961539D01*
X545226Y959000D01*
X542687Y956461D01*
Y953922D01*
X545226Y951383D01*
X550304D01*
X552843Y953922D01*
Y956461D01*
X550304Y959000D01*
X552843Y961539D01*
Y964078D01*
X550304Y959000D02*
X545226D01*
X699078Y555843D02*
X701618Y553304D01*
Y548226D01*
X699078Y545687D01*
X688922D01*
X686383Y548226D01*
Y553304D01*
X688922Y555843D01*
X686383Y568539D02*
X701618D01*
X694000Y560922D01*
Y571078D01*
X701618Y576157D02*
Y586314D01*
X699078D01*
X688922Y576157D01*
X686383D01*
X539157Y558078D02*
X541696Y560617D01*
X546774D01*
X549313Y558078D01*
Y547922D01*
X546774Y545382D01*
X541696D01*
X539157Y547922D01*
X526461Y545382D02*
Y560617D01*
X534078Y553000D01*
X523922D01*
X508687Y560617D02*
X513765Y558078D01*
X518843Y553000D01*
Y547922D01*
X516304Y545382D01*
X511226D01*
X508687Y547922D01*
Y550461D01*
X511226Y553000D01*
X518843D01*
X614157Y360078D02*
X616696Y362617D01*
X621774D01*
X624313Y360078D01*
Y349922D01*
X621774Y347383D01*
X616696D01*
X614157Y349922D01*
X601461Y347383D02*
Y362617D01*
X609078Y355000D01*
X598922D01*
X583687Y362617D02*
X593843D01*
Y355000D01*
X588765Y357539D01*
X586226D01*
X583687Y355000D01*
Y349922D01*
X586226Y347383D01*
X591304D01*
X593843Y349922D01*
X579157Y533078D02*
X581696Y535617D01*
X586774D01*
X589313Y533078D01*
Y522922D01*
X586774Y520382D01*
X581696D01*
X579157Y522922D01*
X566461Y520382D02*
Y535617D01*
X574078Y528000D01*
X563922D01*
X551226Y520382D02*
Y535617D01*
X558843Y528000D01*
X548687D01*
X858382Y359956D02*
X873618D01*
Y367574D01*
X871078Y370113D01*
X866000D01*
X863461Y367574D01*
Y359956D01*
Y365034D02*
X858382Y370113D01*
Y375191D02*
Y380270D01*
Y377730D01*
X873618D01*
X871078Y375191D01*
X873618Y398044D02*
X871078Y392966D01*
X866000Y387887D01*
X860922D01*
X858382Y390426D01*
Y395505D01*
X860922Y398044D01*
X863461D01*
X866000Y395505D01*
Y387887D01*
X841044Y463382D02*
Y478618D01*
X833426D01*
X830887Y476078D01*
Y471000D01*
X833426Y468461D01*
X841044D01*
X835965D02*
X830887Y463382D01*
X825809D02*
X820730D01*
X823270D01*
Y478618D01*
X825809Y476078D01*
X813113Y478618D02*
X802956D01*
Y476078D01*
X813113Y465922D01*
Y463382D01*
X795078Y256843D02*
X797618Y254304D01*
Y249226D01*
X795078Y246687D01*
X784922D01*
X782383Y249226D01*
Y254304D01*
X784922Y256843D01*
X782383Y269539D02*
X797618D01*
X790000Y261922D01*
Y272078D01*
X782383Y287313D02*
Y277157D01*
X792539Y287313D01*
X795078D01*
X797618Y284774D01*
Y279696D01*
X795078Y277157D01*
X559157Y360078D02*
X561696Y362617D01*
X566774D01*
X569313Y360078D01*
Y349922D01*
X566774Y347383D01*
X561696D01*
X559157Y349922D01*
X543922Y347383D02*
X554078D01*
X543922Y357539D01*
Y360078D01*
X546461Y362617D01*
X551539D01*
X554078Y360078D01*
X528686Y362617D02*
X533765Y360078D01*
X538843Y355000D01*
Y349922D01*
X536304Y347383D01*
X531226D01*
X528686Y349922D01*
Y352461D01*
X531226Y355000D01*
X538843D01*
X615382Y594304D02*
X630617D01*
Y601922D01*
X628078Y604461D01*
X623000D01*
X620461Y601922D01*
Y594304D01*
Y599383D02*
X615382Y604461D01*
X630617Y619696D02*
Y609539D01*
X623000D01*
X625539Y614618D01*
Y617157D01*
X623000Y619696D01*
X617922D01*
X615382Y617157D01*
Y612078D01*
X617922Y609539D01*
X172727Y816258D02*
X175266Y818798D01*
X180344D01*
X182883Y816258D01*
Y806102D01*
X180344Y803562D01*
X175266D01*
X172727Y806102D01*
X167648Y816258D02*
X165109Y818798D01*
X160031D01*
X157492Y816258D01*
Y813719D01*
X160031Y811180D01*
X162570D01*
X160031D01*
X157492Y808641D01*
Y806102D01*
X160031Y803562D01*
X165109D01*
X167648Y806102D01*
X152413Y818798D02*
X142256D01*
Y816258D01*
X152413Y806102D01*
Y803562D01*
X579078Y407843D02*
X581618Y405304D01*
Y400226D01*
X579078Y397687D01*
X568922D01*
X566382Y400226D01*
Y405304D01*
X568922Y407843D01*
X579078Y412922D02*
X581618Y415461D01*
Y420539D01*
X579078Y423078D01*
X576539D01*
X574000Y420539D01*
Y418000D01*
Y420539D01*
X571461Y423078D01*
X568922D01*
X566382Y420539D01*
Y415461D01*
X568922Y412922D01*
X581618Y438313D02*
X579078Y433235D01*
X574000Y428157D01*
X568922D01*
X566382Y430696D01*
Y435774D01*
X568922Y438313D01*
X571461D01*
X574000Y435774D01*
Y428157D01*
X508078Y357843D02*
X510618Y355304D01*
Y350226D01*
X508078Y347687D01*
X497922D01*
X495382Y350226D01*
Y355304D01*
X497922Y357843D01*
X508078Y362922D02*
X510618Y365461D01*
Y370539D01*
X508078Y373078D01*
X505539D01*
X503000Y370539D01*
Y368000D01*
Y370539D01*
X500461Y373078D01*
X497922D01*
X495382Y370539D01*
Y365461D01*
X497922Y362922D01*
X510618Y388313D02*
Y378157D01*
X503000D01*
X505539Y383235D01*
Y385774D01*
X503000Y388313D01*
X497922D01*
X495382Y385774D01*
Y380696D01*
X497922Y378157D01*
X606078Y445843D02*
X608618Y443304D01*
Y438226D01*
X606078Y435687D01*
X595922D01*
X593382Y438226D01*
Y443304D01*
X595922Y445843D01*
X606078Y450922D02*
X608618Y453461D01*
Y458539D01*
X606078Y461078D01*
X603539D01*
X601000Y458539D01*
Y456000D01*
Y458539D01*
X598461Y461078D01*
X595922D01*
X593382Y458539D01*
Y453461D01*
X595922Y450922D01*
X593382Y473774D02*
X608618D01*
X601000Y466157D01*
Y476313D01*
X511078Y490843D02*
X513618Y488304D01*
Y483226D01*
X511078Y480687D01*
X500922D01*
X498382Y483226D01*
Y488304D01*
X500922Y490843D01*
X511078Y495922D02*
X513618Y498461D01*
Y503539D01*
X511078Y506078D01*
X508539D01*
X506000Y503539D01*
Y501000D01*
Y503539D01*
X503461Y506078D01*
X500922D01*
X498382Y503539D01*
Y498461D01*
X500922Y495922D01*
X511078Y511157D02*
X513618Y513696D01*
Y518774D01*
X511078Y521313D01*
X508539D01*
X506000Y518774D01*
Y516235D01*
Y518774D01*
X503461Y521313D01*
X500922D01*
X498382Y518774D01*
Y513696D01*
X500922Y511157D01*
X667078Y430843D02*
X669617Y428304D01*
Y423226D01*
X667078Y420687D01*
X656922D01*
X654382Y423226D01*
Y428304D01*
X656922Y430843D01*
X667078Y435922D02*
X669617Y438461D01*
Y443539D01*
X667078Y446078D01*
X664539D01*
X662000Y443539D01*
Y441000D01*
Y443539D01*
X659461Y446078D01*
X656922D01*
X654382Y443539D01*
Y438461D01*
X656922Y435922D01*
X654382Y461314D02*
Y451157D01*
X664539Y461314D01*
X667078D01*
X669617Y458774D01*
Y453696D01*
X667078Y451157D01*
X699078Y477383D02*
X701618Y474843D01*
Y469765D01*
X699078Y467226D01*
X688922D01*
X686383Y469765D01*
Y474843D01*
X688922Y477383D01*
X699078Y482461D02*
X701618Y485000D01*
Y490078D01*
X699078Y492618D01*
X696539D01*
X694000Y490078D01*
Y487539D01*
Y490078D01*
X691461Y492618D01*
X688922D01*
X686383Y490078D01*
Y485000D01*
X688922Y482461D01*
X686383Y497696D02*
Y502774D01*
Y500235D01*
X701618D01*
X699078Y497696D01*
X658157Y407078D02*
X660696Y409618D01*
X665774D01*
X668313Y407078D01*
Y396922D01*
X665774Y394383D01*
X660696D01*
X658157Y396922D01*
X653078Y407078D02*
X650539Y409618D01*
X645461D01*
X642922Y407078D01*
Y404539D01*
X645461Y402000D01*
X648000D01*
X645461D01*
X642922Y399461D01*
Y396922D01*
X645461Y394383D01*
X650539D01*
X653078Y396922D01*
X637843Y407078D02*
X635304Y409618D01*
X630226D01*
X627687Y407078D01*
Y396922D01*
X630226Y394383D01*
X635304D01*
X637843Y396922D01*
Y407078D01*
X773157Y382078D02*
X775696Y384618D01*
X780774D01*
X783313Y382078D01*
Y371922D01*
X780774Y369383D01*
X775696D01*
X773157Y371922D01*
X757922Y369383D02*
X768078D01*
X757922Y379539D01*
Y382078D01*
X760461Y384618D01*
X765539D01*
X768078Y382078D01*
X752843Y371922D02*
X750304Y369383D01*
X745226D01*
X742687Y371922D01*
Y382078D01*
X745226Y384618D01*
X750304D01*
X752843Y382078D01*
Y379539D01*
X750304Y377000D01*
X742687D01*
X727078Y302843D02*
X729617Y300304D01*
Y295226D01*
X727078Y292687D01*
X716922D01*
X714382Y295226D01*
Y300304D01*
X716922Y302843D01*
X714382Y318078D02*
Y307922D01*
X724539Y318078D01*
X727078D01*
X729617Y315539D01*
Y310461D01*
X727078Y307922D01*
Y323157D02*
X729617Y325696D01*
Y330774D01*
X727078Y333313D01*
X724539D01*
X722000Y330774D01*
X719461Y333313D01*
X716922D01*
X714382Y330774D01*
Y325696D01*
X716922Y323157D01*
X719461D01*
X722000Y325696D01*
X724539Y323157D01*
X727078D01*
X722000Y325696D02*
Y330774D01*
X676078Y328843D02*
X678618Y326304D01*
Y321226D01*
X676078Y318687D01*
X665922D01*
X663382Y321226D01*
Y326304D01*
X665922Y328843D01*
X663382Y344078D02*
Y333922D01*
X673539Y344078D01*
X676078D01*
X678618Y341539D01*
Y336461D01*
X676078Y333922D01*
X678618Y349157D02*
Y359313D01*
X676078D01*
X665922Y349157D01*
X663382D01*
X775078Y541843D02*
X777617Y539304D01*
Y534226D01*
X775078Y531687D01*
X764922D01*
X762383Y534226D01*
Y539304D01*
X764922Y541843D01*
X762383Y557078D02*
Y546922D01*
X772539Y557078D01*
X775078D01*
X777617Y554539D01*
Y549461D01*
X775078Y546922D01*
X777617Y572313D02*
Y562157D01*
X770000D01*
X772539Y567235D01*
Y569774D01*
X770000Y572313D01*
X764922D01*
X762383Y569774D01*
Y564696D01*
X764922Y562157D01*
X565078Y645843D02*
X567617Y643304D01*
Y638226D01*
X565078Y635687D01*
X554922D01*
X552383Y638226D01*
Y643304D01*
X554922Y645843D01*
X552383Y661078D02*
Y650922D01*
X562539Y661078D01*
X565078D01*
X567617Y658539D01*
Y653461D01*
X565078Y650922D01*
X552383Y673774D02*
X567617D01*
X560000Y666157D01*
Y676313D01*
X171887Y867078D02*
X174426Y869617D01*
X179505D01*
X182044Y867078D01*
Y856922D01*
X179505Y854382D01*
X174426D01*
X171887Y856922D01*
X166809Y854382D02*
X161730D01*
X164270D01*
Y869617D01*
X166809Y867078D01*
X154113D02*
X151574Y869617D01*
X146495D01*
X143956Y867078D01*
Y864539D01*
X146495Y862000D01*
X143956Y859461D01*
Y856922D01*
X146495Y854382D01*
X151574D01*
X154113Y856922D01*
Y859461D01*
X151574Y862000D01*
X154113Y864539D01*
Y867078D01*
X151574Y862000D02*
X146495D01*
D11*
X816000Y416000D02*
Y458000D01*
X840000D01*
Y416000D02*
Y458000D01*
X816000Y416000D02*
X840000D01*
X864000D02*
Y458000D01*
X840000Y416000D02*
X864000D01*
X840000D02*
Y458000D01*
X864000D01*
X584000Y583000D02*
Y625000D01*
X608000D01*
Y583000D02*
Y625000D01*
X584000Y583000D02*
X608000D01*
X543000Y922000D02*
Y946000D01*
Y922000D02*
X585000D01*
Y946000D01*
X543000D02*
X585000D01*
X914000Y750000D02*
X956000D01*
Y726000D02*
Y750000D01*
X914000Y726000D02*
X956000D01*
X914000D02*
Y750000D01*
X706000Y962000D02*
X748000D01*
X706000D02*
Y986000D01*
X748000D01*
Y962000D02*
Y986000D01*
X774000Y439000D02*
X798000D01*
Y481000D01*
X774000D02*
X798000D01*
X774000Y439000D02*
Y481000D01*
X732000Y463000D02*
X774000D01*
Y439000D02*
Y463000D01*
X732000Y439000D02*
X774000D01*
X732000D02*
Y463000D01*
X811000Y881000D02*
Y905000D01*
X769000D02*
X811000D01*
X769000Y881000D02*
Y905000D01*
Y881000D02*
X811000D01*
X846000D02*
X888000D01*
X846000D02*
Y905000D01*
X888000D01*
Y881000D02*
Y905000D01*
X930000Y909000D02*
Y933000D01*
X888000D02*
X930000D01*
X888000Y909000D02*
Y933000D01*
Y909000D02*
X930000D01*
X144000Y824000D02*
X184000D01*
Y848000D01*
X144000Y824000D02*
Y848000D01*
X184000D01*
X572000Y590000D02*
Y630000D01*
X548000D02*
X572000D01*
X548000Y590000D02*
X572000D01*
X548000D02*
Y630000D01*
X733000Y531000D02*
Y571000D01*
Y531000D02*
X757000D01*
X733000Y571000D02*
X757000D01*
Y531000D02*
Y571000D01*
X685000Y336000D02*
Y376000D01*
Y336000D02*
X709000D01*
X685000Y376000D02*
X709000D01*
Y336000D02*
Y376000D01*
X734000Y350750D02*
Y390750D01*
X710000D02*
X734000D01*
X710000Y350750D02*
X734000D01*
X710000D02*
Y390750D01*
X725000Y391000D02*
X765000D01*
Y415000D01*
X725000Y391000D02*
Y415000D01*
X765000D01*
X674000Y391000D02*
X714000D01*
Y415000D01*
X674000Y391000D02*
Y415000D01*
X714000D01*
X725000D02*
X765000D01*
Y439000D01*
X725000Y415000D02*
Y439000D01*
X765000D01*
X688000Y415000D02*
Y455000D01*
Y415000D02*
X712000D01*
X688000Y455000D02*
X712000D01*
Y415000D02*
Y455000D01*
X519532Y434750D02*
Y474750D01*
X495532D02*
X519532D01*
X495532Y434750D02*
X519532D01*
X495532D02*
Y474750D01*
X537000Y434750D02*
Y474750D01*
Y434750D02*
X561000D01*
X537000Y474750D02*
X561000D01*
Y434750D02*
Y474750D01*
X495532Y394000D02*
Y434000D01*
Y394000D02*
X519532D01*
X495532Y434000D02*
X519532D01*
Y394000D02*
Y434000D01*
X561000Y394000D02*
Y434000D01*
X537000D02*
X561000D01*
X537000Y394000D02*
X561000D01*
X537000D02*
Y434000D01*
X144000Y797000D02*
X184000D01*
X144000Y773000D02*
Y797000D01*
X184000Y773000D02*
Y797000D01*
X144000Y773000D02*
X184000D01*
X530000Y392000D02*
X570000D01*
X530000Y368000D02*
Y392000D01*
X570000Y368000D02*
Y392000D01*
X530000Y368000D02*
X570000D01*
X779000Y309000D02*
Y349000D01*
Y309000D02*
X803000D01*
X779000Y349000D02*
X803000D01*
Y309000D02*
Y349000D01*
X561000Y474000D02*
Y514000D01*
X537000D02*
X561000D01*
X537000Y474000D02*
X561000D01*
X537000D02*
Y514000D01*
X581000Y392000D02*
X621000D01*
X581000Y368000D02*
Y392000D01*
X621000Y368000D02*
Y392000D01*
X581000Y368000D02*
X621000D01*
X511000Y590000D02*
X551000D01*
X511000Y566000D02*
Y590000D01*
X551000Y566000D02*
Y590000D01*
X511000Y566000D02*
X551000D01*
X707000Y548000D02*
Y588000D01*
Y548000D02*
X731000D01*
X707000Y588000D02*
X731000D01*
Y548000D02*
Y588000D01*
X832000Y360000D02*
Y400000D01*
X808000D02*
X832000D01*
X808000Y360000D02*
X832000D01*
X808000D02*
Y400000D01*
X568000Y742000D02*
Y782000D01*
X544000D02*
X568000D01*
X544000Y742000D02*
X568000D01*
X544000D02*
Y782000D01*
X345000Y766000D02*
Y806000D01*
Y766000D02*
X369000D01*
X345000Y806000D02*
X369000D01*
Y766000D02*
Y806000D01*
X284000Y744000D02*
X324000D01*
X284000Y720000D02*
Y744000D01*
X324000Y720000D02*
Y744000D01*
X284000Y720000D02*
X324000D01*
X577000Y720000D02*
Y760000D01*
Y720000D02*
X601000D01*
X577000Y760000D02*
X601000D01*
Y720000D02*
Y760000D01*
X728000Y442000D02*
Y447000D01*
X707000Y468000D02*
X728000Y447000D01*
X821000Y487000D02*
X841000D01*
Y521000D01*
X821000D02*
X841000D01*
X821000Y487000D02*
Y521000D01*
X878500Y458000D02*
X881500D01*
Y461000D01*
Y499000D02*
Y501000D01*
X878500D02*
X881500D01*
X845500D02*
X848500D01*
X845500Y498000D02*
Y501000D01*
Y458000D02*
X848500D01*
X845500D02*
Y461000D01*
X879000Y395000D02*
Y398000D01*
Y395000D02*
X882000D01*
X879000Y435000D02*
Y438000D01*
X882000D01*
X912000D02*
X915000D01*
Y436000D02*
Y438000D01*
Y395000D02*
Y398000D01*
X912000Y395000D02*
X915000D01*
X873999Y442002D02*
X870001D01*
X872000D01*
Y453998D01*
X873999Y451999D01*
X911923Y377002D02*
X907924D01*
X909923D01*
Y388998D01*
X911923Y386999D01*
M02*
