G04*
G04 #@! TF.GenerationSoftware,Altium Limited,Altium Designer,23.5.1 (21)*
G04*
G04 Layer_Physical_Order=4*
G04 Layer_Color=16711680*
%FSLAX44Y44*%
%MOMM*%
G71*
G04*
G04 #@! TF.SameCoordinates,D9901149-2AC3-4954-9F64-4BA616841755*
G04*
G04*
G04 #@! TF.FilePolarity,Positive*
G04*
G01*
G75*
%ADD10C,0.2540*%
%ADD14R,1.1000X1.5000*%
%ADD15R,1.5000X1.1000*%
%ADD16R,1.5000X1.2000*%
%ADD17R,1.2000X1.5000*%
%ADD21R,3.0000X2.5000*%
%ADD75C,0.9000*%
%ADD76C,0.5080*%
%ADD77C,0.3810*%
%ADD78R,4.0000X4.0000*%
%ADD79C,4.0000*%
%ADD80R,1.1500X1.1500*%
%ADD81C,1.1500*%
%ADD82O,2.0000X1.4000*%
%ADD83R,2.0000X1.4000*%
%ADD84R,1.6000X2.0000*%
%ADD85O,1.6000X2.0000*%
%ADD86C,2.2000*%
%ADD87R,2.2000X2.2000*%
%ADD88C,6.0000*%
%ADD89C,1.0000*%
%ADD100R,1.5000X0.9000*%
%ADD101R,1.2000X0.9000*%
%ADD102R,1.0000X1.4000*%
G36*
X1057000Y168000D02*
X61899D01*
X61001Y168899D01*
X62000Y995000D01*
X1057000D01*
Y168000D01*
D02*
G37*
%LPC*%
G36*
X727460Y984040D02*
X726540D01*
X726190Y984040D01*
X710460D01*
Y977793D01*
X684049D01*
X682562Y977497D01*
X681302Y976656D01*
X676253Y971607D01*
X675411Y970347D01*
X675115Y968860D01*
Y956881D01*
X673845Y956279D01*
X672115Y957607D01*
X669551Y958669D01*
X666800Y959031D01*
X664048Y958669D01*
X661485Y957607D01*
X659283Y955917D01*
X657593Y953716D01*
X656531Y951152D01*
X656169Y948400D01*
Y944400D01*
X656531Y941648D01*
X657593Y939084D01*
X659283Y936883D01*
X661485Y935193D01*
X663430Y934387D01*
Y933013D01*
X661485Y932207D01*
X659283Y930517D01*
X657593Y928316D01*
X656531Y925751D01*
X656169Y923000D01*
Y919000D01*
X656531Y916248D01*
X657593Y913684D01*
X659283Y911483D01*
X661485Y909793D01*
X662915Y909201D01*
Y897409D01*
X613253Y847747D01*
X612411Y846487D01*
X612115Y845000D01*
Y724374D01*
X610845Y723848D01*
X610645Y724049D01*
X608926Y725041D01*
X607008Y725555D01*
X605023D01*
X603105Y725041D01*
X601385Y724049D01*
X601097Y723760D01*
X599040D01*
Y739040D01*
X578960D01*
Y721960D01*
X584022D01*
X584215Y720994D01*
X585337Y719313D01*
X589733Y714918D01*
X591413Y713795D01*
X593395Y713401D01*
X599973D01*
X599982Y713385D01*
X601385Y711982D01*
X603105Y710989D01*
X605023Y710475D01*
X607008D01*
X608926Y710989D01*
X610645Y711982D01*
X610845Y712182D01*
X612115Y711656D01*
Y584464D01*
X611370Y584034D01*
X609967Y582630D01*
X608974Y580910D01*
X608460Y578993D01*
Y577007D01*
X608974Y575090D01*
X609967Y573370D01*
X611370Y571967D01*
X613090Y570974D01*
X615007Y570460D01*
X616993D01*
X618910Y570974D01*
X620630Y571967D01*
X622034Y573370D01*
X623026Y575090D01*
X623540Y577007D01*
Y578993D01*
X623026Y580910D01*
X622034Y582630D01*
X620630Y584034D01*
X619885Y584464D01*
Y843391D01*
X669547Y893053D01*
X670389Y894314D01*
X670685Y895800D01*
Y909201D01*
X672115Y909793D01*
X674317Y911483D01*
X676007Y913684D01*
X677069Y916248D01*
X677431Y919000D01*
Y923000D01*
X677069Y925751D01*
X676535Y927041D01*
X681747Y932253D01*
X682589Y933513D01*
X682885Y935000D01*
Y937140D01*
X684155Y937571D01*
X684683Y936883D01*
X686885Y935193D01*
X688830Y934387D01*
Y933013D01*
X686885Y932207D01*
X684683Y930517D01*
X682993Y928316D01*
X681931Y925751D01*
X681569Y923000D01*
Y919000D01*
X681931Y916248D01*
X682993Y913684D01*
X684683Y911483D01*
X686885Y909793D01*
X688315Y909201D01*
Y898800D01*
X688611Y897313D01*
X689453Y896053D01*
X706253Y879253D01*
X707513Y878411D01*
X709000Y878115D01*
X883536D01*
X883967Y877370D01*
X885370Y875966D01*
X886084Y875555D01*
X885743Y874285D01*
X671400D01*
X669913Y873989D01*
X668653Y873147D01*
X638333Y842827D01*
X637491Y841567D01*
X637195Y840080D01*
Y541689D01*
X619824Y524317D01*
X618993Y524540D01*
X617007D01*
X615090Y524026D01*
X613370Y523033D01*
X611967Y521630D01*
X610974Y519910D01*
X610460Y517993D01*
Y516007D01*
X610974Y514090D01*
X611967Y512370D01*
X613370Y510966D01*
X615090Y509974D01*
X617007Y509460D01*
X618993D01*
X620910Y509974D01*
X622630Y510966D01*
X624034Y512370D01*
X625026Y514090D01*
X625540Y516007D01*
Y517993D01*
X625317Y518824D01*
X643827Y537333D01*
X644669Y538593D01*
X644965Y540080D01*
Y838471D01*
X673009Y866515D01*
X995970D01*
X996666Y865310D01*
X997926Y864050D01*
X996666Y862790D01*
X996143Y861885D01*
X680000D01*
X678513Y861589D01*
X677253Y860747D01*
X648253Y831747D01*
X647411Y830487D01*
X647115Y829000D01*
Y530713D01*
X622287Y505885D01*
X613609D01*
X594177Y525317D01*
X592917Y526159D01*
X591430Y526455D01*
X539464D01*
X539034Y527200D01*
X537630Y528604D01*
X536853Y529052D01*
Y530518D01*
X537630Y530966D01*
X539034Y532370D01*
X540026Y534090D01*
X540540Y536007D01*
Y537993D01*
X540026Y539910D01*
X539034Y541630D01*
X537630Y543033D01*
X535910Y544026D01*
X533993Y544540D01*
X532007D01*
X530090Y544026D01*
X528370Y543033D01*
X526967Y541630D01*
X526536Y540885D01*
X525000D01*
X523513Y540589D01*
X522253Y539747D01*
X516253Y533747D01*
X515411Y532487D01*
X515115Y531000D01*
Y519000D01*
X515411Y517513D01*
X516253Y516253D01*
X522253Y510253D01*
X523513Y509411D01*
X525000Y509115D01*
X538960D01*
Y494960D01*
X559040D01*
Y498285D01*
X565481D01*
X566370Y497397D01*
X568090Y496404D01*
X570007Y495890D01*
X571993D01*
X573910Y496404D01*
X575630Y497397D01*
X577034Y498800D01*
X578026Y500520D01*
X578540Y502437D01*
Y504423D01*
X578026Y506340D01*
X577157Y507845D01*
X577585Y509115D01*
X582391D01*
X610253Y481253D01*
X611513Y480411D01*
X613000Y480115D01*
X670000D01*
X671487Y480411D01*
X672747Y481253D01*
X683747Y492253D01*
X684589Y493513D01*
X684885Y495000D01*
Y791391D01*
X709209Y815715D01*
X995970D01*
X996666Y814510D01*
X997926Y813250D01*
X996666Y811990D01*
X995970Y810785D01*
X720900D01*
X719413Y810489D01*
X718153Y809647D01*
X688253Y779747D01*
X687411Y778487D01*
X687115Y777000D01*
Y486609D01*
X676391Y475885D01*
X589464D01*
X589034Y476630D01*
X587630Y478033D01*
X585910Y479026D01*
X583993Y479540D01*
X582007D01*
X580090Y479026D01*
X578370Y478033D01*
X576967Y476630D01*
X575974Y474910D01*
X575460Y472993D01*
Y471007D01*
X575974Y469090D01*
X576967Y467370D01*
X578370Y465966D01*
X580090Y464974D01*
X582007Y464460D01*
X583993D01*
X585910Y464974D01*
X587630Y465966D01*
X589034Y467370D01*
X589464Y468115D01*
X678000D01*
X679487Y468411D01*
X680747Y469253D01*
X693747Y482253D01*
X694589Y483513D01*
X694885Y485000D01*
Y699722D01*
X695383Y700021D01*
X696155Y700182D01*
X697370Y698967D01*
X698115Y698536D01*
Y537056D01*
X698411Y535570D01*
X699253Y534310D01*
X710525Y523037D01*
X710303Y522206D01*
Y520221D01*
X710817Y518303D01*
X711809Y516584D01*
X713213Y515180D01*
X714932Y514187D01*
X716850Y513674D01*
X718835D01*
X720753Y514187D01*
X722472Y515180D01*
X723876Y516584D01*
X724869Y518303D01*
X725383Y520221D01*
Y522206D01*
X725253Y522690D01*
X726290Y523727D01*
X726996Y523538D01*
X728981D01*
X730899Y524052D01*
X732618Y525044D01*
X734022Y526448D01*
X735014Y528167D01*
X735528Y530085D01*
Y532070D01*
X736211Y532960D01*
X755040D01*
Y550040D01*
X734960D01*
Y547179D01*
X725293D01*
X725033Y547630D01*
X724180Y548484D01*
Y549960D01*
X729040D01*
Y567040D01*
X708960D01*
Y549960D01*
X713820D01*
Y548484D01*
X712967Y547630D01*
X711974Y545910D01*
X711460Y543993D01*
Y542007D01*
X711974Y540090D01*
X712967Y538370D01*
X714370Y536967D01*
X716090Y535974D01*
X718007Y535460D01*
X719993D01*
X720410Y535572D01*
X721247Y534481D01*
X720962Y533988D01*
X720448Y532070D01*
Y530085D01*
X720578Y529602D01*
X719541Y528565D01*
X718835Y528754D01*
X716850D01*
X716019Y528531D01*
X705885Y538665D01*
Y698536D01*
X706630Y698967D01*
X708034Y700370D01*
X709026Y702090D01*
X709540Y704007D01*
Y705993D01*
X709317Y706824D01*
X754709Y752215D01*
X995970D01*
X996666Y751010D01*
X998210Y749466D01*
X1000100Y748375D01*
X1002209Y747810D01*
X1004391D01*
X1006440Y748359D01*
X1006686Y748401D01*
X1007710Y747810D01*
Y747810D01*
X1009689D01*
X1010215Y746540D01*
X1006855Y743179D01*
X951540D01*
Y748040D01*
X935810D01*
X935460Y748040D01*
X934540D01*
X934190Y748040D01*
X918460D01*
Y743179D01*
X909484D01*
X908630Y744034D01*
X906910Y745026D01*
X904993Y745540D01*
X903007D01*
X901090Y745026D01*
X899370Y744034D01*
X897967Y742630D01*
X896974Y740910D01*
X896460Y738993D01*
Y737007D01*
X896974Y735090D01*
X897967Y733370D01*
X899370Y731966D01*
X901090Y730974D01*
X903007Y730460D01*
X904993D01*
X906910Y730974D01*
X908630Y731966D01*
X909484Y732821D01*
X918460D01*
Y727960D01*
X934190D01*
X934540Y727960D01*
X935460D01*
X935810Y727960D01*
X951540D01*
Y732821D01*
X1009000D01*
X1010982Y733215D01*
X1012663Y734337D01*
X1019662Y741338D01*
X1019662Y741338D01*
X1020785Y743018D01*
X1021180Y745000D01*
X1021180Y745000D01*
Y747810D01*
X1024290D01*
Y764390D01*
X1024290D01*
X1023699Y765414D01*
X1023741Y765660D01*
X1024290Y767709D01*
Y769891D01*
X1023725Y772000D01*
X1022634Y773890D01*
X1021374Y775150D01*
X1022634Y776410D01*
X1023725Y778300D01*
X1024290Y780409D01*
Y782591D01*
X1023725Y784700D01*
X1022634Y786590D01*
X1021374Y787850D01*
X1022634Y789110D01*
X1023725Y791000D01*
X1024290Y793109D01*
Y795291D01*
X1023725Y797400D01*
X1022634Y799290D01*
X1021374Y800550D01*
X1022634Y801810D01*
X1023725Y803700D01*
X1024290Y805809D01*
Y807991D01*
X1023725Y810100D01*
X1022634Y811990D01*
X1021374Y813250D01*
X1022634Y814510D01*
X1023725Y816400D01*
X1024290Y818509D01*
Y820691D01*
X1023725Y822800D01*
X1022634Y824690D01*
X1021374Y825950D01*
X1022634Y827210D01*
X1023725Y829100D01*
X1024290Y831209D01*
Y833391D01*
X1023725Y835500D01*
X1022634Y837390D01*
X1021374Y838650D01*
X1022634Y839910D01*
X1023725Y841800D01*
X1024290Y843909D01*
Y846091D01*
X1023725Y848200D01*
X1022634Y850090D01*
X1021374Y851350D01*
X1022634Y852610D01*
X1023725Y854500D01*
X1024290Y856609D01*
Y858791D01*
X1023725Y860900D01*
X1022634Y862790D01*
X1021374Y864050D01*
X1022634Y865310D01*
X1023725Y867200D01*
X1024290Y869309D01*
Y871491D01*
X1023725Y873600D01*
X1022634Y875490D01*
X1021090Y877034D01*
X1019200Y878125D01*
X1017091Y878690D01*
X1014909D01*
X1012800Y878125D01*
X1010910Y877034D01*
X1009650Y875774D01*
X1008390Y877034D01*
X1006500Y878125D01*
X1004391Y878690D01*
X1002209D01*
X1000100Y878125D01*
X998210Y877034D01*
X996666Y875490D01*
X995970Y874285D01*
X894257D01*
X893916Y875555D01*
X894630Y875966D01*
X896033Y877370D01*
X897026Y879090D01*
X897540Y881007D01*
Y882993D01*
X897026Y884910D01*
X896033Y886630D01*
X895613Y887050D01*
X896139Y888320D01*
X932016D01*
X932370Y887967D01*
X934090Y886974D01*
X936007Y886460D01*
X937993D01*
X939910Y886974D01*
X941630Y887967D01*
X943034Y889370D01*
X944026Y891090D01*
X944540Y893007D01*
Y894993D01*
X944026Y896910D01*
X943034Y898630D01*
X941630Y900033D01*
X939910Y901026D01*
X937993Y901540D01*
X936007D01*
X934090Y901026D01*
X932370Y900033D01*
X931016Y898680D01*
X883540D01*
Y903040D01*
X867460D01*
Y903040D01*
X866540D01*
Y903040D01*
X850460D01*
Y899382D01*
X849318Y898889D01*
X848485Y899571D01*
Y909201D01*
X849915Y909793D01*
X852117Y911483D01*
X853807Y913684D01*
X854869Y916248D01*
X855231Y919000D01*
Y923000D01*
X854869Y925751D01*
X853807Y928316D01*
X852117Y930517D01*
X849915Y932207D01*
X847970Y933013D01*
Y934387D01*
X849915Y935193D01*
X852117Y936883D01*
X853807Y939084D01*
X854869Y941648D01*
X855231Y944400D01*
Y948400D01*
X854869Y951152D01*
X853807Y953716D01*
X852117Y955917D01*
X849915Y957607D01*
X847352Y958669D01*
X844600Y959031D01*
X841849Y958669D01*
X839285Y957607D01*
X837083Y955917D01*
X835393Y953716D01*
X834331Y951152D01*
X833969Y948400D01*
Y944400D01*
X834331Y941648D01*
X835393Y939084D01*
X837083Y936883D01*
X839285Y935193D01*
X841230Y934387D01*
Y933013D01*
X839285Y932207D01*
X837083Y930517D01*
X835393Y928316D01*
X834331Y925751D01*
X833969Y923000D01*
Y919000D01*
X834331Y916248D01*
X835393Y913684D01*
X837083Y911483D01*
X839285Y909793D01*
X840715Y909201D01*
Y897906D01*
X841011Y896420D01*
X841853Y895159D01*
X846759Y890253D01*
X848020Y889411D01*
X849506Y889115D01*
X850460D01*
Y885885D01*
X824344D01*
X823818Y887155D01*
X824034Y887370D01*
X825026Y889090D01*
X825540Y891007D01*
Y892993D01*
X825026Y894910D01*
X824034Y896630D01*
X822630Y898034D01*
X820910Y899026D01*
X818993Y899540D01*
X817007D01*
X815090Y899026D01*
X813370Y898034D01*
X812516Y897179D01*
X806540D01*
Y903040D01*
X790460D01*
Y903040D01*
X789540D01*
Y903040D01*
X773460D01*
Y903040D01*
X772285Y903269D01*
Y909201D01*
X773716Y909793D01*
X775917Y911483D01*
X777607Y913684D01*
X778669Y916248D01*
X779031Y919000D01*
Y923000D01*
X778669Y925751D01*
X777607Y928316D01*
X775917Y930517D01*
X773716Y932207D01*
X771770Y933013D01*
Y934387D01*
X773716Y935193D01*
X775917Y936883D01*
X777607Y939084D01*
X778669Y941648D01*
X779031Y944400D01*
Y948400D01*
X778669Y951152D01*
X777607Y953716D01*
X775917Y955917D01*
X773716Y957607D01*
X771152Y958669D01*
X768400Y959031D01*
X765648Y958669D01*
X763084Y957607D01*
X760883Y955917D01*
X759193Y953716D01*
X758131Y951152D01*
X757769Y948400D01*
Y944400D01*
X758131Y941648D01*
X759193Y939084D01*
X760883Y936883D01*
X763084Y935193D01*
X765030Y934387D01*
Y933013D01*
X763084Y932207D01*
X760883Y930517D01*
X759193Y928316D01*
X758131Y925751D01*
X757769Y923000D01*
Y919000D01*
X758131Y916248D01*
X759193Y913684D01*
X760883Y911483D01*
X763084Y909793D01*
X764515Y909201D01*
Y897600D01*
X764811Y896113D01*
X765653Y894853D01*
X769931Y890575D01*
X771191Y889733D01*
X772678Y889437D01*
X773460D01*
Y885885D01*
X710609D01*
X696085Y900409D01*
Y909201D01*
X697515Y909793D01*
X699717Y911483D01*
X701407Y913684D01*
X702469Y916248D01*
X702831Y919000D01*
Y923000D01*
X702469Y925751D01*
X701407Y928316D01*
X699717Y930517D01*
X697515Y932207D01*
X695570Y933013D01*
Y934387D01*
X697515Y935193D01*
X699717Y936883D01*
X701407Y939084D01*
X702469Y941648D01*
X702831Y944400D01*
Y948400D01*
X702469Y951152D01*
X701407Y953716D01*
X699717Y955917D01*
X697515Y957607D01*
X694951Y958669D01*
X692200Y959031D01*
X689448Y958669D01*
X686885Y957607D01*
X684683Y955917D01*
X684155Y955229D01*
X682885Y955660D01*
Y967251D01*
X685658Y970024D01*
X710460D01*
Y963960D01*
X726190D01*
X726540Y963960D01*
X727460D01*
X727810Y963960D01*
X743540D01*
Y970115D01*
X795391D01*
X802115Y963391D01*
Y956881D01*
X800845Y956279D01*
X799116Y957607D01*
X796552Y958669D01*
X793800Y959031D01*
X791049Y958669D01*
X788484Y957607D01*
X786283Y955917D01*
X784593Y953716D01*
X783531Y951152D01*
X783169Y948400D01*
Y944400D01*
X783531Y941648D01*
X784593Y939084D01*
X786283Y936883D01*
X788484Y935193D01*
X790430Y934387D01*
Y933013D01*
X788484Y932207D01*
X786283Y930517D01*
X784593Y928316D01*
X783531Y925751D01*
X783169Y923000D01*
Y919000D01*
X783531Y916248D01*
X784593Y913684D01*
X786283Y911483D01*
X788484Y909793D01*
X791049Y908731D01*
X793800Y908369D01*
X796552Y908731D01*
X799116Y909793D01*
X801317Y911483D01*
X803007Y913684D01*
X804069Y916248D01*
X804431Y919000D01*
Y923000D01*
X804069Y925751D01*
X803007Y928316D01*
X801317Y930517D01*
X799116Y932207D01*
X797170Y933013D01*
Y934387D01*
X799116Y935193D01*
X800845Y936521D01*
X801929Y936076D01*
X802127Y935939D01*
X802411Y934513D01*
X803253Y933253D01*
X809465Y927041D01*
X808931Y925751D01*
X808569Y923000D01*
Y919000D01*
X808931Y916248D01*
X809993Y913684D01*
X811683Y911483D01*
X813885Y909793D01*
X816449Y908731D01*
X819200Y908369D01*
X821952Y908731D01*
X824516Y909793D01*
X826717Y911483D01*
X828407Y913684D01*
X829469Y916248D01*
X829831Y919000D01*
Y923000D01*
X829469Y925751D01*
X828407Y928316D01*
X826717Y930517D01*
X824516Y932207D01*
X822570Y933013D01*
Y934387D01*
X824516Y935193D01*
X826717Y936883D01*
X828407Y939084D01*
X829469Y941648D01*
X829831Y944400D01*
Y948400D01*
X829469Y951152D01*
X828407Y953716D01*
X826717Y955917D01*
X824516Y957607D01*
X821952Y958669D01*
X819200Y959031D01*
X816449Y958669D01*
X813885Y957607D01*
X811683Y955917D01*
X811155Y955229D01*
X809885Y955660D01*
Y965000D01*
X809589Y966487D01*
X808747Y967747D01*
X799747Y976747D01*
X798487Y977589D01*
X797000Y977885D01*
X743540D01*
Y984040D01*
X727810D01*
X727460Y984040D01*
D02*
G37*
G36*
X641400Y959031D02*
X638648Y958669D01*
X636085Y957607D01*
X633883Y955917D01*
X632193Y953716D01*
X631309Y951580D01*
X627400D01*
X625418Y951185D01*
X623737Y950062D01*
X612855Y939180D01*
X580540D01*
Y944040D01*
X564810D01*
X564460Y944040D01*
X563540D01*
X563190Y944040D01*
X547460D01*
Y939180D01*
X537484D01*
X536630Y940033D01*
X534910Y941026D01*
X532993Y941540D01*
X531007D01*
X529090Y941026D01*
X527370Y940033D01*
X525966Y938630D01*
X524974Y936910D01*
X524460Y934993D01*
Y933007D01*
X524974Y931090D01*
X525966Y929370D01*
X527370Y927967D01*
X529090Y926974D01*
X531007Y926460D01*
X532993D01*
X534910Y926974D01*
X536630Y927967D01*
X537484Y928820D01*
X547460D01*
Y923960D01*
X563190D01*
X563540Y923960D01*
X564460D01*
X564810Y923960D01*
X580540D01*
Y928820D01*
X612855D01*
X624338Y917337D01*
X626018Y916215D01*
X628000Y915820D01*
X628000Y915820D01*
X630860D01*
Y908460D01*
X651940D01*
Y933540D01*
X646043D01*
X645790Y934810D01*
X646715Y935193D01*
X648917Y936883D01*
X650607Y939084D01*
X651669Y941648D01*
X652031Y944400D01*
Y948400D01*
X651669Y951152D01*
X650607Y953716D01*
X648917Y955917D01*
X646715Y957607D01*
X644152Y958669D01*
X641400Y959031D01*
D02*
G37*
G36*
X341783Y945540D02*
X338217D01*
X334774Y944617D01*
X331686Y942835D01*
X329165Y940314D01*
X327383Y937226D01*
X326807Y935079D01*
X325493D01*
X324917Y937226D01*
X323135Y940314D01*
X320614Y942835D01*
X317526Y944617D01*
X314083Y945540D01*
X310517D01*
X307074Y944617D01*
X303986Y942835D01*
X301465Y940314D01*
X299683Y937226D01*
X299107Y935079D01*
X297793D01*
X297217Y937226D01*
X295435Y940314D01*
X292914Y942835D01*
X289826Y944617D01*
X286383Y945540D01*
X282817D01*
X279374Y944617D01*
X276286Y942835D01*
X273765Y940314D01*
X271983Y937226D01*
X271407Y935079D01*
X270093D01*
X269517Y937226D01*
X267735Y940314D01*
X265214Y942835D01*
X262126Y944617D01*
X258683Y945540D01*
X255117D01*
X251674Y944617D01*
X248586Y942835D01*
X246065Y940314D01*
X244283Y937226D01*
X243360Y933783D01*
Y930217D01*
X244283Y926774D01*
X246065Y923686D01*
X248586Y921165D01*
X251674Y919383D01*
X255117Y918460D01*
X258683D01*
X262126Y919383D01*
X265214Y921165D01*
X267735Y923686D01*
X269517Y926774D01*
X270093Y928921D01*
X271407D01*
X271983Y926774D01*
X273765Y923686D01*
X276286Y921165D01*
X279374Y919383D01*
X282817Y918460D01*
X286383D01*
X289826Y919383D01*
X292914Y921165D01*
X295435Y923686D01*
X297217Y926774D01*
X297793Y928921D01*
X299107D01*
X299683Y926774D01*
X301465Y923686D01*
X303986Y921165D01*
X307074Y919383D01*
X310517Y918460D01*
X314083D01*
X317526Y919383D01*
X320614Y921165D01*
X323135Y923686D01*
X324917Y926774D01*
X325493Y928921D01*
X326807D01*
X327383Y926774D01*
X329165Y923686D01*
X331686Y921165D01*
X334774Y919383D01*
X338217Y918460D01*
X341783D01*
X345226Y919383D01*
X348314Y921165D01*
X350835Y923686D01*
X352617Y926774D01*
X353540Y930217D01*
Y933783D01*
X352617Y937226D01*
X350835Y940314D01*
X348314Y942835D01*
X345226Y944617D01*
X341783Y945540D01*
D02*
G37*
G36*
X1019561Y992540D02*
X1014439D01*
X1009380Y991739D01*
X1004509Y990156D01*
X999945Y987831D01*
X995802Y984820D01*
X992180Y981198D01*
X989169Y977055D01*
X986844Y972491D01*
X985261Y967620D01*
X984460Y962561D01*
Y957439D01*
X985261Y952380D01*
X986844Y947509D01*
X989169Y942945D01*
X992180Y938802D01*
X995802Y935180D01*
X999945Y932169D01*
X1004509Y929844D01*
X1009380Y928261D01*
X1014439Y927460D01*
X1019561D01*
X1024620Y928261D01*
X1029491Y929844D01*
X1034055Y932169D01*
X1038198Y935180D01*
X1041820Y938802D01*
X1044831Y942945D01*
X1047156Y947509D01*
X1048739Y952380D01*
X1049540Y957439D01*
Y962561D01*
X1048739Y967620D01*
X1047156Y972491D01*
X1044831Y977055D01*
X1041820Y981198D01*
X1038198Y984820D01*
X1034055Y987831D01*
X1029491Y990156D01*
X1024620Y991739D01*
X1019561Y992540D01*
D02*
G37*
G36*
X99561D02*
X94439D01*
X89380Y991739D01*
X84509Y990156D01*
X79945Y987831D01*
X75802Y984820D01*
X72180Y981198D01*
X69169Y977055D01*
X66844Y972491D01*
X65261Y967620D01*
X64460Y962561D01*
Y957439D01*
X65261Y952380D01*
X66844Y947509D01*
X69169Y942945D01*
X72180Y938802D01*
X75802Y935180D01*
X79945Y932169D01*
X84509Y929844D01*
X89380Y928261D01*
X94439Y927460D01*
X99561D01*
X104620Y928261D01*
X109491Y929844D01*
X114055Y932169D01*
X118198Y935180D01*
X121820Y938802D01*
X124831Y942945D01*
X127156Y947509D01*
X128739Y952380D01*
X129540Y957439D01*
Y962561D01*
X128739Y967620D01*
X127156Y972491D01*
X124831Y977055D01*
X121820Y981198D01*
X118198Y984820D01*
X114055Y987831D01*
X109491Y990156D01*
X104620Y991739D01*
X99561Y992540D01*
D02*
G37*
G36*
X870000Y959031D02*
X867249Y958669D01*
X864685Y957607D01*
X862483Y955917D01*
X860793Y953716D01*
X859731Y951152D01*
X859369Y948400D01*
Y944400D01*
X859731Y941648D01*
X860793Y939084D01*
X862483Y936883D01*
X864685Y935193D01*
X866630Y934387D01*
Y933013D01*
X864685Y932207D01*
X862483Y930517D01*
X860793Y928316D01*
X859731Y925751D01*
X859369Y923000D01*
Y919000D01*
X859731Y916248D01*
X860793Y913684D01*
X862483Y911483D01*
X864685Y909793D01*
X867249Y908731D01*
X870000Y908369D01*
X872751Y908731D01*
X875315Y909793D01*
X877517Y911483D01*
X879207Y913684D01*
X880269Y916248D01*
X880383Y917115D01*
X892460D01*
Y910960D01*
X908190D01*
X908540Y910960D01*
X909460D01*
X909810Y910960D01*
X925540D01*
Y915820D01*
X931516D01*
X932370Y914967D01*
X934090Y913974D01*
X936007Y913460D01*
X937993D01*
X939910Y913974D01*
X941630Y914967D01*
X943034Y916370D01*
X944026Y918090D01*
X944540Y920007D01*
Y921993D01*
X944026Y923910D01*
X943034Y925630D01*
X941630Y927033D01*
X939910Y928026D01*
X937993Y928540D01*
X936007D01*
X934090Y928026D01*
X932370Y927033D01*
X931516Y926180D01*
X925540D01*
Y931040D01*
X909810D01*
X909460Y931040D01*
X908540D01*
X908190Y931040D01*
X892460D01*
Y924885D01*
X880383D01*
X880269Y925751D01*
X879207Y928316D01*
X877517Y930517D01*
X875315Y932207D01*
X873370Y933013D01*
Y934387D01*
X875315Y935193D01*
X877517Y936883D01*
X879207Y939084D01*
X880269Y941648D01*
X880631Y944400D01*
Y948400D01*
X880269Y951152D01*
X879207Y953716D01*
X877517Y955917D01*
X875315Y957607D01*
X872751Y958669D01*
X870000Y959031D01*
D02*
G37*
G36*
X743000D02*
X740248Y958669D01*
X737684Y957607D01*
X735483Y955917D01*
X733793Y953716D01*
X732731Y951152D01*
X732369Y948400D01*
Y944400D01*
X732731Y941648D01*
X733793Y939084D01*
X735483Y936883D01*
X737684Y935193D01*
X739630Y934387D01*
Y933013D01*
X737684Y932207D01*
X735483Y930517D01*
X733793Y928316D01*
X732731Y925751D01*
X732369Y923000D01*
Y919000D01*
X732731Y916248D01*
X733793Y913684D01*
X735483Y911483D01*
X737684Y909793D01*
X740248Y908731D01*
X743000Y908369D01*
X745751Y908731D01*
X748316Y909793D01*
X750517Y911483D01*
X752207Y913684D01*
X753269Y916248D01*
X753631Y919000D01*
Y923000D01*
X753269Y925751D01*
X752207Y928316D01*
X750517Y930517D01*
X748316Y932207D01*
X746370Y933013D01*
Y934387D01*
X748316Y935193D01*
X750517Y936883D01*
X752207Y939084D01*
X753269Y941648D01*
X753631Y944400D01*
Y948400D01*
X753269Y951152D01*
X752207Y953716D01*
X750517Y955917D01*
X748316Y957607D01*
X745751Y958669D01*
X743000Y959031D01*
D02*
G37*
G36*
X717600D02*
X714848Y958669D01*
X712284Y957607D01*
X710083Y955917D01*
X708393Y953716D01*
X707331Y951152D01*
X706969Y948400D01*
Y944400D01*
X707331Y941648D01*
X708393Y939084D01*
X710083Y936883D01*
X712284Y935193D01*
X714230Y934387D01*
Y933013D01*
X712284Y932207D01*
X710083Y930517D01*
X708393Y928316D01*
X707331Y925751D01*
X706969Y923000D01*
Y919000D01*
X707331Y916248D01*
X708393Y913684D01*
X710083Y911483D01*
X712284Y909793D01*
X714848Y908731D01*
X717600Y908369D01*
X720351Y908731D01*
X722915Y909793D01*
X725117Y911483D01*
X726807Y913684D01*
X727869Y916248D01*
X728231Y919000D01*
Y923000D01*
X727869Y925751D01*
X726807Y928316D01*
X725117Y930517D01*
X722915Y932207D01*
X720970Y933013D01*
Y934387D01*
X722915Y935193D01*
X725117Y936883D01*
X726807Y939084D01*
X727869Y941648D01*
X728231Y944400D01*
Y948400D01*
X727869Y951152D01*
X726807Y953716D01*
X725117Y955917D01*
X722915Y957607D01*
X720351Y958669D01*
X717600Y959031D01*
D02*
G37*
G36*
X355633Y917140D02*
X352067D01*
X348624Y916217D01*
X345536Y914435D01*
X343015Y911914D01*
X341233Y908826D01*
X340657Y906679D01*
X339343D01*
X338767Y908826D01*
X336985Y911914D01*
X334464Y914435D01*
X331376Y916217D01*
X327933Y917140D01*
X324367D01*
X320924Y916217D01*
X317836Y914435D01*
X315315Y911914D01*
X313533Y908826D01*
X312957Y906679D01*
X311643D01*
X311067Y908826D01*
X309285Y911914D01*
X306764Y914435D01*
X303676Y916217D01*
X300233Y917140D01*
X296667D01*
X293224Y916217D01*
X290136Y914435D01*
X287615Y911914D01*
X285833Y908826D01*
X285257Y906679D01*
X283943D01*
X283367Y908826D01*
X281585Y911914D01*
X279064Y914435D01*
X275976Y916217D01*
X272533Y917140D01*
X268967D01*
X265524Y916217D01*
X262436Y914435D01*
X259915Y911914D01*
X258133Y908826D01*
X257860Y907809D01*
X256590Y907976D01*
Y917140D01*
X229510D01*
Y890060D01*
X256590D01*
Y899224D01*
X257860Y899391D01*
X258133Y898374D01*
X259915Y895286D01*
X262436Y892765D01*
X265524Y890983D01*
X268967Y890060D01*
X272533D01*
X275976Y890983D01*
X279064Y892765D01*
X281585Y895286D01*
X283367Y898374D01*
X283943Y900521D01*
X285257D01*
X285833Y898374D01*
X287615Y895286D01*
X290136Y892765D01*
X293224Y890983D01*
X296667Y890060D01*
X300233D01*
X303676Y890983D01*
X306764Y892765D01*
X309285Y895286D01*
X311067Y898374D01*
X311643Y900521D01*
X312957D01*
X313533Y898374D01*
X315315Y895286D01*
X317836Y892765D01*
X320924Y890983D01*
X324367Y890060D01*
X327933D01*
X331376Y890983D01*
X334464Y892765D01*
X336985Y895286D01*
X338767Y898374D01*
X339343Y900521D01*
X340657D01*
X341233Y898374D01*
X343015Y895286D01*
X345536Y892765D01*
X348624Y890983D01*
X352067Y890060D01*
X355633D01*
X359076Y890983D01*
X362164Y892765D01*
X364685Y895286D01*
X366467Y898374D01*
X367390Y901817D01*
Y905383D01*
X366467Y908826D01*
X364685Y911914D01*
X362164Y914435D01*
X359076Y916217D01*
X355633Y917140D01*
D02*
G37*
G36*
X425979Y950314D02*
X420857D01*
X415798Y949513D01*
X410927Y947930D01*
X406363Y945605D01*
X402220Y942594D01*
X398598Y938972D01*
X395587Y934829D01*
X393262Y930265D01*
X391679Y925394D01*
X390878Y920335D01*
Y915213D01*
X391679Y910154D01*
X393262Y905283D01*
X395587Y900719D01*
X398598Y896576D01*
X402220Y892954D01*
X406363Y889943D01*
X410927Y887618D01*
X415798Y886035D01*
X420857Y885234D01*
X425979D01*
X431038Y886035D01*
X435909Y887618D01*
X440473Y889943D01*
X444616Y892954D01*
X448238Y896576D01*
X451249Y900719D01*
X453574Y905283D01*
X455157Y910154D01*
X455958Y915213D01*
Y920335D01*
X455157Y925394D01*
X453574Y930265D01*
X451249Y934829D01*
X448238Y938972D01*
X444616Y942594D01*
X440473Y945605D01*
X435909Y947930D01*
X431038Y949513D01*
X425979Y950314D01*
D02*
G37*
G36*
X176043D02*
X170921D01*
X165862Y949513D01*
X160991Y947930D01*
X156427Y945605D01*
X152284Y942594D01*
X148662Y938972D01*
X145651Y934829D01*
X143326Y930265D01*
X141743Y925394D01*
X140942Y920335D01*
Y915213D01*
X141743Y910154D01*
X143326Y905283D01*
X145651Y900719D01*
X148662Y896576D01*
X152284Y892954D01*
X156427Y889943D01*
X160991Y887618D01*
X165862Y886035D01*
X170921Y885234D01*
X176043D01*
X181102Y886035D01*
X185973Y887618D01*
X190537Y889943D01*
X194680Y892954D01*
X198302Y896576D01*
X201313Y900719D01*
X203638Y905283D01*
X205221Y910154D01*
X206022Y915213D01*
Y920335D01*
X205221Y925394D01*
X203638Y930265D01*
X201313Y934829D01*
X198302Y938972D01*
X194680Y942594D01*
X190537Y945605D01*
X185973Y947930D01*
X181102Y949513D01*
X176043Y950314D01*
D02*
G37*
G36*
X359993Y858540D02*
X358007D01*
X356090Y858026D01*
X354370Y857033D01*
X352966Y855630D01*
X351974Y853910D01*
X351460Y851993D01*
Y850007D01*
X351974Y848090D01*
X352966Y846370D01*
X354370Y844967D01*
X356090Y843974D01*
X358007Y843460D01*
X359993D01*
X361910Y843974D01*
X363630Y844967D01*
X365033Y846370D01*
X366026Y848090D01*
X366540Y850007D01*
Y851993D01*
X366026Y853910D01*
X365033Y855630D01*
X363630Y857033D01*
X361910Y858026D01*
X359993Y858540D01*
D02*
G37*
G36*
X542993Y857540D02*
X541007D01*
X539090Y857026D01*
X537370Y856033D01*
X535966Y854630D01*
X534974Y852910D01*
X534460Y850993D01*
Y849007D01*
X534974Y847090D01*
X535966Y845370D01*
X537370Y843967D01*
X539090Y842974D01*
X541007Y842460D01*
X542993D01*
X544910Y842974D01*
X546630Y843967D01*
X548033Y845370D01*
X549026Y847090D01*
X549540Y849007D01*
Y850993D01*
X549026Y852910D01*
X548033Y854630D01*
X546630Y856033D01*
X544910Y857026D01*
X542993Y857540D01*
D02*
G37*
G36*
X163040Y846040D02*
X145960D01*
Y841180D01*
X136484D01*
X135630Y842033D01*
X133910Y843026D01*
X131993Y843540D01*
X130007D01*
X128090Y843026D01*
X126370Y842033D01*
X124966Y840630D01*
X123974Y838910D01*
X123460Y836993D01*
Y835007D01*
X123974Y833090D01*
X124966Y831370D01*
X126370Y829967D01*
X128090Y828974D01*
X130007Y828460D01*
X131993D01*
X133910Y828974D01*
X135630Y829967D01*
X136484Y830820D01*
X145960D01*
Y825960D01*
X163040D01*
Y846040D01*
D02*
G37*
G36*
X182040D02*
X164960D01*
Y825960D01*
X182040D01*
Y830820D01*
X185516D01*
X186370Y829967D01*
X188090Y828974D01*
X190007Y828460D01*
X191993D01*
X193910Y828974D01*
X195630Y829967D01*
X197034Y831370D01*
X198026Y833090D01*
X198540Y835007D01*
Y836993D01*
X198026Y838910D01*
X197034Y840630D01*
X195630Y842033D01*
X193910Y843026D01*
X191993Y843540D01*
X190007D01*
X188090Y843026D01*
X186370Y842033D01*
X185516Y841180D01*
X182040D01*
Y846040D01*
D02*
G37*
G36*
X359993Y840540D02*
X358007D01*
X356090Y840026D01*
X354370Y839034D01*
X352966Y837630D01*
X351974Y835910D01*
X351460Y833993D01*
Y832007D01*
X351974Y830090D01*
X352966Y828370D01*
X354370Y826966D01*
X356090Y825974D01*
X358007Y825460D01*
X359993D01*
X361910Y825974D01*
X363630Y826966D01*
X365033Y828370D01*
X366026Y830090D01*
X366540Y832007D01*
Y833993D01*
X366026Y835910D01*
X365033Y837630D01*
X363630Y839034D01*
X361910Y840026D01*
X359993Y840540D01*
D02*
G37*
G36*
X163040Y795040D02*
X145960D01*
Y790180D01*
X136484D01*
X135630Y791033D01*
X133910Y792026D01*
X131993Y792540D01*
X130007D01*
X128090Y792026D01*
X126370Y791033D01*
X124966Y789630D01*
X123974Y787910D01*
X123460Y785993D01*
Y784007D01*
X123974Y782090D01*
X124966Y780370D01*
X126370Y778967D01*
X128090Y777974D01*
X130007Y777460D01*
X131993D01*
X133910Y777974D01*
X135630Y778967D01*
X136484Y779820D01*
X145960D01*
Y774960D01*
X163040D01*
Y795040D01*
D02*
G37*
G36*
X367040Y804040D02*
X346960D01*
Y786960D01*
X367040D01*
Y790571D01*
X374766D01*
X375370Y789967D01*
X377090Y788974D01*
X379007Y788460D01*
X380993D01*
X382910Y788974D01*
X384630Y789967D01*
X386034Y791370D01*
X387026Y793090D01*
X387540Y795007D01*
Y796993D01*
X387026Y798910D01*
X386034Y800630D01*
X384630Y802033D01*
X382910Y803026D01*
X380993Y803540D01*
X379007D01*
X377090Y803026D01*
X375370Y802033D01*
X374266Y800929D01*
X367040D01*
Y804040D01*
D02*
G37*
G36*
X182040Y795040D02*
X164960D01*
Y774960D01*
X182040D01*
Y780820D01*
X184765D01*
X185869Y779716D01*
X187589Y778724D01*
X189506Y778210D01*
X191492D01*
X193409Y778724D01*
X195129Y779716D01*
X196532Y781120D01*
X197525Y782840D01*
X198039Y784757D01*
Y786743D01*
X197525Y788660D01*
X196532Y790380D01*
X195129Y791784D01*
X193409Y792776D01*
X191492Y793290D01*
X189506D01*
X187589Y792776D01*
X185869Y791784D01*
X185265Y791180D01*
X182040D01*
Y795040D01*
D02*
G37*
G36*
X367040Y785040D02*
X346960D01*
Y767960D01*
X367040D01*
Y770571D01*
X373851D01*
X373966Y770370D01*
X375370Y768967D01*
X377090Y767974D01*
X379007Y767460D01*
X380993D01*
X382910Y767974D01*
X384630Y768967D01*
X386034Y770370D01*
X387026Y772090D01*
X387540Y774007D01*
Y775993D01*
X387026Y777910D01*
X386034Y779630D01*
X384630Y781033D01*
X382910Y782026D01*
X380993Y782540D01*
X379007D01*
X377090Y782026D01*
X375370Y781033D01*
X375266Y780929D01*
X367040D01*
Y785040D01*
D02*
G37*
G36*
X534993Y782540D02*
X533007D01*
X531090Y782026D01*
X529370Y781033D01*
X527966Y779630D01*
X526974Y777910D01*
X526460Y775993D01*
Y774007D01*
X526974Y772090D01*
X527966Y770370D01*
X529370Y768967D01*
X531090Y767974D01*
X533007Y767460D01*
X534993D01*
X535522Y767602D01*
X536849Y766715D01*
X538831Y766320D01*
X538831Y766320D01*
X545960D01*
Y762960D01*
X566040D01*
Y780040D01*
X545960D01*
Y776680D01*
X541356D01*
X541026Y777910D01*
X540033Y779630D01*
X538630Y781033D01*
X536910Y782026D01*
X534993Y782540D01*
D02*
G37*
G36*
X566040Y761040D02*
X545960D01*
Y758680D01*
X538831D01*
X538831Y758680D01*
X536849Y758285D01*
X535522Y757398D01*
X534993Y757540D01*
X533007D01*
X531090Y757026D01*
X529370Y756033D01*
X527966Y754630D01*
X526974Y752910D01*
X526460Y750993D01*
Y749007D01*
X526974Y747090D01*
X527966Y745370D01*
X529370Y743967D01*
X531090Y742974D01*
X533007Y742460D01*
X534993D01*
X536910Y742974D01*
X538630Y743967D01*
X540033Y745370D01*
X541026Y747090D01*
X541356Y748320D01*
X545960D01*
Y743960D01*
X566040D01*
Y761040D01*
D02*
G37*
G36*
X589993Y775540D02*
X588007D01*
X586090Y775026D01*
X584370Y774034D01*
X582966Y772630D01*
X581974Y770910D01*
X581460Y768993D01*
Y767007D01*
X581974Y765090D01*
X582966Y763370D01*
X583820Y762516D01*
Y758040D01*
X578960D01*
Y740960D01*
X599040D01*
Y758040D01*
X594179D01*
Y762516D01*
X595033Y763370D01*
X596026Y765090D01*
X596540Y767007D01*
Y768993D01*
X596026Y770910D01*
X595033Y772630D01*
X593630Y774034D01*
X591910Y775026D01*
X589993Y775540D01*
D02*
G37*
G36*
X322040Y742040D02*
X304960D01*
Y721960D01*
X322040D01*
Y727320D01*
X329016D01*
X329370Y726966D01*
X331090Y725974D01*
X333007Y725460D01*
X334993D01*
X336910Y725974D01*
X338630Y726966D01*
X340033Y728370D01*
X341026Y730090D01*
X341540Y732007D01*
Y733993D01*
X341026Y735910D01*
X340033Y737630D01*
X338630Y739034D01*
X336910Y740026D01*
X334993Y740540D01*
X333007D01*
X331090Y740026D01*
X329370Y739034D01*
X328016Y737680D01*
X322040D01*
Y742040D01*
D02*
G37*
G36*
X303040D02*
X285960D01*
Y737035D01*
X284856D01*
X282874Y736641D01*
X281193Y735518D01*
X281193Y735518D01*
X274338Y728662D01*
X273215Y726982D01*
X272820Y725000D01*
Y717484D01*
X271966Y716630D01*
X270974Y714910D01*
X270460Y712993D01*
Y711007D01*
X270974Y709090D01*
X271966Y707370D01*
X273370Y705966D01*
X275090Y704974D01*
X277007Y704460D01*
X278993D01*
X280910Y704974D01*
X282630Y705966D01*
X284034Y707370D01*
X285026Y709090D01*
X285540Y711007D01*
Y712993D01*
X285026Y714910D01*
X284034Y716630D01*
X283179Y717484D01*
Y722855D01*
X284787Y724462D01*
X285960Y723976D01*
Y721960D01*
X303040D01*
Y742040D01*
D02*
G37*
G36*
X384993Y717540D02*
X383007D01*
X381090Y717026D01*
X379370Y716033D01*
X377966Y714630D01*
X376974Y712910D01*
X376460Y710993D01*
Y709007D01*
X376974Y707090D01*
X377966Y705370D01*
X379370Y703967D01*
X381090Y702974D01*
X383007Y702460D01*
X384993D01*
X386910Y702974D01*
X388630Y703967D01*
X390033Y705370D01*
X391026Y707090D01*
X391540Y709007D01*
Y710993D01*
X391026Y712910D01*
X390033Y714630D01*
X388630Y716033D01*
X386910Y717026D01*
X384993Y717540D01*
D02*
G37*
G36*
X1026974Y716040D02*
X1023026D01*
X1019155Y715270D01*
X1015508Y713759D01*
X1012225Y711566D01*
X1009434Y708775D01*
X1007241Y705492D01*
X1005730Y701845D01*
X1004960Y697974D01*
Y694026D01*
X1005730Y690155D01*
X1007241Y686507D01*
X1009434Y683225D01*
X1012225Y680434D01*
X1015508Y678241D01*
X1019155Y676730D01*
X1023026Y675960D01*
X1026974D01*
X1030845Y676730D01*
X1034492Y678241D01*
X1037775Y680434D01*
X1040566Y683225D01*
X1042759Y686507D01*
X1044270Y690155D01*
X1045040Y694026D01*
Y697974D01*
X1044270Y701845D01*
X1042759Y705492D01*
X1040566Y708775D01*
X1037775Y711566D01*
X1034492Y713759D01*
X1030845Y715270D01*
X1026974Y716040D01*
D02*
G37*
G36*
X965540Y671540D02*
X920460D01*
Y626460D01*
X965540D01*
Y671540D01*
D02*
G37*
G36*
X541993Y628540D02*
X540007D01*
X538090Y628026D01*
X536370Y627034D01*
X534967Y625630D01*
X533974Y623910D01*
X533460Y621993D01*
Y620007D01*
X533974Y618090D01*
X534967Y616370D01*
X536370Y614967D01*
X538090Y613974D01*
X540007Y613460D01*
X541993D01*
X543910Y613974D01*
X545630Y614967D01*
X545734Y615070D01*
X549960D01*
Y610960D01*
X570040D01*
Y628040D01*
X549960D01*
Y625429D01*
X547149D01*
X547034Y625630D01*
X545630Y627034D01*
X543910Y628026D01*
X541993Y628540D01*
D02*
G37*
G36*
X570040Y609040D02*
X549960D01*
Y591960D01*
X554821D01*
Y583484D01*
X554516Y583180D01*
X549040D01*
Y588040D01*
X531960D01*
Y567960D01*
X549040D01*
Y572821D01*
X554516D01*
X555370Y571967D01*
X557090Y570974D01*
X559007Y570460D01*
X560993D01*
X562910Y570974D01*
X564630Y571967D01*
X566034Y573370D01*
X567026Y575090D01*
X567540Y577007D01*
Y578993D01*
X567026Y580910D01*
X566034Y582630D01*
X565179Y583484D01*
Y591960D01*
X570040D01*
Y609040D01*
D02*
G37*
G36*
X504540Y620540D02*
X479460D01*
Y601460D01*
X483656D01*
X483924Y600894D01*
X484002Y600190D01*
X482196Y598804D01*
X480667Y596811D01*
X479706Y594491D01*
X479378Y592000D01*
X479706Y589510D01*
X480667Y587189D01*
X482196Y585196D01*
X484189Y583667D01*
X486510Y582706D01*
X489000Y582378D01*
X495000D01*
X497491Y582706D01*
X499811Y583667D01*
X501804Y585196D01*
X503333Y587189D01*
X504295Y589510D01*
X504622Y592000D01*
X504295Y594491D01*
X503333Y596811D01*
X501804Y598804D01*
X499998Y600190D01*
X500076Y600894D01*
X500344Y601460D01*
X504540D01*
Y620540D01*
D02*
G37*
G36*
X945220Y621540D02*
X940780D01*
X936425Y620674D01*
X932323Y618975D01*
X928632Y616508D01*
X925492Y613368D01*
X923025Y609677D01*
X921326Y605575D01*
X920460Y601220D01*
Y596780D01*
X921326Y592425D01*
X923025Y588323D01*
X925492Y584632D01*
X928632Y581492D01*
X932323Y579025D01*
X936425Y577326D01*
X940780Y576460D01*
X945220D01*
X949575Y577326D01*
X953677Y579025D01*
X957368Y581492D01*
X960508Y584632D01*
X962975Y588323D01*
X964674Y592425D01*
X965540Y596780D01*
Y601220D01*
X964674Y605575D01*
X962975Y609677D01*
X960508Y613368D01*
X957368Y616508D01*
X953677Y618975D01*
X949575Y620674D01*
X945220Y621540D01*
D02*
G37*
G36*
X597493Y640040D02*
X595507D01*
X593590Y639526D01*
X591870Y638534D01*
X590466Y637130D01*
X589474Y635410D01*
X588960Y633493D01*
Y631507D01*
X589474Y629590D01*
X590466Y627870D01*
X591320Y627016D01*
Y620540D01*
X585960D01*
Y604810D01*
X585960Y604460D01*
Y603540D01*
X585960Y603190D01*
Y587460D01*
X592612D01*
Y584464D01*
X591867Y584034D01*
X590463Y582630D01*
X589470Y580910D01*
X588956Y578993D01*
Y577007D01*
X589470Y575090D01*
X590463Y573370D01*
X591867Y571967D01*
X593586Y570974D01*
X595504Y570460D01*
X597489D01*
X599407Y570974D01*
X601126Y571967D01*
X602530Y573370D01*
X603522Y575090D01*
X604036Y577007D01*
Y578993D01*
X603522Y580910D01*
X602530Y582630D01*
X601126Y584034D01*
X600381Y584464D01*
Y587460D01*
X606040D01*
Y603190D01*
X606040Y603540D01*
Y604460D01*
X606040Y604810D01*
Y620540D01*
X601679D01*
Y627016D01*
X602533Y627870D01*
X603526Y629590D01*
X604040Y631507D01*
Y633493D01*
X603526Y635410D01*
X602533Y637130D01*
X601130Y638534D01*
X599410Y639526D01*
X597493Y640040D01*
D02*
G37*
G36*
X578993Y585540D02*
X577007D01*
X575090Y585026D01*
X573370Y584034D01*
X571967Y582630D01*
X570974Y580910D01*
X570460Y578993D01*
Y577007D01*
X570974Y575090D01*
X571967Y573370D01*
X573370Y571967D01*
X575090Y570974D01*
X577007Y570460D01*
X578993D01*
X580910Y570974D01*
X582630Y571967D01*
X584034Y573370D01*
X585026Y575090D01*
X585540Y577007D01*
Y578993D01*
X585026Y580910D01*
X584034Y582630D01*
X582630Y584034D01*
X580910Y585026D01*
X578993Y585540D01*
D02*
G37*
G36*
X522993Y607540D02*
X521007D01*
X519090Y607026D01*
X517370Y606034D01*
X515966Y604630D01*
X514974Y602910D01*
X514460Y600993D01*
Y599007D01*
X514974Y597090D01*
X515966Y595370D01*
X516571Y594766D01*
Y588040D01*
X512960D01*
Y567960D01*
X530040D01*
Y588040D01*
X526930D01*
Y594266D01*
X528033Y595370D01*
X529026Y597090D01*
X529540Y599007D01*
Y600993D01*
X529026Y602910D01*
X528033Y604630D01*
X526630Y606034D01*
X524910Y607026D01*
X522993Y607540D01*
D02*
G37*
G36*
X729040Y586040D02*
X708960D01*
Y568960D01*
X729040D01*
Y570821D01*
X731516D01*
X732370Y569967D01*
X734090Y568974D01*
X734960Y568741D01*
Y551960D01*
X755040D01*
Y569040D01*
X749325D01*
X749187Y569734D01*
X748205Y571205D01*
X744511Y574898D01*
X744540Y575007D01*
Y576993D01*
X744026Y578910D01*
X743034Y580630D01*
X741630Y582034D01*
X739910Y583026D01*
X737993Y583540D01*
X736007D01*
X734090Y583026D01*
X732370Y582034D01*
X731516Y581180D01*
X729040D01*
Y586040D01*
D02*
G37*
G36*
X1027220Y581540D02*
X1022780D01*
X1018425Y580674D01*
X1014323Y578975D01*
X1010632Y576508D01*
X1007492Y573368D01*
X1005025Y569677D01*
X1003326Y565575D01*
X1002460Y561220D01*
Y556780D01*
X1003326Y552425D01*
X1005025Y548323D01*
X1007492Y544632D01*
X1010632Y541492D01*
X1014323Y539025D01*
X1018425Y537326D01*
X1022780Y536460D01*
X1027220D01*
X1031575Y537326D01*
X1035677Y539025D01*
X1039368Y541492D01*
X1042508Y544632D01*
X1044975Y548323D01*
X1046674Y552425D01*
X1047540Y556780D01*
Y561220D01*
X1046674Y565575D01*
X1044975Y569677D01*
X1042508Y573368D01*
X1039368Y576508D01*
X1035677Y578975D01*
X1031575Y580674D01*
X1027220Y581540D01*
D02*
G37*
G36*
X494993Y550540D02*
X493007D01*
X491090Y550026D01*
X489370Y549034D01*
X487966Y547630D01*
X486974Y545910D01*
X486460Y543993D01*
Y542007D01*
X486974Y540090D01*
X487966Y538370D01*
X489370Y536967D01*
X491090Y535974D01*
X493007Y535460D01*
X494993D01*
X496910Y535974D01*
X498630Y536967D01*
X500033Y538370D01*
X501026Y540090D01*
X501540Y542007D01*
Y543993D01*
X501026Y545910D01*
X500033Y547630D01*
X498630Y549034D01*
X496910Y550026D01*
X494993Y550540D01*
D02*
G37*
G36*
X831993Y537540D02*
X830007D01*
X828090Y537026D01*
X826370Y536034D01*
X824967Y534630D01*
X823974Y532910D01*
X823460Y530993D01*
Y529007D01*
X823974Y527090D01*
X824967Y525370D01*
X825820Y524516D01*
Y519540D01*
X822460D01*
Y505460D01*
X839540D01*
Y519540D01*
X836180D01*
Y524516D01*
X837033Y525370D01*
X838026Y527090D01*
X838540Y529007D01*
Y530993D01*
X838026Y532910D01*
X837033Y534630D01*
X835630Y536034D01*
X833910Y537026D01*
X831993Y537540D01*
D02*
G37*
G36*
X489993Y508540D02*
X488007D01*
X486090Y508026D01*
X484370Y507034D01*
X482966Y505630D01*
X481974Y503910D01*
X481460Y501993D01*
Y500007D01*
X481974Y498090D01*
X482966Y496370D01*
X484370Y494967D01*
X486090Y493974D01*
X488007Y493460D01*
X489993D01*
X491910Y493974D01*
X493630Y494967D01*
X495033Y496370D01*
X496026Y498090D01*
X496540Y500007D01*
Y501993D01*
X496026Y503910D01*
X495033Y505630D01*
X493630Y507034D01*
X491910Y508026D01*
X489993Y508540D01*
D02*
G37*
G36*
X965540Y536540D02*
X920460D01*
Y491460D01*
X965540D01*
Y536540D01*
D02*
G37*
G36*
X571993Y493540D02*
X570007D01*
X568090Y493026D01*
X566370Y492034D01*
X565516Y491180D01*
X559040D01*
Y493040D01*
X538960D01*
Y475960D01*
X559040D01*
Y480821D01*
X565516D01*
X566370Y479967D01*
X568090Y478974D01*
X570007Y478460D01*
X571993D01*
X573910Y478974D01*
X575630Y479967D01*
X577034Y481370D01*
X578026Y483090D01*
X578540Y485007D01*
Y486993D01*
X578026Y488910D01*
X577034Y490630D01*
X575630Y492034D01*
X573910Y493026D01*
X571993Y493540D01*
D02*
G37*
G36*
X863993Y537540D02*
X862007D01*
X860090Y537026D01*
X858370Y536034D01*
X856966Y534630D01*
X855974Y532910D01*
X855460Y530993D01*
Y529007D01*
X855974Y527090D01*
X856966Y525370D01*
X857821Y524516D01*
Y503540D01*
X855460D01*
Y484460D01*
X870540D01*
Y503540D01*
X868179D01*
Y524516D01*
X869034Y525370D01*
X870026Y527090D01*
X870540Y529007D01*
Y530993D01*
X870026Y532910D01*
X869034Y534630D01*
X867630Y536034D01*
X865910Y537026D01*
X863993Y537540D01*
D02*
G37*
G36*
X748993Y488540D02*
X747007D01*
X745090Y488026D01*
X743370Y487034D01*
X741966Y485630D01*
X740974Y483910D01*
X740460Y481993D01*
Y480007D01*
X740974Y478090D01*
X741966Y476370D01*
X743370Y474967D01*
X745090Y473974D01*
X747007Y473460D01*
X748993D01*
X750910Y473974D01*
X752630Y474967D01*
X754034Y476370D01*
X755026Y478090D01*
X755540Y480007D01*
Y481993D01*
X755026Y483910D01*
X754034Y485630D01*
X752630Y487034D01*
X750910Y488026D01*
X748993Y488540D01*
D02*
G37*
G36*
X164263Y480270D02*
X162277D01*
X160360Y479756D01*
X158640Y478764D01*
X157236Y477360D01*
X156244Y475640D01*
X155730Y473723D01*
Y471737D01*
X156244Y469820D01*
X157236Y468100D01*
X158640Y466697D01*
X160360Y465704D01*
X162277Y465190D01*
X164263D01*
X166180Y465704D01*
X167900Y466697D01*
X169303Y468100D01*
X170296Y469820D01*
X170810Y471737D01*
Y473723D01*
X170296Y475640D01*
X169303Y477360D01*
X167900Y478764D01*
X166180Y479756D01*
X164263Y480270D01*
D02*
G37*
G36*
X517572Y472790D02*
X497492D01*
Y469429D01*
X494250D01*
X492268Y469035D01*
X490587Y467912D01*
X488215Y465540D01*
X487007D01*
X485090Y465026D01*
X483370Y464034D01*
X481967Y462630D01*
X480974Y460910D01*
X480460Y458993D01*
Y457007D01*
X480974Y455090D01*
X481967Y453370D01*
X483370Y451967D01*
X485090Y450974D01*
X487007Y450460D01*
X488993D01*
X490910Y450974D01*
X492630Y451967D01*
X494034Y453370D01*
X495026Y455090D01*
X495540Y457007D01*
Y457941D01*
X496222Y458540D01*
X497492Y458080D01*
Y455710D01*
X517572D01*
Y472790D01*
D02*
G37*
G36*
X895993Y479540D02*
X894007D01*
X892090Y479026D01*
X890370Y478033D01*
X888967Y476630D01*
X887974Y474910D01*
X887460Y472993D01*
Y471007D01*
X887974Y469090D01*
X888967Y467370D01*
X890370Y465966D01*
X892090Y464974D01*
X892481Y464869D01*
Y463554D01*
X892090Y463449D01*
X890370Y462457D01*
X888967Y461053D01*
X887974Y459333D01*
X887460Y457416D01*
Y455430D01*
X887974Y453513D01*
X888967Y451794D01*
X890370Y450390D01*
X892090Y449397D01*
X894007Y448883D01*
X895993D01*
X897910Y449397D01*
X899630Y450390D01*
X901033Y451794D01*
X902026Y453513D01*
X902540Y455430D01*
Y457416D01*
X902026Y459333D01*
X901033Y461053D01*
X899630Y462457D01*
X897910Y463449D01*
X897519Y463554D01*
Y464869D01*
X897910Y464974D01*
X899630Y465966D01*
X901033Y467370D01*
X902026Y469090D01*
X902540Y471007D01*
Y472993D01*
X902026Y474910D01*
X901033Y476630D01*
X899630Y478033D01*
X897910Y479026D01*
X895993Y479540D01*
D02*
G37*
G36*
X710040Y453040D02*
X689960D01*
Y448055D01*
X685609D01*
X684630Y449034D01*
X682910Y450026D01*
X680993Y450540D01*
X679007D01*
X677090Y450026D01*
X675370Y449034D01*
X673967Y447630D01*
X672974Y445910D01*
X672460Y443993D01*
Y442007D01*
X672974Y440090D01*
X673967Y438370D01*
X675370Y436967D01*
X677090Y435974D01*
X679007Y435460D01*
X680993D01*
X682910Y435974D01*
X684630Y436967D01*
X685359Y437696D01*
X689960D01*
Y435960D01*
X710040D01*
Y453040D01*
D02*
G37*
G36*
X559040Y472790D02*
X538960D01*
Y455710D01*
X559040D01*
Y458369D01*
X562556D01*
X566460Y454465D01*
Y454007D01*
X566974Y452090D01*
X567966Y450370D01*
X569370Y448966D01*
X571090Y447974D01*
X573007Y447460D01*
X574993D01*
X576910Y447974D01*
X578630Y448966D01*
X580033Y450370D01*
X581026Y452090D01*
X581540Y454007D01*
Y455993D01*
X581026Y457910D01*
X580033Y459630D01*
X578630Y461034D01*
X576910Y462026D01*
X574993Y462540D01*
X573035D01*
X568364Y467211D01*
X566683Y468334D01*
X564701Y468728D01*
X559040D01*
Y472790D01*
D02*
G37*
G36*
X945220Y486540D02*
X940780D01*
X936425Y485674D01*
X932323Y483975D01*
X928632Y481508D01*
X925492Y478368D01*
X923025Y474677D01*
X921326Y470575D01*
X920460Y466220D01*
Y461780D01*
X921326Y457425D01*
X923025Y453323D01*
X925492Y449632D01*
X928632Y446492D01*
X932323Y444025D01*
X936425Y442326D01*
X940780Y441460D01*
X945220D01*
X949575Y442326D01*
X953677Y444025D01*
X957368Y446492D01*
X960508Y449632D01*
X962975Y453323D01*
X964674Y457425D01*
X965540Y461780D01*
Y466220D01*
X964674Y470575D01*
X962975Y474677D01*
X960508Y478368D01*
X957368Y481508D01*
X953677Y483975D01*
X949575Y485674D01*
X945220Y486540D01*
D02*
G37*
G36*
X737993Y513540D02*
X736007D01*
X734090Y513026D01*
X732370Y512034D01*
X730966Y510630D01*
X729974Y508910D01*
X729460Y506993D01*
Y505007D01*
X729974Y503090D01*
X730966Y501370D01*
X732370Y499967D01*
X734090Y498974D01*
X736007Y498460D01*
X737993D01*
X739910Y498974D01*
X741630Y499967D01*
X743034Y501370D01*
X743464Y502115D01*
X779391D01*
X824115Y457391D01*
Y452540D01*
X817960D01*
Y440885D01*
X811609D01*
X798747Y453747D01*
X797487Y454589D01*
X796040Y454877D01*
Y459190D01*
X796040Y459540D01*
Y460460D01*
X796040Y460810D01*
Y476540D01*
X791180D01*
Y480024D01*
X790785Y482006D01*
X789662Y483687D01*
X789662Y483687D01*
X786687Y486662D01*
X785006Y487785D01*
X783024Y488180D01*
X775484D01*
X774630Y489034D01*
X772910Y490026D01*
X770993Y490540D01*
X769007D01*
X767090Y490026D01*
X765370Y489034D01*
X763967Y487630D01*
X762974Y485910D01*
X762460Y483993D01*
Y482007D01*
X762974Y480090D01*
X763967Y478370D01*
X765370Y476967D01*
X767090Y475974D01*
X769007Y475460D01*
X770993D01*
X772910Y475974D01*
X774165Y476698D01*
X774630Y476967D01*
X774821Y476910D01*
X774962Y476866D01*
X775878Y476578D01*
X775960Y476501D01*
X775960Y475286D01*
Y460810D01*
X775960Y460460D01*
Y459540D01*
X775960Y459190D01*
Y454885D01*
X769540D01*
Y461040D01*
X753810D01*
X753460Y461040D01*
X752540D01*
X752190Y461040D01*
X736460D01*
Y454885D01*
X727000D01*
X725513Y454589D01*
X724253Y453747D01*
X721824Y451317D01*
X720993Y451540D01*
X719007D01*
X717090Y451026D01*
X715370Y450033D01*
X713967Y448630D01*
X712974Y446910D01*
X712460Y444993D01*
Y443007D01*
X712974Y441090D01*
X713967Y439370D01*
X715370Y437966D01*
X717090Y436974D01*
X719007Y436460D01*
X720993D01*
X722910Y436974D01*
X724630Y437966D01*
X726033Y439370D01*
X727026Y441090D01*
X727540Y443007D01*
Y444993D01*
X727317Y445824D01*
X728609Y447115D01*
X736460D01*
Y440960D01*
X752190D01*
X752540Y440960D01*
X753460D01*
X753810Y440960D01*
X769540D01*
Y447115D01*
X775960D01*
Y443460D01*
X796040D01*
Y443807D01*
X797213Y444293D01*
X807253Y434253D01*
X808513Y433411D01*
X810000Y433115D01*
X817960D01*
Y421460D01*
X824115D01*
Y413000D01*
X824411Y411513D01*
X825253Y410253D01*
X830830Y404676D01*
X832090Y403834D01*
X833577Y403539D01*
X851536D01*
X851966Y402794D01*
X853370Y401390D01*
X855090Y400397D01*
X857007Y399883D01*
X858993D01*
X860910Y400397D01*
X862630Y401390D01*
X864034Y402794D01*
X865026Y404513D01*
X865540Y406431D01*
Y408416D01*
X865026Y410334D01*
X864034Y412053D01*
X862630Y413457D01*
X860910Y414449D01*
X858993Y414963D01*
X857007D01*
X856927Y414942D01*
X855885Y415815D01*
Y421460D01*
X862040D01*
Y433115D01*
X865203D01*
X865966Y431794D01*
X867370Y430390D01*
X869090Y429397D01*
X871007Y428883D01*
X872993D01*
X874910Y429397D01*
X876630Y430390D01*
X878034Y431794D01*
X878464Y432538D01*
X888960D01*
Y421460D01*
X904040D01*
Y440540D01*
X888960D01*
Y440308D01*
X878464D01*
X878034Y441053D01*
X876630Y442457D01*
X875885Y442887D01*
Y462460D01*
X880040D01*
Y481540D01*
X864960D01*
Y462460D01*
X868115D01*
Y442887D01*
X867370Y442457D01*
X865966Y441053D01*
X865869Y440885D01*
X862040D01*
Y452540D01*
X855885D01*
Y453000D01*
X855589Y454487D01*
X854747Y455747D01*
X849207Y461287D01*
X849693Y462460D01*
X861040D01*
Y481540D01*
X845960D01*
Y466193D01*
X844787Y465707D01*
X834885Y475609D01*
Y488460D01*
X839540D01*
Y502540D01*
X822460D01*
Y488460D01*
X827115D01*
Y474000D01*
X827411Y472513D01*
X828253Y471253D01*
X845793Y453713D01*
X845307Y452540D01*
X841960D01*
Y440885D01*
X838040D01*
Y452540D01*
X831885D01*
Y459000D01*
X831589Y460487D01*
X830747Y461747D01*
X783747Y508747D01*
X782487Y509589D01*
X781000Y509885D01*
X743464D01*
X743034Y510630D01*
X741630Y512034D01*
X739910Y513026D01*
X737993Y513540D01*
D02*
G37*
G36*
X526918Y459656D02*
X524933D01*
X523015Y459142D01*
X521296Y458150D01*
X519892Y456746D01*
X518899Y455027D01*
X518675Y454192D01*
X517572Y453790D01*
X517572Y453790D01*
X497492D01*
Y436710D01*
X517572D01*
X517572Y436710D01*
X518658Y436267D01*
X518974Y435090D01*
X519967Y433370D01*
X521370Y431967D01*
X523090Y430974D01*
X524271Y430657D01*
Y429343D01*
X523090Y429026D01*
X521370Y428033D01*
X520391Y427054D01*
X517572D01*
Y432040D01*
X497492D01*
Y414960D01*
X517572D01*
Y416696D01*
X520641D01*
X521370Y415966D01*
X523090Y414974D01*
X524271Y414657D01*
Y413343D01*
X523090Y413026D01*
X521370Y412034D01*
X519967Y410630D01*
X518974Y408910D01*
X518842Y408418D01*
X517572Y408585D01*
Y413040D01*
X497492D01*
Y411180D01*
X492484D01*
X491630Y412034D01*
X489910Y413026D01*
X487993Y413540D01*
X486007D01*
X484090Y413026D01*
X482370Y412034D01*
X480966Y410630D01*
X479974Y408910D01*
X479460Y406993D01*
Y405007D01*
X479974Y403090D01*
X480966Y401370D01*
X482370Y399967D01*
X484090Y398974D01*
X486007Y398460D01*
X487993D01*
X489910Y398974D01*
X491630Y399967D01*
X492484Y400821D01*
X497492D01*
Y395960D01*
X517572D01*
Y403415D01*
X518842Y403582D01*
X518974Y403090D01*
X519967Y401370D01*
X521370Y399967D01*
X523090Y398974D01*
X525007Y398460D01*
X526993D01*
X528910Y398974D01*
X530630Y399967D01*
X531484Y400821D01*
X538960D01*
Y395960D01*
X559040D01*
Y413040D01*
X538960D01*
Y411180D01*
X531484D01*
X530630Y412034D01*
X528910Y413026D01*
X527729Y413343D01*
Y414657D01*
X528910Y414974D01*
X530630Y415966D01*
X531234Y416570D01*
X538960D01*
Y414960D01*
X559040D01*
Y432040D01*
X538960D01*
Y426929D01*
X531734D01*
X530630Y428033D01*
X528910Y429026D01*
X527729Y429343D01*
Y430657D01*
X528910Y430974D01*
X530630Y431967D01*
X532034Y433370D01*
X533026Y435090D01*
X533540Y437007D01*
Y437425D01*
X533936Y437821D01*
X538960D01*
Y436710D01*
X559040D01*
Y453790D01*
X538960D01*
Y448180D01*
X533643D01*
X533017Y449450D01*
X533465Y451124D01*
Y453109D01*
X532951Y455027D01*
X531959Y456746D01*
X530555Y458150D01*
X528835Y459142D01*
X526918Y459656D01*
D02*
G37*
G36*
X94993Y451540D02*
X93007D01*
X91090Y451026D01*
X89370Y450033D01*
X87966Y448630D01*
X86974Y446910D01*
X86460Y444993D01*
Y443007D01*
X86974Y441090D01*
X87966Y439370D01*
X89370Y437966D01*
X91090Y436974D01*
X93007Y436460D01*
X94993D01*
X96910Y436974D01*
X98630Y437966D01*
X100034Y439370D01*
X101026Y441090D01*
X101540Y443007D01*
Y444993D01*
X101026Y446910D01*
X100034Y448630D01*
X98630Y450033D01*
X96910Y451026D01*
X94993Y451540D01*
D02*
G37*
G36*
X744040Y437040D02*
X726960D01*
Y432179D01*
X725484D01*
X724630Y433033D01*
X722910Y434026D01*
X720993Y434540D01*
X719007D01*
X717090Y434026D01*
X715370Y433033D01*
X714516Y432179D01*
X710040D01*
Y434040D01*
X689960D01*
Y416960D01*
X710040D01*
Y421820D01*
X714516D01*
X715370Y420966D01*
X717090Y419974D01*
X717887Y419760D01*
X717938Y419246D01*
X717771Y418477D01*
X716090Y418026D01*
X714370Y417034D01*
X712967Y415630D01*
X711974Y413910D01*
X711741Y413040D01*
X694960D01*
Y392960D01*
X712040D01*
Y398828D01*
X713982Y399215D01*
X715663Y400337D01*
X718595Y403270D01*
X720778Y401087D01*
X722458Y399965D01*
X724440Y399571D01*
X726960D01*
Y392960D01*
X744040D01*
Y413040D01*
X726960D01*
X726036Y413875D01*
X726026Y413910D01*
X725033Y415630D01*
X723630Y417034D01*
X721910Y418026D01*
X721113Y418240D01*
X721062Y418754D01*
X721229Y419523D01*
X722910Y419974D01*
X724630Y420966D01*
X725484Y421820D01*
X726960D01*
Y416960D01*
X744040D01*
Y437040D01*
D02*
G37*
G36*
X763040D02*
X745960D01*
Y416960D01*
X763040D01*
Y421320D01*
X767016D01*
X768370Y419967D01*
X770090Y418974D01*
X772007Y418460D01*
X773993D01*
X775910Y418974D01*
X777630Y419967D01*
X779034Y421370D01*
X780026Y423090D01*
X780540Y425007D01*
Y426993D01*
X780026Y428910D01*
X779034Y430630D01*
X777630Y432034D01*
X775910Y433026D01*
X773993Y433540D01*
X772007D01*
X770090Y433026D01*
X768370Y432034D01*
X768016Y431679D01*
X763040D01*
Y437040D01*
D02*
G37*
G36*
X930993Y427540D02*
X929007D01*
X927090Y427026D01*
X925370Y426034D01*
X923967Y424630D01*
X922974Y422910D01*
X922460Y420993D01*
Y419785D01*
X916855Y414179D01*
X913540D01*
Y418540D01*
X898460D01*
Y399460D01*
X913540D01*
Y403820D01*
X919000D01*
X919334Y403887D01*
X920460Y402816D01*
Y358860D01*
X920460Y358460D01*
X919550Y357590D01*
X917500D01*
X916509Y357393D01*
X915669Y356831D01*
X907927Y349090D01*
X869500D01*
X868509Y348893D01*
X867669Y348331D01*
X862169Y342831D01*
X861607Y341991D01*
X861410Y341000D01*
Y300000D01*
X861607Y299009D01*
X862169Y298169D01*
X867169Y293169D01*
X868009Y292607D01*
X869000Y292410D01*
X877215D01*
X877555Y291140D01*
X877370Y291033D01*
X875966Y289630D01*
X874974Y287910D01*
X874460Y285993D01*
Y284007D01*
X874974Y282090D01*
X875966Y280370D01*
X877370Y278967D01*
X879090Y277974D01*
X881007Y277460D01*
X882993D01*
X884910Y277974D01*
X886630Y278967D01*
X888034Y280370D01*
X889026Y282090D01*
X889540Y284007D01*
Y285993D01*
X889026Y287910D01*
X888034Y289630D01*
X886630Y291033D01*
X886445Y291140D01*
X886785Y292410D01*
X934922D01*
X935009Y292352D01*
X936000Y292155D01*
X991594D01*
X991871Y292210D01*
X992154Y292216D01*
X993305Y292472D01*
X993720Y292654D01*
X994142Y292819D01*
X994181Y292857D01*
X994230Y292879D01*
X994544Y293206D01*
X994870Y293520D01*
X994892Y293569D01*
X994929Y293608D01*
X995093Y294031D01*
X995275Y294446D01*
X995530Y295610D01*
X995535Y295890D01*
X995590Y296164D01*
Y355000D01*
X995393Y355991D01*
X994831Y356831D01*
X993991Y357393D01*
X993000Y357590D01*
X966450D01*
X965540Y358460D01*
X965540Y358860D01*
Y403540D01*
X922258D01*
X921873Y404810D01*
X922663Y405337D01*
X929785Y412460D01*
X930993D01*
X932910Y412974D01*
X934630Y413966D01*
X936033Y415370D01*
X937026Y417090D01*
X937540Y419007D01*
Y420993D01*
X937026Y422910D01*
X936033Y424630D01*
X934630Y426034D01*
X932910Y427026D01*
X930993Y427540D01*
D02*
G37*
G36*
X1027220Y446671D02*
X1022780D01*
X1018425Y445805D01*
X1014323Y444106D01*
X1010632Y441639D01*
X1007492Y438499D01*
X1005025Y434808D01*
X1003326Y430706D01*
X1002460Y426351D01*
Y421911D01*
X1003326Y417556D01*
X1005025Y413454D01*
X1007492Y409762D01*
X1010632Y406623D01*
X1014323Y404156D01*
X1018425Y402457D01*
X1022780Y401591D01*
X1027220D01*
X1031575Y402457D01*
X1035677Y404156D01*
X1039368Y406623D01*
X1042508Y409762D01*
X1044975Y413454D01*
X1046674Y417556D01*
X1047540Y421911D01*
Y426351D01*
X1046674Y430706D01*
X1044975Y434808D01*
X1042508Y438499D01*
X1039368Y441639D01*
X1035677Y444106D01*
X1031575Y445805D01*
X1027220Y446671D01*
D02*
G37*
G36*
X894540Y418540D02*
X879460D01*
Y399460D01*
X894540D01*
Y418540D01*
D02*
G37*
G36*
X763040Y413040D02*
X745960D01*
Y392960D01*
X763040D01*
Y397821D01*
X773516D01*
X774370Y396967D01*
X776090Y395974D01*
X778007Y395460D01*
X779993D01*
X781910Y395974D01*
X783630Y396967D01*
X785033Y398370D01*
X786026Y400090D01*
X786540Y402007D01*
Y403993D01*
X786026Y405910D01*
X785033Y407630D01*
X783630Y409034D01*
X781910Y410026D01*
X779993Y410540D01*
X778007D01*
X776090Y410026D01*
X774370Y409034D01*
X773516Y408180D01*
X763040D01*
Y413040D01*
D02*
G37*
G36*
X679993Y430540D02*
X678007D01*
X676090Y430026D01*
X674370Y429034D01*
X672967Y427630D01*
X671974Y425910D01*
X671460Y423993D01*
Y422007D01*
X671974Y420090D01*
X672967Y418370D01*
X674370Y416967D01*
X676090Y415974D01*
X677369Y415631D01*
Y413040D01*
X675960D01*
Y392960D01*
X693040D01*
Y413040D01*
X687728D01*
Y418120D01*
X687334Y420102D01*
X686403Y421496D01*
X686540Y422007D01*
Y423993D01*
X686026Y425910D01*
X685033Y427630D01*
X683630Y429034D01*
X681910Y430026D01*
X679993Y430540D01*
D02*
G37*
G36*
X600040Y390040D02*
X582960D01*
Y386499D01*
X581690Y385973D01*
X581360Y386303D01*
X579640Y387296D01*
X577723Y387810D01*
X575737D01*
X573820Y387296D01*
X572100Y386303D01*
X571246Y385449D01*
X568040D01*
Y390040D01*
X550960D01*
Y369960D01*
X568040D01*
Y375090D01*
X571246D01*
X572100Y374236D01*
X573820Y373244D01*
X575737Y372730D01*
X577723D01*
X579640Y373244D01*
X581360Y374236D01*
X581690Y374567D01*
X582960Y374041D01*
Y369960D01*
X600040D01*
Y390040D01*
D02*
G37*
G36*
X732040Y388790D02*
X711960D01*
Y385804D01*
X702859D01*
X701630Y387034D01*
X699910Y388026D01*
X697993Y388540D01*
X696007D01*
X694090Y388026D01*
X692370Y387034D01*
X690966Y385630D01*
X689974Y383910D01*
X689460Y381993D01*
Y380007D01*
X689974Y378090D01*
X690966Y376370D01*
X691821Y375516D01*
Y374040D01*
X687386D01*
X686383Y374969D01*
X686333Y375050D01*
Y377001D01*
X685819Y378919D01*
X684827Y380638D01*
X683423Y382042D01*
X681703Y383035D01*
X679786Y383549D01*
X677801D01*
X675883Y383035D01*
X674164Y382042D01*
X672760Y380638D01*
X671767Y378919D01*
X671253Y377001D01*
Y375016D01*
X671767Y373098D01*
X672760Y371379D01*
X674164Y369975D01*
X675883Y368982D01*
X677801Y368469D01*
X679786D01*
X681703Y368982D01*
X683423Y369975D01*
X684827Y371379D01*
X685690Y372874D01*
X686583Y372803D01*
X686960Y372657D01*
Y356960D01*
X707040D01*
Y374040D01*
X702179D01*
Y375446D01*
X711960D01*
Y371710D01*
X732040D01*
Y388790D01*
D02*
G37*
G36*
X549040Y390040D02*
X531960D01*
Y385179D01*
X526484D01*
X525630Y386034D01*
X523910Y387026D01*
X521993Y387540D01*
X520007D01*
X518090Y387026D01*
X516370Y386034D01*
X514967Y384630D01*
X513974Y382910D01*
X513460Y380993D01*
Y379007D01*
X513974Y377090D01*
X514967Y375370D01*
X516370Y373966D01*
X518090Y372974D01*
X520007Y372460D01*
X521993D01*
X523910Y372974D01*
X525630Y373966D01*
X526484Y374821D01*
X531960D01*
Y369960D01*
X549040D01*
Y390040D01*
D02*
G37*
G36*
X830040Y398040D02*
X809960D01*
Y380960D01*
X830040D01*
Y383820D01*
X835516D01*
X836370Y382966D01*
X838090Y381974D01*
X840007Y381460D01*
X841993D01*
X843910Y381974D01*
X845630Y382966D01*
X847033Y384370D01*
X848026Y386090D01*
X848540Y388007D01*
Y389993D01*
X848026Y391910D01*
X847033Y393630D01*
X845630Y395033D01*
X843910Y396026D01*
X841993Y396540D01*
X840007D01*
X838090Y396026D01*
X836370Y395033D01*
X835516Y394179D01*
X830040D01*
Y398040D01*
D02*
G37*
G36*
X619040Y390040D02*
X601960D01*
Y369960D01*
X619040D01*
Y374821D01*
X623516D01*
X624370Y373966D01*
X626090Y372974D01*
X628007Y372460D01*
X629993D01*
X631910Y372974D01*
X633630Y373966D01*
X635033Y375370D01*
X636026Y377090D01*
X636540Y379007D01*
Y380993D01*
X636026Y382910D01*
X635033Y384630D01*
X633630Y386034D01*
X631910Y387026D01*
X629993Y387540D01*
X628007D01*
X626090Y387026D01*
X624370Y386034D01*
X623516Y385179D01*
X619040D01*
Y390040D01*
D02*
G37*
G36*
X830040Y379040D02*
X809960D01*
Y361960D01*
X830040D01*
Y365567D01*
X843303D01*
X843910Y364959D01*
X845630Y363966D01*
X847547Y363453D01*
X849533D01*
X851450Y363966D01*
X853170Y364959D01*
X854574Y366363D01*
X855566Y368082D01*
X856080Y370000D01*
Y371985D01*
X855566Y373903D01*
X854574Y375622D01*
X853170Y377026D01*
X851450Y378019D01*
X849533Y378533D01*
X847547D01*
X845630Y378019D01*
X843910Y377026D01*
X842810Y375926D01*
X830040D01*
Y379040D01*
D02*
G37*
G36*
X94993Y378040D02*
X93007D01*
X91090Y377526D01*
X89370Y376534D01*
X87966Y375130D01*
X86974Y373410D01*
X86460Y371493D01*
Y369507D01*
X86974Y367590D01*
X87966Y365870D01*
X89370Y364467D01*
X91090Y363474D01*
X93007Y362960D01*
X94993D01*
X96910Y363474D01*
X98630Y364467D01*
X100034Y365870D01*
X101026Y367590D01*
X101540Y369507D01*
Y371493D01*
X101026Y373410D01*
X100034Y375130D01*
X98630Y376534D01*
X96910Y377526D01*
X94993Y378040D01*
D02*
G37*
G36*
X135127Y345540D02*
X133273D01*
X131483Y345060D01*
X129877Y344133D01*
X128905Y343161D01*
X128100Y342947D01*
X127295Y343161D01*
X126323Y344133D01*
X124717Y345060D01*
X122927Y345540D01*
X121073D01*
X119283Y345060D01*
X117677Y344133D01*
X116705Y343161D01*
X115900Y342947D01*
X115095Y343161D01*
X114123Y344133D01*
X112517Y345060D01*
X110727Y345540D01*
X108873D01*
X107083Y345060D01*
X105477Y344133D01*
X104167Y342823D01*
X103240Y341217D01*
X102760Y339427D01*
Y337573D01*
X103240Y335783D01*
X104167Y334177D01*
X105344Y333000D01*
X104167Y331823D01*
X103240Y330217D01*
X102760Y328427D01*
Y326573D01*
X103240Y324783D01*
X104167Y323177D01*
X105477Y321867D01*
X107083Y320940D01*
X108873Y320460D01*
X110727D01*
X112517Y320940D01*
X114123Y321867D01*
X115095Y322839D01*
X115900Y323053D01*
X116705Y322839D01*
X117677Y321867D01*
X119283Y320940D01*
X121073Y320460D01*
X122927D01*
X124717Y320940D01*
X126323Y321867D01*
X127295Y322839D01*
X128100Y323053D01*
X128905Y322839D01*
X129877Y321867D01*
X131483Y320940D01*
X133273Y320460D01*
X135127D01*
X136917Y320940D01*
X138523Y321867D01*
X139833Y323177D01*
X140760Y324783D01*
X141240Y326573D01*
Y328427D01*
X140760Y330217D01*
X139833Y331823D01*
X138656Y333000D01*
X139833Y334177D01*
X140760Y335783D01*
X141240Y337573D01*
Y339427D01*
X140760Y341217D01*
X139833Y342823D01*
X138523Y344133D01*
X136917Y345060D01*
X135127Y345540D01*
D02*
G37*
G36*
X732040Y369790D02*
X711960D01*
Y352710D01*
X716821D01*
Y348484D01*
X715966Y347630D01*
X714974Y345910D01*
X714460Y343993D01*
Y342007D01*
X714974Y340090D01*
X715966Y338370D01*
X717370Y336967D01*
X719090Y335974D01*
X721007Y335460D01*
X722993D01*
X724910Y335974D01*
X726630Y336967D01*
X728034Y338370D01*
X729026Y340090D01*
X729540Y342007D01*
Y343993D01*
X729026Y345910D01*
X728034Y347630D01*
X727179Y348484D01*
Y352710D01*
X732040D01*
Y369790D01*
D02*
G37*
G36*
X815993Y345540D02*
X814007D01*
X812090Y345026D01*
X810370Y344034D01*
X808967Y342630D01*
X807974Y340910D01*
X807460Y338993D01*
Y337007D01*
X807974Y335090D01*
X808967Y333370D01*
X810370Y331967D01*
X812090Y330974D01*
X814007Y330460D01*
X815993D01*
X817910Y330974D01*
X819630Y331967D01*
X821033Y333370D01*
X822026Y335090D01*
X822540Y337007D01*
Y338993D01*
X822026Y340910D01*
X821033Y342630D01*
X819630Y344034D01*
X817910Y345026D01*
X815993Y345540D01*
D02*
G37*
G36*
X791993Y366540D02*
X790007D01*
X788090Y366026D01*
X786370Y365033D01*
X784967Y363630D01*
X783974Y361910D01*
X783460Y359993D01*
Y358007D01*
X783974Y356090D01*
X784967Y354370D01*
X785820Y353516D01*
Y347040D01*
X780960D01*
Y329960D01*
X801040D01*
Y347040D01*
X796180D01*
Y353516D01*
X797033Y354370D01*
X798026Y356090D01*
X798540Y358007D01*
Y359993D01*
X798026Y361910D01*
X797033Y363630D01*
X795630Y365033D01*
X793910Y366026D01*
X791993Y366540D01*
D02*
G37*
G36*
X155993Y340540D02*
X154007D01*
X152090Y340026D01*
X150370Y339034D01*
X148967Y337630D01*
X147974Y335910D01*
X147460Y333993D01*
Y332007D01*
X147974Y330090D01*
X148967Y328370D01*
X150370Y326967D01*
X152090Y325974D01*
X154007Y325460D01*
X155993D01*
X157910Y325974D01*
X159630Y326967D01*
X161033Y328370D01*
X162026Y330090D01*
X162540Y332007D01*
Y333993D01*
X162026Y335910D01*
X161033Y337630D01*
X159630Y339034D01*
X157910Y340026D01*
X155993Y340540D01*
D02*
G37*
G36*
X707040Y355040D02*
X686960D01*
Y337960D01*
X691821D01*
Y334484D01*
X690966Y333630D01*
X689974Y331910D01*
X689460Y329993D01*
Y328007D01*
X689974Y326090D01*
X690966Y324370D01*
X692370Y322966D01*
X694090Y321974D01*
X696007Y321460D01*
X697993D01*
X699910Y321974D01*
X701630Y322966D01*
X703034Y324370D01*
X704026Y326090D01*
X704540Y328007D01*
Y329993D01*
X704026Y331910D01*
X703034Y333630D01*
X702179Y334484D01*
Y337960D01*
X707040D01*
Y355040D01*
D02*
G37*
G36*
X858540Y335040D02*
X842270D01*
Y321270D01*
X858540D01*
Y335040D01*
D02*
G37*
G36*
X839730D02*
X823460D01*
Y321270D01*
X839730D01*
Y335040D01*
D02*
G37*
G36*
X760993Y335540D02*
X759007D01*
X757090Y335026D01*
X755370Y334034D01*
X753967Y332630D01*
X752974Y330910D01*
X752460Y328993D01*
Y327007D01*
X752974Y325090D01*
X753967Y323370D01*
X755370Y321967D01*
X757090Y320974D01*
X759007Y320460D01*
X760993D01*
X762910Y320974D01*
X764630Y321967D01*
X766033Y323370D01*
X767026Y325090D01*
X767540Y327007D01*
Y328993D01*
X767026Y330910D01*
X766033Y332630D01*
X764630Y334034D01*
X762910Y335026D01*
X760993Y335540D01*
D02*
G37*
G36*
X858540Y318730D02*
X842270D01*
Y304960D01*
X858540D01*
Y318730D01*
D02*
G37*
G36*
X839730D02*
X823460D01*
Y304960D01*
X839730D01*
Y318730D01*
D02*
G37*
G36*
X314993Y314540D02*
X313007D01*
X311090Y314026D01*
X309370Y313034D01*
X307966Y311630D01*
X306974Y309910D01*
X306460Y307993D01*
Y306007D01*
X306974Y304090D01*
X307966Y302370D01*
X309370Y300966D01*
X311090Y299974D01*
X313007Y299460D01*
X314993D01*
X316910Y299974D01*
X318630Y300966D01*
X320033Y302370D01*
X321026Y304090D01*
X321540Y306007D01*
Y307993D01*
X321026Y309910D01*
X320033Y311630D01*
X318630Y313034D01*
X316910Y314026D01*
X314993Y314540D01*
D02*
G37*
G36*
X801040Y328040D02*
X780960D01*
Y310960D01*
X785820D01*
Y304484D01*
X784967Y303630D01*
X783974Y301910D01*
X783460Y299993D01*
Y298007D01*
X783974Y296090D01*
X784967Y294370D01*
X786370Y292966D01*
X788090Y291974D01*
X790007Y291460D01*
X791993D01*
X793910Y291974D01*
X795630Y292966D01*
X797033Y294370D01*
X798026Y296090D01*
X798540Y298007D01*
Y299993D01*
X798026Y301910D01*
X797033Y303630D01*
X796180Y304484D01*
Y310960D01*
X801040D01*
Y328040D01*
D02*
G37*
G36*
X87993Y304540D02*
X86007D01*
X84090Y304026D01*
X82370Y303034D01*
X80967Y301630D01*
X79974Y299910D01*
X79460Y297993D01*
Y296007D01*
X79974Y294090D01*
X80967Y292370D01*
X82370Y290966D01*
X84090Y289974D01*
X86007Y289460D01*
X87993D01*
X89910Y289974D01*
X91630Y290966D01*
X93034Y292370D01*
X94026Y294090D01*
X94540Y296007D01*
Y297993D01*
X94026Y299910D01*
X93034Y301630D01*
X91630Y303034D01*
X89910Y304026D01*
X87993Y304540D01*
D02*
G37*
G36*
X140993Y303540D02*
X139007D01*
X137090Y303026D01*
X135370Y302034D01*
X133967Y300630D01*
X132974Y298910D01*
X132460Y296993D01*
Y295007D01*
X132974Y293090D01*
X133967Y291370D01*
X135370Y289967D01*
X137090Y288974D01*
X139007Y288460D01*
X140993D01*
X142910Y288974D01*
X144630Y289967D01*
X146033Y291370D01*
X147026Y293090D01*
X147540Y295007D01*
Y296993D01*
X147026Y298910D01*
X146033Y300630D01*
X144630Y302034D01*
X142910Y303026D01*
X140993Y303540D01*
D02*
G37*
G36*
X107993Y301540D02*
X106007D01*
X104090Y301026D01*
X102370Y300033D01*
X100967Y298630D01*
X99974Y296910D01*
X99460Y294993D01*
Y293007D01*
X99974Y291090D01*
X100967Y289370D01*
X102370Y287966D01*
X104090Y286974D01*
X106007Y286460D01*
X107993D01*
X109910Y286974D01*
X111630Y287966D01*
X113034Y289370D01*
X114026Y291090D01*
X114540Y293007D01*
Y294993D01*
X114026Y296910D01*
X113034Y298630D01*
X111630Y300033D01*
X109910Y301026D01*
X107993Y301540D01*
D02*
G37*
G36*
X628993Y292540D02*
X627007D01*
X625090Y292026D01*
X623370Y291033D01*
X621967Y289630D01*
X620974Y287910D01*
X620460Y285993D01*
Y284007D01*
X620974Y282090D01*
X621967Y280370D01*
X623370Y278967D01*
X625090Y277974D01*
X627007Y277460D01*
X628993D01*
X630910Y277974D01*
X632630Y278967D01*
X634034Y280370D01*
X635026Y282090D01*
X635540Y284007D01*
Y285993D01*
X635026Y287910D01*
X634034Y289630D01*
X632630Y291033D01*
X630910Y292026D01*
X628993Y292540D01*
D02*
G37*
G36*
X374993D02*
X373007D01*
X371090Y292026D01*
X369370Y291033D01*
X367966Y289630D01*
X366974Y287910D01*
X366460Y285993D01*
Y284007D01*
X366974Y282090D01*
X367966Y280370D01*
X369370Y278967D01*
X371090Y277974D01*
X373007Y277460D01*
X374993D01*
X376910Y277974D01*
X378630Y278967D01*
X380033Y280370D01*
X381026Y282090D01*
X381540Y284007D01*
Y285993D01*
X381026Y287910D01*
X380033Y289630D01*
X378630Y291033D01*
X376910Y292026D01*
X374993Y292540D01*
D02*
G37*
G36*
X1026974Y310040D02*
X1023026D01*
X1019155Y309270D01*
X1015508Y307759D01*
X1012225Y305566D01*
X1009434Y302775D01*
X1007241Y299492D01*
X1005730Y295846D01*
X1004960Y291974D01*
Y288026D01*
X1005730Y284154D01*
X1007241Y280508D01*
X1009434Y277225D01*
X1012225Y274434D01*
X1015508Y272241D01*
X1019155Y270730D01*
X1023026Y269960D01*
X1026974D01*
X1030845Y270730D01*
X1034492Y272241D01*
X1037775Y274434D01*
X1040566Y277225D01*
X1042759Y280508D01*
X1044270Y284154D01*
X1045040Y288026D01*
Y291974D01*
X1044270Y295846D01*
X1042759Y299492D01*
X1040566Y302775D01*
X1037775Y305566D01*
X1034492Y307759D01*
X1030845Y309270D01*
X1026974Y310040D01*
D02*
G37*
G36*
X633927Y271490D02*
X632073D01*
X630283Y271010D01*
X628677Y270083D01*
X627500Y268906D01*
X626323Y270083D01*
X624717Y271010D01*
X622927Y271490D01*
X621073D01*
X619283Y271010D01*
X617677Y270083D01*
X616367Y268773D01*
X615440Y267167D01*
X614960Y265377D01*
Y263523D01*
X615440Y261733D01*
X616367Y260127D01*
X617339Y259155D01*
X617553Y258350D01*
X617339Y257545D01*
X616367Y256573D01*
X615440Y254967D01*
X614960Y253177D01*
Y251323D01*
X615440Y249533D01*
X616367Y247927D01*
X617339Y246955D01*
X617553Y246150D01*
X617339Y245345D01*
X616367Y244373D01*
X615440Y242767D01*
X614960Y240977D01*
Y239123D01*
X615440Y237333D01*
X616367Y235727D01*
X617677Y234417D01*
X619283Y233490D01*
X621073Y233010D01*
X622927D01*
X624717Y233490D01*
X626323Y234417D01*
X627500Y235594D01*
X628677Y234417D01*
X630283Y233490D01*
X632073Y233010D01*
X633927D01*
X635717Y233490D01*
X637323Y234417D01*
X638633Y235727D01*
X639560Y237333D01*
X640040Y239123D01*
Y240977D01*
X639560Y242767D01*
X638633Y244373D01*
X637661Y245345D01*
X637447Y246150D01*
X637661Y246955D01*
X638633Y247927D01*
X639560Y249533D01*
X640040Y251323D01*
Y253177D01*
X639560Y254967D01*
X638633Y256573D01*
X637661Y257545D01*
X637447Y258350D01*
X637661Y259155D01*
X638633Y260127D01*
X639560Y261733D01*
X640040Y263523D01*
Y265377D01*
X639560Y267167D01*
X638633Y268773D01*
X637323Y270083D01*
X635717Y271010D01*
X633927Y271490D01*
D02*
G37*
G36*
X888427Y271240D02*
X886573D01*
X884783Y270760D01*
X883177Y269833D01*
X882000Y268656D01*
X880823Y269833D01*
X879217Y270760D01*
X877427Y271240D01*
X875573D01*
X873783Y270760D01*
X872177Y269833D01*
X870867Y268523D01*
X869940Y266917D01*
X869460Y265127D01*
Y263273D01*
X869940Y261483D01*
X870867Y259877D01*
X871839Y258905D01*
X872053Y258100D01*
X871839Y257295D01*
X870867Y256323D01*
X869940Y254717D01*
X869460Y252927D01*
Y251073D01*
X869940Y249283D01*
X870867Y247677D01*
X871839Y246705D01*
X872053Y245900D01*
X871839Y245095D01*
X870867Y244123D01*
X869940Y242517D01*
X869460Y240727D01*
Y238873D01*
X869940Y237083D01*
X870867Y235477D01*
X872177Y234167D01*
X873783Y233240D01*
X875573Y232760D01*
X877427D01*
X879217Y233240D01*
X880823Y234167D01*
X882000Y235344D01*
X883177Y234167D01*
X884783Y233240D01*
X886573Y232760D01*
X888427D01*
X890217Y233240D01*
X891823Y234167D01*
X893133Y235477D01*
X894060Y237083D01*
X894540Y238873D01*
Y240727D01*
X894060Y242517D01*
X893133Y244123D01*
X892161Y245095D01*
X891947Y245900D01*
X892161Y246705D01*
X893133Y247677D01*
X894060Y249283D01*
X894540Y251073D01*
Y252927D01*
X894060Y254717D01*
X893133Y256323D01*
X892161Y257295D01*
X891947Y258100D01*
X892161Y258905D01*
X893133Y259877D01*
X894060Y261483D01*
X894540Y263273D01*
Y265127D01*
X894060Y266917D01*
X893133Y268523D01*
X891823Y269833D01*
X890217Y270760D01*
X888427Y271240D01*
D02*
G37*
G36*
X380427D02*
X378573D01*
X376783Y270760D01*
X375177Y269833D01*
X374000Y268656D01*
X372823Y269833D01*
X371217Y270760D01*
X369427Y271240D01*
X367573D01*
X365783Y270760D01*
X364177Y269833D01*
X362867Y268523D01*
X361940Y266917D01*
X361460Y265127D01*
Y263273D01*
X361940Y261483D01*
X362867Y259877D01*
X363839Y258905D01*
X364053Y258100D01*
X363839Y257295D01*
X362867Y256323D01*
X361940Y254717D01*
X361460Y252927D01*
Y251073D01*
X361940Y249283D01*
X362867Y247677D01*
X363839Y246705D01*
X364053Y245900D01*
X363839Y245095D01*
X362867Y244123D01*
X361940Y242517D01*
X361460Y240727D01*
Y238873D01*
X361940Y237083D01*
X362867Y235477D01*
X364177Y234167D01*
X365783Y233240D01*
X367573Y232760D01*
X369427D01*
X371217Y233240D01*
X372823Y234167D01*
X374000Y235344D01*
X375177Y234167D01*
X376783Y233240D01*
X378573Y232760D01*
X380427D01*
X382217Y233240D01*
X383823Y234167D01*
X385133Y235477D01*
X386060Y237083D01*
X386540Y238873D01*
Y240727D01*
X386060Y242517D01*
X385133Y244123D01*
X384161Y245095D01*
X383947Y245900D01*
X384161Y246705D01*
X385133Y247677D01*
X386060Y249283D01*
X386540Y251073D01*
Y252927D01*
X386060Y254717D01*
X385133Y256323D01*
X384161Y257295D01*
X383947Y258100D01*
X384161Y258905D01*
X385133Y259877D01*
X386060Y261483D01*
X386540Y263273D01*
Y265127D01*
X386060Y266917D01*
X385133Y268523D01*
X383823Y269833D01*
X382217Y270760D01*
X380427Y271240D01*
D02*
G37*
G36*
X744103Y282540D02*
X742117D01*
X740200Y282026D01*
X738480Y281033D01*
X737076Y279630D01*
X736084Y277910D01*
X735570Y275993D01*
Y274007D01*
X736084Y272090D01*
X737076Y270370D01*
X738480Y268967D01*
X740200Y267974D01*
X742117Y267460D01*
X744103D01*
X746020Y267974D01*
X747740Y268967D01*
X749144Y270370D01*
X750136Y272090D01*
X750650Y274007D01*
Y275993D01*
X750136Y277910D01*
X749144Y279630D01*
X747740Y281033D01*
X746020Y282026D01*
X744103Y282540D01*
D02*
G37*
G36*
X483993D02*
X482007D01*
X480090Y282026D01*
X478370Y281033D01*
X476967Y279630D01*
X475974Y277910D01*
X475460Y275993D01*
Y274007D01*
X475974Y272090D01*
X476967Y270370D01*
X478370Y268967D01*
X480090Y267974D01*
X482007Y267460D01*
X483993D01*
X485910Y267974D01*
X487630Y268967D01*
X489034Y270370D01*
X490026Y272090D01*
X490540Y274007D01*
Y275993D01*
X490026Y277910D01*
X489034Y279630D01*
X487630Y281033D01*
X485910Y282026D01*
X483993Y282540D01*
D02*
G37*
G36*
X450993Y277540D02*
X449007D01*
X447090Y277026D01*
X445370Y276033D01*
X443966Y274630D01*
X442974Y272910D01*
X442460Y270993D01*
Y269007D01*
X442974Y267090D01*
X443966Y265370D01*
X445370Y263967D01*
X447090Y262974D01*
X449007Y262460D01*
X450993D01*
X452910Y262974D01*
X454630Y263967D01*
X456034Y265370D01*
X457026Y267090D01*
X457540Y269007D01*
Y270993D01*
X457026Y272910D01*
X456034Y274630D01*
X454630Y276033D01*
X452910Y277026D01*
X450993Y277540D01*
D02*
G37*
G36*
X209993Y276540D02*
X208007D01*
X206090Y276026D01*
X204370Y275033D01*
X202966Y273630D01*
X201974Y271910D01*
X201460Y269993D01*
Y268007D01*
X201974Y266090D01*
X202966Y264370D01*
X204370Y262966D01*
X206090Y261974D01*
X208007Y261460D01*
X209993D01*
X211910Y261974D01*
X213630Y262966D01*
X215033Y264370D01*
X216026Y266090D01*
X216540Y268007D01*
Y269993D01*
X216026Y271910D01*
X215033Y273630D01*
X213630Y275033D01*
X211910Y276026D01*
X209993Y276540D01*
D02*
G37*
G36*
X922993Y275540D02*
X921007D01*
X919090Y275026D01*
X917370Y274034D01*
X915966Y272630D01*
X914974Y270910D01*
X914460Y268993D01*
Y267007D01*
X914974Y265090D01*
X915966Y263370D01*
X917370Y261966D01*
X919090Y260974D01*
X921007Y260460D01*
X922993D01*
X924910Y260974D01*
X926630Y261966D01*
X928034Y263370D01*
X929026Y265090D01*
X929540Y267007D01*
Y268993D01*
X929026Y270910D01*
X928034Y272630D01*
X926630Y274034D01*
X924910Y275026D01*
X922993Y275540D01*
D02*
G37*
G36*
X710103Y275050D02*
X708117D01*
X706200Y274536D01*
X704480Y273543D01*
X703076Y272140D01*
X702084Y270420D01*
X701570Y268503D01*
Y266517D01*
X702084Y264600D01*
X703076Y262880D01*
X704480Y261476D01*
X706200Y260484D01*
X708117Y259970D01*
X710103D01*
X712020Y260484D01*
X713740Y261476D01*
X715144Y262880D01*
X716136Y264600D01*
X716650Y266517D01*
Y268503D01*
X716136Y270420D01*
X715144Y272140D01*
X713740Y273543D01*
X712020Y274536D01*
X710103Y275050D01*
D02*
G37*
G36*
X922993Y244540D02*
X921007D01*
X919090Y244026D01*
X917370Y243034D01*
X915966Y241630D01*
X914974Y239910D01*
X914460Y237993D01*
Y236007D01*
X914974Y234090D01*
X915966Y232370D01*
X917370Y230966D01*
X919090Y229974D01*
X921007Y229460D01*
X922993D01*
X924910Y229974D01*
X926630Y230966D01*
X928034Y232370D01*
X929026Y234090D01*
X929540Y236007D01*
Y237993D01*
X929026Y239910D01*
X928034Y241630D01*
X926630Y243034D01*
X924910Y244026D01*
X922993Y244540D01*
D02*
G37*
G36*
X667993Y243540D02*
X666007D01*
X664090Y243026D01*
X662370Y242034D01*
X660966Y240630D01*
X659974Y238910D01*
X659460Y236993D01*
Y235007D01*
X659974Y233090D01*
X660966Y231370D01*
X662370Y229967D01*
X664090Y228974D01*
X666007Y228460D01*
X667993D01*
X669910Y228974D01*
X671630Y229967D01*
X673034Y231370D01*
X674026Y233090D01*
X674540Y235007D01*
Y236993D01*
X674026Y238910D01*
X673034Y240630D01*
X671630Y242034D01*
X669910Y243026D01*
X667993Y243540D01*
D02*
G37*
G36*
X413993Y241540D02*
X412007D01*
X410090Y241026D01*
X408370Y240033D01*
X406967Y238630D01*
X405974Y236910D01*
X405460Y234993D01*
Y233007D01*
X405974Y231090D01*
X406967Y229370D01*
X408370Y227966D01*
X410090Y226974D01*
X412007Y226460D01*
X413993D01*
X415910Y226974D01*
X417630Y227966D01*
X419034Y229370D01*
X420026Y231090D01*
X420540Y233007D01*
Y234993D01*
X420026Y236910D01*
X419034Y238630D01*
X417630Y240033D01*
X415910Y241026D01*
X413993Y241540D01*
D02*
G37*
G36*
X923993Y222540D02*
X922007D01*
X920090Y222026D01*
X918370Y221033D01*
X916966Y219630D01*
X915974Y217910D01*
X915460Y215993D01*
Y214007D01*
X915974Y212090D01*
X916966Y210370D01*
X918370Y208967D01*
X920090Y207974D01*
X922007Y207460D01*
X923993D01*
X925910Y207974D01*
X927630Y208967D01*
X929034Y210370D01*
X930026Y212090D01*
X930540Y214007D01*
Y215993D01*
X930026Y217910D01*
X929034Y219630D01*
X927630Y221033D01*
X925910Y222026D01*
X923993Y222540D01*
D02*
G37*
G36*
X856993D02*
X855007D01*
X853090Y222026D01*
X851370Y221033D01*
X849967Y219630D01*
X848974Y217910D01*
X848460Y215993D01*
Y214007D01*
X848974Y212090D01*
X849967Y210370D01*
X851370Y208967D01*
X853090Y207974D01*
X855007Y207460D01*
X856993D01*
X858910Y207974D01*
X860630Y208967D01*
X862033Y210370D01*
X863026Y212090D01*
X863540Y214007D01*
Y215993D01*
X863026Y217910D01*
X862033Y219630D01*
X860630Y221033D01*
X858910Y222026D01*
X856993Y222540D01*
D02*
G37*
G36*
X774993D02*
X773007D01*
X771090Y222026D01*
X769370Y221033D01*
X767966Y219630D01*
X766974Y217910D01*
X766460Y215993D01*
Y214007D01*
X766974Y212090D01*
X767966Y210370D01*
X769370Y208967D01*
X771090Y207974D01*
X773007Y207460D01*
X774993D01*
X776910Y207974D01*
X778630Y208967D01*
X780033Y210370D01*
X781026Y212090D01*
X781540Y214007D01*
Y215993D01*
X781026Y217910D01*
X780033Y219630D01*
X778630Y221033D01*
X776910Y222026D01*
X774993Y222540D01*
D02*
G37*
G36*
X713993D02*
X712007D01*
X710090Y222026D01*
X708370Y221033D01*
X706966Y219630D01*
X705974Y217910D01*
X705460Y215993D01*
Y214007D01*
X705974Y212090D01*
X706966Y210370D01*
X708370Y208967D01*
X710090Y207974D01*
X712007Y207460D01*
X713993D01*
X715910Y207974D01*
X717630Y208967D01*
X719034Y210370D01*
X720026Y212090D01*
X720540Y214007D01*
Y215993D01*
X720026Y217910D01*
X719034Y219630D01*
X717630Y221033D01*
X715910Y222026D01*
X713993Y222540D01*
D02*
G37*
G36*
X618707D02*
X616722D01*
X614804Y222026D01*
X613085Y221033D01*
X611681Y219630D01*
X610688Y217910D01*
X610174Y215993D01*
Y214007D01*
X610688Y212090D01*
X611681Y210370D01*
X613085Y208967D01*
X614804Y207974D01*
X616722Y207460D01*
X618707D01*
X620625Y207974D01*
X622344Y208967D01*
X623748Y210370D01*
X624740Y212090D01*
X625254Y214007D01*
Y215993D01*
X624740Y217910D01*
X623748Y219630D01*
X622344Y221033D01*
X620625Y222026D01*
X618707Y222540D01*
D02*
G37*
G36*
X540564D02*
X538579D01*
X536661Y222026D01*
X534942Y221033D01*
X533538Y219630D01*
X532545Y217910D01*
X532031Y215993D01*
Y214007D01*
X532545Y212090D01*
X533538Y210370D01*
X534942Y208967D01*
X536661Y207974D01*
X538579Y207460D01*
X540564D01*
X542482Y207974D01*
X544201Y208967D01*
X545605Y210370D01*
X546598Y212090D01*
X547111Y214007D01*
Y215993D01*
X546598Y217910D01*
X545605Y219630D01*
X544201Y221033D01*
X542482Y222026D01*
X540564Y222540D01*
D02*
G37*
G36*
X462421D02*
X460436D01*
X458518Y222026D01*
X456799Y221033D01*
X455395Y219630D01*
X454402Y217910D01*
X453889Y215993D01*
Y214007D01*
X454402Y212090D01*
X455395Y210370D01*
X456799Y208967D01*
X458518Y207974D01*
X460436Y207460D01*
X462421D01*
X464339Y207974D01*
X466058Y208967D01*
X467462Y210370D01*
X468455Y212090D01*
X468969Y214007D01*
Y215993D01*
X468455Y217910D01*
X467462Y219630D01*
X466058Y221033D01*
X464339Y222026D01*
X462421Y222540D01*
D02*
G37*
G36*
X384278D02*
X382293D01*
X380375Y222026D01*
X378656Y221033D01*
X377252Y219630D01*
X376259Y217910D01*
X375746Y215993D01*
Y214007D01*
X376259Y212090D01*
X377252Y210370D01*
X378656Y208967D01*
X380375Y207974D01*
X382293Y207460D01*
X384278D01*
X386196Y207974D01*
X387915Y208967D01*
X389319Y210370D01*
X390312Y212090D01*
X390826Y214007D01*
Y215993D01*
X390312Y217910D01*
X389319Y219630D01*
X387915Y221033D01*
X386196Y222026D01*
X384278Y222540D01*
D02*
G37*
G36*
X306136D02*
X304150D01*
X302232Y222026D01*
X300513Y221033D01*
X299109Y219630D01*
X298117Y217910D01*
X297603Y215993D01*
Y214007D01*
X298117Y212090D01*
X299109Y210370D01*
X300513Y208967D01*
X302232Y207974D01*
X304150Y207460D01*
X306136D01*
X308053Y207974D01*
X309772Y208967D01*
X311176Y210370D01*
X312169Y212090D01*
X312683Y214007D01*
Y215993D01*
X312169Y217910D01*
X311176Y219630D01*
X309772Y221033D01*
X308053Y222026D01*
X306136Y222540D01*
D02*
G37*
G36*
X227993D02*
X226007D01*
X224090Y222026D01*
X222370Y221033D01*
X220966Y219630D01*
X219974Y217910D01*
X219460Y215993D01*
Y214007D01*
X219974Y212090D01*
X220966Y210370D01*
X222370Y208967D01*
X224090Y207974D01*
X226007Y207460D01*
X227993D01*
X229910Y207974D01*
X231630Y208967D01*
X233034Y210370D01*
X234026Y212090D01*
X234540Y214007D01*
Y215993D01*
X234026Y217910D01*
X233034Y219630D01*
X231630Y221033D01*
X229910Y222026D01*
X227993Y222540D01*
D02*
G37*
G36*
X1019561Y241540D02*
X1014439D01*
X1009380Y240739D01*
X1004509Y239156D01*
X999945Y236831D01*
X995802Y233820D01*
X992180Y230198D01*
X989169Y226055D01*
X986844Y221491D01*
X985261Y216620D01*
X984460Y211561D01*
Y206439D01*
X985261Y201380D01*
X986844Y196509D01*
X989169Y191945D01*
X992180Y187802D01*
X995802Y184180D01*
X999945Y181169D01*
X1004509Y178844D01*
X1009380Y177261D01*
X1014439Y176460D01*
X1019561D01*
X1024620Y177261D01*
X1029491Y178844D01*
X1034055Y181169D01*
X1038198Y184180D01*
X1041820Y187802D01*
X1044831Y191945D01*
X1047156Y196509D01*
X1048739Y201380D01*
X1049540Y206439D01*
Y211561D01*
X1048739Y216620D01*
X1047156Y221491D01*
X1044831Y226055D01*
X1041820Y230198D01*
X1038198Y233820D01*
X1034055Y236831D01*
X1029491Y239156D01*
X1024620Y240739D01*
X1019561Y241540D01*
D02*
G37*
G36*
X99561D02*
X94439D01*
X89380Y240739D01*
X84509Y239156D01*
X79945Y236831D01*
X75802Y233820D01*
X72180Y230198D01*
X69169Y226055D01*
X66844Y221491D01*
X65261Y216620D01*
X64460Y211561D01*
Y206439D01*
X65261Y201380D01*
X66844Y196509D01*
X69169Y191945D01*
X72180Y187802D01*
X75802Y184180D01*
X79945Y181169D01*
X84509Y178844D01*
X89380Y177261D01*
X94439Y176460D01*
X99561D01*
X104620Y177261D01*
X109491Y178844D01*
X114055Y181169D01*
X118198Y184180D01*
X121820Y187802D01*
X124831Y191945D01*
X127156Y196509D01*
X128739Y201380D01*
X129540Y206439D01*
Y211561D01*
X128739Y216620D01*
X127156Y221491D01*
X124831Y226055D01*
X121820Y230198D01*
X118198Y233820D01*
X114055Y236831D01*
X109491Y239156D01*
X104620Y240739D01*
X99561Y241540D01*
D02*
G37*
%LPD*%
G36*
X996666Y801810D02*
X997926Y800550D01*
X996666Y799290D01*
X995575Y797400D01*
X995010Y795291D01*
Y793109D01*
X995575Y791000D01*
X996666Y789110D01*
X997926Y787850D01*
X996666Y786590D01*
X995575Y784700D01*
X995010Y782591D01*
Y780409D01*
X995575Y778300D01*
X996666Y776410D01*
X997926Y775150D01*
X996666Y773890D01*
X995970Y772685D01*
X732800D01*
X731313Y772389D01*
X730053Y771547D01*
X713824Y755317D01*
X712993Y755540D01*
X711007D01*
X709090Y755026D01*
X707370Y754034D01*
X705966Y752630D01*
X704974Y750910D01*
X704460Y748993D01*
Y747007D01*
X704974Y745090D01*
X705966Y743370D01*
X707370Y741966D01*
X709090Y740974D01*
X711007Y740460D01*
X712993D01*
X714910Y740974D01*
X716630Y741966D01*
X718034Y743370D01*
X719026Y745090D01*
X719540Y747007D01*
Y748993D01*
X719317Y749824D01*
X734409Y764915D01*
X995970D01*
X996666Y763710D01*
X997926Y762450D01*
X996666Y761190D01*
X995970Y759985D01*
X753100D01*
X751613Y759689D01*
X750353Y758847D01*
X703824Y712317D01*
X702993Y712540D01*
X701007D01*
X699090Y712026D01*
X697370Y711033D01*
X696155Y709818D01*
X695383Y709979D01*
X694885Y710278D01*
Y775391D01*
X722509Y803015D01*
X995970D01*
X996666Y801810D01*
D02*
G37*
G36*
Y852610D02*
X997926Y851350D01*
X996666Y850090D01*
X995970Y848885D01*
X686000D01*
X684513Y848589D01*
X683253Y847747D01*
X658253Y822747D01*
X657411Y821487D01*
X657115Y820000D01*
Y519609D01*
X647824Y510317D01*
X646993Y510540D01*
X645007D01*
X643090Y510026D01*
X641370Y509034D01*
X639967Y507630D01*
X638974Y505910D01*
X638460Y503993D01*
Y502007D01*
X638974Y500090D01*
X639967Y498370D01*
X641370Y496967D01*
X643090Y495974D01*
X645007Y495460D01*
X646993D01*
X648910Y495974D01*
X650630Y496967D01*
X652033Y498370D01*
X653026Y500090D01*
X653540Y502007D01*
Y503993D01*
X653317Y504824D01*
X663747Y515253D01*
X664589Y516513D01*
X664885Y518000D01*
Y818391D01*
X687609Y841115D01*
X995970D01*
X996666Y839910D01*
X997926Y838650D01*
X996666Y837390D01*
X995970Y836185D01*
X699300D01*
X697813Y835889D01*
X696553Y835047D01*
X668253Y806747D01*
X667411Y805487D01*
X667115Y804000D01*
Y506554D01*
X665993Y505540D01*
X664007D01*
X662090Y505026D01*
X660370Y504034D01*
X658967Y502630D01*
X657974Y500910D01*
X657460Y498993D01*
Y497007D01*
X657974Y495090D01*
X658967Y493370D01*
X660370Y491967D01*
X662090Y490974D01*
X664007Y490460D01*
X665993D01*
X667910Y490974D01*
X669630Y491967D01*
X671033Y493370D01*
X672026Y495090D01*
X672540Y497007D01*
Y498993D01*
X672317Y499824D01*
X673747Y501253D01*
X674589Y502514D01*
X674885Y504000D01*
Y802391D01*
X700909Y828415D01*
X995970D01*
X996666Y827210D01*
X997926Y825950D01*
X996666Y824690D01*
X995970Y823485D01*
X707600D01*
X706113Y823189D01*
X704853Y822347D01*
X678253Y795747D01*
X677411Y794487D01*
X677115Y793000D01*
Y496609D01*
X668391Y487885D01*
X614609D01*
X586747Y515747D01*
X585487Y516589D01*
X584000Y516885D01*
X540554D01*
X539887Y518155D01*
X540252Y518685D01*
X589821D01*
X609253Y499253D01*
X610513Y498411D01*
X612000Y498115D01*
X623896D01*
X625382Y498411D01*
X626643Y499253D01*
X653747Y526357D01*
X654589Y527618D01*
X654885Y529104D01*
Y827391D01*
X681609Y854115D01*
X995797D01*
X996666Y852610D01*
D02*
G37*
G36*
X841960Y421460D02*
X848115D01*
Y413882D01*
X848375Y412578D01*
X847977Y411584D01*
X847830Y411308D01*
X835186D01*
X831885Y414609D01*
Y421460D01*
X838040D01*
Y433115D01*
X841960D01*
Y421460D01*
D02*
G37*
G36*
X993000Y296164D02*
X992745Y295000D01*
X991594Y294745D01*
X936000D01*
Y295000D01*
X869000D01*
X864000Y300000D01*
Y341000D01*
X869500Y346500D01*
X909000D01*
X917500Y355000D01*
X993000D01*
Y296164D01*
D02*
G37*
%LPC*%
G36*
X945220Y353540D02*
X944270D01*
Y332270D01*
X965540D01*
Y333220D01*
X964674Y337575D01*
X962975Y341677D01*
X960508Y345368D01*
X957368Y348508D01*
X953677Y350975D01*
X949575Y352674D01*
X945220Y353540D01*
D02*
G37*
G36*
X941730D02*
X940780D01*
X936425Y352674D01*
X932323Y350975D01*
X928632Y348508D01*
X925492Y345368D01*
X923025Y341677D01*
X921326Y337575D01*
X920460Y333220D01*
Y332270D01*
X941730D01*
Y353540D01*
D02*
G37*
G36*
X901540Y335040D02*
X885270D01*
Y321270D01*
X901540D01*
Y335040D01*
D02*
G37*
G36*
X882730D02*
X866460D01*
Y321270D01*
X882730D01*
Y335040D01*
D02*
G37*
G36*
X965540Y329730D02*
X944270D01*
Y308460D01*
X945220D01*
X949575Y309326D01*
X953677Y311025D01*
X957368Y313492D01*
X960508Y316632D01*
X962975Y320323D01*
X964674Y324425D01*
X965540Y328780D01*
Y329730D01*
D02*
G37*
G36*
X941730D02*
X920460D01*
Y328780D01*
X921326Y324425D01*
X923025Y320323D01*
X925492Y316632D01*
X928632Y313492D01*
X932323Y311025D01*
X936425Y309326D01*
X940780Y308460D01*
X941730D01*
Y329730D01*
D02*
G37*
G36*
X901540Y318730D02*
X885270D01*
Y304960D01*
X901540D01*
Y318730D01*
D02*
G37*
G36*
X882730D02*
X866460D01*
Y304960D01*
X882730D01*
Y318730D01*
D02*
G37*
%LPD*%
D10*
X616000Y845000D02*
X666800Y895800D01*
X616000Y578000D02*
Y845000D01*
X719000Y558250D02*
X721000Y560250D01*
X870000Y921000D02*
X900500D01*
X772678Y893322D02*
X781178D01*
X768400Y897600D02*
Y921000D01*
Y897600D02*
X772678Y893322D01*
X844600Y897906D02*
X849506Y893000D01*
X858500D01*
Y893092D01*
X855270Y896322D02*
X858500Y893092D01*
X798500Y893000D02*
X799500Y892000D01*
X781178Y893322D02*
X781500Y893000D01*
X844600Y897906D02*
Y921000D01*
X872000Y471500D02*
X872500Y472000D01*
X872000Y436423D02*
Y471500D01*
X831000Y474000D02*
Y495500D01*
X737000Y506000D02*
X781000D01*
X828000Y445500D02*
Y459000D01*
X781000Y506000D02*
X828000Y459000D01*
X831000Y474000D02*
X852000Y453000D01*
Y445500D02*
Y453000D01*
X810000Y437000D02*
X871423D01*
X761500Y451000D02*
X796000D01*
X871423Y437000D02*
X872000Y436423D01*
X796000Y451000D02*
X810000Y437000D01*
X872000Y436423D02*
X893577D01*
X852000Y413882D02*
Y428500D01*
X858000Y407423D02*
Y407882D01*
X852000Y413882D02*
X858000Y407882D01*
X820000Y389500D02*
X820500Y389000D01*
X720000Y444000D02*
X727000Y451000D01*
X744500D01*
X893577Y436423D02*
X896577Y433423D01*
X828000Y413000D02*
X833577Y407423D01*
X858000D01*
X828000Y413000D02*
Y428500D01*
X709000Y882000D02*
X890000D01*
X692200Y898800D02*
X709000Y882000D01*
X525000Y537000D02*
X533000D01*
X519000Y531000D02*
X525000Y537000D01*
X641080Y540080D02*
Y840080D01*
X618000Y517000D02*
X641080Y540080D01*
X591430Y522570D02*
X612000Y502000D01*
X533000Y522570D02*
X591430D01*
X670000Y484000D02*
X681000Y495000D01*
X584000Y513000D02*
X613000Y484000D01*
X670000D01*
X665000Y498000D02*
Y498000D01*
X671000Y504000D01*
Y804000D01*
X699300Y832300D01*
X661000Y518000D02*
Y820000D01*
X646000Y503000D02*
X661000Y518000D01*
X612000Y502000D02*
X623896D01*
X651000Y529104D01*
Y829000D01*
X525000Y513000D02*
X584000D01*
X732800Y768800D02*
X1003300D01*
X712000Y748000D02*
X732800Y768800D01*
X691000Y777000D02*
X720900Y806900D01*
X678000Y472000D02*
X691000Y485000D01*
Y777000D01*
X583000Y472000D02*
X678000D01*
X519000Y519000D02*
X525000Y513000D01*
X671400Y870400D02*
X1003300D01*
X641080Y840080D02*
X671400Y870400D01*
X661000Y820000D02*
X686000Y845000D01*
X681000Y495000D02*
Y793000D01*
X707600Y819600D01*
X651000Y829000D02*
X680000Y858000D01*
X720900Y806900D02*
X1003300D01*
X702000Y705000D02*
X753100Y756100D01*
X702000Y537056D02*
Y705000D01*
Y537056D02*
X717843Y521214D01*
X806000Y936000D02*
Y965000D01*
X735500Y974000D02*
X797000D01*
X806000Y965000D01*
X692200Y898800D02*
Y921000D01*
X753100Y756100D02*
X1003300D01*
X699300Y832300D02*
X1003300D01*
X707600Y819600D02*
X1003300D01*
X686000Y845000D02*
X1003300D01*
X1003000Y858000D02*
X1003300Y857700D01*
X680000Y858000D02*
X1003000D01*
X519000Y519000D02*
Y531000D01*
X549000Y484500D02*
X550500Y486000D01*
X549000Y503500D02*
X549500Y504000D01*
X666800Y895800D02*
Y921000D01*
Y922800D01*
X819200Y921000D02*
Y922800D01*
X806000Y936000D02*
X819200Y922800D01*
X679000Y968860D02*
X684049Y973909D01*
X666800Y922800D02*
X679000Y935000D01*
Y968860D01*
X684049Y973909D02*
X718409D01*
X507282Y406000D02*
X507532Y406250D01*
X719000Y575750D02*
X719250Y576000D01*
X592520Y380270D02*
X593250Y381000D01*
X700000Y427250D02*
X700250Y427000D01*
X719000Y410190D02*
Y411000D01*
Y543000D02*
X720000Y542000D01*
X548750Y406000D02*
X549000Y406250D01*
X718409Y973909D02*
X718500Y974000D01*
X596000Y595500D02*
X596496Y595004D01*
Y578000D02*
Y595004D01*
X576730Y380270D02*
X577000Y380000D01*
D14*
X555500Y934000D02*
D03*
X572500D02*
D03*
X943500Y738000D02*
D03*
X926500D02*
D03*
X718500Y974000D02*
D03*
X735500D02*
D03*
X761500Y451000D02*
D03*
X744500D02*
D03*
X798500Y893000D02*
D03*
X781500D02*
D03*
X858500D02*
D03*
X875500D02*
D03*
X917500Y921000D02*
D03*
X900500D02*
D03*
D15*
X596000Y612500D02*
D03*
Y595500D02*
D03*
X786000Y451500D02*
D03*
Y468500D02*
D03*
D16*
X560000Y619500D02*
D03*
Y600500D02*
D03*
X745000Y541500D02*
D03*
Y560500D02*
D03*
X697000Y346500D02*
D03*
Y365500D02*
D03*
X722000Y380250D02*
D03*
Y361250D02*
D03*
X700000Y425500D02*
D03*
Y444500D02*
D03*
X507532Y464250D02*
D03*
Y445250D02*
D03*
X549000Y445250D02*
D03*
Y464250D02*
D03*
X507532Y404500D02*
D03*
Y423500D02*
D03*
X549000Y423500D02*
D03*
Y404500D02*
D03*
X791000Y319500D02*
D03*
Y338500D02*
D03*
X549000Y503500D02*
D03*
Y484500D02*
D03*
X719000Y558500D02*
D03*
Y577500D02*
D03*
X820000Y389500D02*
D03*
Y370500D02*
D03*
X556000Y771500D02*
D03*
Y752500D02*
D03*
X357000Y776500D02*
D03*
Y795500D02*
D03*
X589000Y730500D02*
D03*
Y749500D02*
D03*
D17*
X173500Y836000D02*
D03*
X154500D02*
D03*
X754500Y403000D02*
D03*
X735500D02*
D03*
X703500D02*
D03*
X684500D02*
D03*
X754500Y427000D02*
D03*
X735500D02*
D03*
X154500Y785000D02*
D03*
X173500D02*
D03*
X540500Y380000D02*
D03*
X559500D02*
D03*
X591500D02*
D03*
X610500D02*
D03*
X521500Y578000D02*
D03*
X540500D02*
D03*
X294500Y732000D02*
D03*
X313500D02*
D03*
D21*
X841000Y320000D02*
D03*
X884000D02*
D03*
D75*
X633000Y240050D02*
D03*
X622000D02*
D03*
Y252250D02*
D03*
X633000D02*
D03*
Y264450D02*
D03*
X622000D02*
D03*
X368500Y264200D02*
D03*
X379500D02*
D03*
Y252000D02*
D03*
X368500D02*
D03*
Y239800D02*
D03*
X379500D02*
D03*
X109800Y327500D02*
D03*
Y338500D02*
D03*
X122000D02*
D03*
Y327500D02*
D03*
X134200D02*
D03*
Y338500D02*
D03*
X876500Y264200D02*
D03*
X887500D02*
D03*
Y252000D02*
D03*
X876500D02*
D03*
Y239800D02*
D03*
X887500D02*
D03*
D76*
X379250Y775750D02*
X380000Y775000D01*
X357000Y775500D02*
X357250Y775750D01*
X379250D01*
X357000Y795500D02*
X357250Y795750D01*
X379750D01*
X380000Y796000D01*
X357000Y775500D02*
X357250Y775250D01*
X313500Y732000D02*
X314000Y732500D01*
X333500D01*
X312500Y732000D02*
X313500D01*
X278000Y712000D02*
Y725000D01*
X293356Y731856D02*
X293500Y732000D01*
X284856Y731856D02*
X293356D01*
X278000Y725000D02*
X284856Y731856D01*
X333500Y732500D02*
X334000Y733000D01*
X589000Y722976D02*
Y730500D01*
X605450Y718581D02*
X606015Y718015D01*
X593395Y718581D02*
X605450D01*
X589000Y722976D02*
X593395Y718581D01*
X589000Y749500D02*
Y768000D01*
X535331Y750000D02*
X538831Y753500D01*
X556000D01*
X555500Y772000D02*
X556000Y772500D01*
X538831Y771500D02*
X556000D01*
X534000Y775000D02*
X535331D01*
X538831Y771500D01*
X534000Y750000D02*
X535331D01*
X560000Y598500D02*
X562000Y600500D01*
X576730Y380270D02*
X592520D01*
X557750D02*
X576730D01*
X549500Y504000D02*
X550035Y503465D01*
X526250Y421750D02*
X549000D01*
X526000Y438000D02*
X526790D01*
X524711D02*
X526000D01*
X904000Y738000D02*
X926500D01*
X1016000Y745000D02*
Y756100D01*
X1009000Y738000D02*
X1016000Y745000D01*
X943500Y738000D02*
X1009000D01*
X532000Y934000D02*
X555500D01*
X628000Y921000D02*
X641400D01*
X615000Y934000D02*
X628000Y921000D01*
X572500Y934000D02*
X615000D01*
X627400Y946400D02*
X641400D01*
X615000Y934000D02*
X627400Y946400D01*
X919000Y409000D02*
X930000Y420000D01*
X906000Y409000D02*
X919000D01*
X875500Y893000D02*
X876000Y893500D01*
X936500D01*
X937000Y894000D01*
X917500Y921000D02*
X937000D01*
X799500Y892000D02*
X818000D01*
X848294Y370746D02*
X848540Y370993D01*
X820246Y370746D02*
X848294D01*
X820000Y370500D02*
X820246Y370746D01*
X863000Y494000D02*
Y527000D01*
X831000Y512500D02*
Y530000D01*
X754500Y426500D02*
X772500D01*
X773000Y426000D01*
X820500Y389000D02*
X841000D01*
X770000Y483000D02*
X783024D01*
X786000Y468500D02*
Y480024D01*
X783024Y483000D02*
X786000Y480024D01*
X722000Y343000D02*
Y363000D01*
X697000Y329000D02*
Y345500D01*
X754500Y403000D02*
X779000D01*
X541000Y621000D02*
X541750Y620250D01*
X561250D01*
X560000Y578000D02*
Y598500D01*
X521750Y599750D02*
X522000Y600000D01*
X521750Y582500D02*
Y599750D01*
Y582500D02*
X522750Y581500D01*
X543750Y578000D02*
X560000D01*
X531790Y443000D02*
X546750D01*
X549000Y445250D01*
X519055Y443657D02*
X524711Y438000D01*
X507532Y445250D02*
X509125Y443657D01*
X526790Y438000D02*
X531790Y443000D01*
X509125Y443657D02*
X519055D01*
X570965Y503465D02*
X571000Y503430D01*
X550035Y503465D02*
X570965D01*
X173500Y837000D02*
X174500Y836000D01*
X191000D01*
X178750Y786000D02*
X190000D01*
X550500Y486000D02*
X571000D01*
X703500Y404000D02*
X712000D01*
X791000Y338500D02*
Y357000D01*
Y336270D02*
Y338500D01*
X487000Y406000D02*
X507282D01*
X679000Y421669D02*
Y423000D01*
X682549Y407943D02*
X684000Y406491D01*
X682549Y407943D02*
Y418120D01*
X679000Y421669D02*
X682549Y418120D01*
X697000Y381000D02*
X697375Y380625D01*
X721875D01*
X697000Y365865D02*
Y380000D01*
X721875Y380625D02*
X722000Y380500D01*
X521000Y380000D02*
X542250D01*
X131000Y785000D02*
X154500D01*
X154375Y836000D02*
X154500Y836125D01*
X131000Y836000D02*
X154375D01*
X561250Y620250D02*
X562000Y619500D01*
X549000Y464250D02*
X549701Y463549D01*
X564701D01*
X573250Y455000D01*
X574000D01*
X494250Y464250D02*
X507532D01*
X488000Y458000D02*
X494250Y464250D01*
X488000Y458000D02*
X489331D01*
X791000Y299000D02*
Y321250D01*
X724440Y404750D02*
X735250D01*
X608750Y380000D02*
X629000D01*
X719250Y576000D02*
X737000D01*
X700250Y427000D02*
X720000D01*
X735250D01*
X712000Y404000D02*
X719000Y411000D01*
Y410190D02*
X724440Y404750D01*
X719000Y543000D02*
Y558250D01*
X596000Y612500D02*
X596500Y613000D01*
Y632500D01*
X699875Y442875D02*
X700000Y442750D01*
X680125Y442875D02*
X699875D01*
X680000Y443000D02*
X680125Y442875D01*
X507532Y421750D02*
X507657Y421875D01*
X525875D01*
X526000Y422000D01*
X526250Y421750D01*
X526000Y406000D02*
X548750D01*
X720000Y542000D02*
X738250D01*
D77*
X737000Y576000D02*
X745000Y568000D01*
Y558750D02*
Y568000D01*
D78*
X943000Y514000D02*
D03*
Y381000D02*
D03*
Y649000D02*
D03*
D79*
Y464000D02*
D03*
Y331000D02*
D03*
Y599000D02*
D03*
D80*
X1016000Y756100D02*
D03*
D81*
Y832300D02*
D03*
Y806900D02*
D03*
Y794200D02*
D03*
Y819600D02*
D03*
Y845000D02*
D03*
Y857700D02*
D03*
X1003300Y781500D02*
D03*
Y794200D02*
D03*
Y806900D02*
D03*
Y819600D02*
D03*
Y832300D02*
D03*
Y845000D02*
D03*
Y857700D02*
D03*
Y870400D02*
D03*
X1016000Y781500D02*
D03*
Y870400D02*
D03*
X1003300Y768800D02*
D03*
X1016000D02*
D03*
X1003300Y756100D02*
D03*
D82*
X492000Y592000D02*
D03*
D83*
Y611000D02*
D03*
D84*
X641400Y921000D02*
D03*
D85*
X666800D02*
D03*
X692200D02*
D03*
X717600D02*
D03*
X743000D02*
D03*
X768400D02*
D03*
X793800D02*
D03*
X819200D02*
D03*
X844600D02*
D03*
X870000D02*
D03*
X641400Y946400D02*
D03*
X666800D02*
D03*
X692200D02*
D03*
X717600D02*
D03*
X743000D02*
D03*
X768400D02*
D03*
X793800D02*
D03*
X819200D02*
D03*
X870000D02*
D03*
X844600D02*
D03*
D86*
X353850Y903600D02*
D03*
X326150D02*
D03*
X298450D02*
D03*
X270750D02*
D03*
X256900Y932000D02*
D03*
X284600D02*
D03*
X312300D02*
D03*
X340000D02*
D03*
D87*
X243050Y903600D02*
D03*
D88*
X173482Y917774D02*
D03*
X423418D02*
D03*
X97000Y209000D02*
D03*
Y960000D02*
D03*
X1017000Y209000D02*
D03*
Y960000D02*
D03*
D89*
X384000Y710000D02*
D03*
X380000Y775000D02*
D03*
X278000Y712000D02*
D03*
X589000Y768000D02*
D03*
X606015Y718015D02*
D03*
X534000Y750000D02*
D03*
X380000Y796000D02*
D03*
X334000Y733000D02*
D03*
X534000Y775000D02*
D03*
X542000Y850000D02*
D03*
X532000Y934000D02*
D03*
X930000Y420000D02*
D03*
X937000Y894000D02*
D03*
Y921000D02*
D03*
X818000Y892000D02*
D03*
X748000Y481000D02*
D03*
X848540Y370993D02*
D03*
X863000Y530000D02*
D03*
X831000D02*
D03*
X773000Y426000D02*
D03*
X841000Y389000D02*
D03*
X815000Y338000D02*
D03*
X770000Y483000D02*
D03*
X872000Y436423D02*
D03*
X895000Y472000D02*
D03*
Y456423D02*
D03*
X858000Y407423D02*
D03*
X720000Y444000D02*
D03*
X779000Y403000D02*
D03*
X737000Y506000D02*
D03*
X646000Y503000D02*
D03*
X722000Y343000D02*
D03*
X697000Y329000D02*
D03*
X743110Y275000D02*
D03*
X483000D02*
D03*
X709110Y267510D02*
D03*
X890000Y882000D02*
D03*
X163270Y472730D02*
D03*
X541000Y621000D02*
D03*
X522000Y600000D02*
D03*
X560000Y578000D02*
D03*
X578000D02*
D03*
X314000Y307000D02*
D03*
X618000Y517000D02*
D03*
X665000Y498000D02*
D03*
X712000Y748000D02*
D03*
X702000Y705000D02*
D03*
X525925Y452116D02*
D03*
X583000Y472000D02*
D03*
X571000Y503430D02*
D03*
X533000Y522570D02*
D03*
Y537000D02*
D03*
X191000Y836000D02*
D03*
X190499Y785750D02*
D03*
X904000Y738000D02*
D03*
X571000Y486000D02*
D03*
X359000Y851000D02*
D03*
Y833000D02*
D03*
X791000Y359000D02*
D03*
X760000Y328000D02*
D03*
X487000Y406000D02*
D03*
X679000Y423000D02*
D03*
X697000Y381000D02*
D03*
X678793Y376008D02*
D03*
X521000Y380000D02*
D03*
X131000Y785000D02*
D03*
Y836000D02*
D03*
X494000Y543000D02*
D03*
X489000Y501000D02*
D03*
X488000Y458000D02*
D03*
X791000Y299000D02*
D03*
X629000Y380000D02*
D03*
X737000Y576000D02*
D03*
X107000Y294000D02*
D03*
X140000Y296000D02*
D03*
X413000Y234000D02*
D03*
X667000Y236000D02*
D03*
X922000Y268000D02*
D03*
X720000Y427000D02*
D03*
X719000Y411000D02*
D03*
Y543000D02*
D03*
X923000Y215000D02*
D03*
X596500Y632500D02*
D03*
X680000Y443000D02*
D03*
X526000Y422000D02*
D03*
X574000Y455000D02*
D03*
X526000Y406000D02*
D03*
X374000Y285000D02*
D03*
X713000Y215000D02*
D03*
X774000D02*
D03*
X539571D02*
D03*
X305143D02*
D03*
X87000Y297000D02*
D03*
X727988Y531078D02*
D03*
X526000Y438000D02*
D03*
X461428Y215000D02*
D03*
X94000Y370500D02*
D03*
X882000Y285000D02*
D03*
X628000D02*
D03*
X617714Y215000D02*
D03*
X922000Y237000D02*
D03*
X616000Y578000D02*
D03*
X576730Y380270D02*
D03*
X717843Y521214D02*
D03*
X450000Y270000D02*
D03*
X94000Y444000D02*
D03*
X227000Y215000D02*
D03*
X383286D02*
D03*
X155000Y333000D02*
D03*
X209000Y269000D02*
D03*
X596496Y578000D02*
D03*
X856000Y215000D02*
D03*
D100*
X828000Y445500D02*
D03*
Y428500D02*
D03*
X852000D02*
D03*
Y445500D02*
D03*
D101*
X831000Y512500D02*
D03*
Y495500D02*
D03*
D102*
X863000Y494000D02*
D03*
X853500Y472000D02*
D03*
X872500D02*
D03*
X906000Y409000D02*
D03*
X887000D02*
D03*
X896500Y431000D02*
D03*
M02*
